<?xml version="1.0" standalone="no"?>
<!DOCTYPE svg PUBLIC "-//W3C//DTD SVG 20010904//EN"
 "http://www.w3.org/TR/2001/REC-SVG-20010904/DTD/svg10.dtd">
<svg version="1.0" xmlns="http://www.w3.org/2000/svg"
 width="1080.000000pt" height="1080.000000pt" viewBox="0 0 1080.000000 1080.000000"
 preserveAspectRatio="xMidYMid meet">

<g transform="translate(0.000000,1080.000000) scale(0.100000,-0.100000)"
fill="#000000" stroke="none">
<path d="M4158 8528 c-3 -725 -3 -744 -23 -770 -11 -15 -36 -36 -56 -47 -36
-21 -47 -21 -768 -21 l-731 0 0 -2520 c0 -1800 3 -2534 11 -2572 34 -165 160
-307 327 -371 l57 -22 2098 -3 c1836 -2 2106 0 2162 13 174 40 308 161 367
332 l23 68 0 3125 0 3125 -23 64 c-59 163 -178 277 -341 325 -49 14 -206 16
-1578 16 l-1523 0 -2 -742z m1577 -393 c95 -20 217 -83 290 -148 l60 -55 -20
-22 c-11 -12 -64 -63 -117 -112 l-98 -90 -42 36 c-83 72 -166 96 -261 76 -101
-20 -182 -105 -227 -234 -36 -105 -63 -96 280 -96 l300 0 0 -105 0 -105 -315
0 c-203 0 -315 -4 -316 -10 -1 -5 -1 -19 -1 -30 0 -11 0 -40 1 -65 l1 -45 255
0 255 0 0 -105 0 -105 -240 0 c-132 0 -240 -4 -240 -8 0 -26 45 -134 75 -180
64 -96 153 -139 265 -129 71 6 125 35 189 101 l44 45 80 -72 c44 -40 96 -87
116 -104 l36 -33 -78 -75 c-209 -200 -491 -238 -766 -104 -103 51 -217 159
-279 264 -40 69 -102 234 -102 273 0 26 -11 29 -102 28 l-78 -1 0 97 0 96 75
7 75 7 0 74 0 74 -75 0 -75 0 0 94 c0 108 -1 106 90 106 70 0 90 7 90 29 0 31
58 189 96 263 49 94 181 230 274 281 151 83 333 114 485 82z m-726 -2602 l23
-27 -6 -210 c-10 -320 -14 -363 -41 -394 -18 -20 -32 -27 -63 -27 -32 0 -51
10 -107 53 -37 28 -71 52 -76 52 -5 0 -103 -127 -218 -282 -116 -156 -225
-300 -242 -322 -38 -45 -89 -70 -130 -61 -15 4 -117 73 -226 154 -109 81 -203
150 -210 154 -7 4 -31 -21 -64 -65 -222 -301 -428 -575 -442 -587 -30 -24 -98
-25 -135 -1 -33 21 -62 72 -62 110 0 35 22 68 226 342 403 539 375 508 453
508 33 0 63 -19 237 -148 109 -81 204 -151 211 -155 7 -5 79 83 202 248 105
140 191 259 191 264 0 5 -32 32 -70 61 -96 69 -113 115 -62 169 22 24 74 46
277 115 270 93 293 96 334 49z m1656 -17 c244 -83 436 -286 501 -531 8 -27 14
-56 14 -63 0 -10 -72 -12 -342 -10 l-342 3 -79 145 c-202 372 -238 443 -230
451 24 24 132 38 263 35 115 -2 147 -7 215 -30z m-520 -471 c98 -181 188 -341
202 -355 l23 -25 405 -3 c467 -3 422 11 380 -119 -51 -162 -189 -339 -328
-422 -398 -236 -903 -84 -1097 330 -120 257 -87 570 84 796 54 72 136 147 147
136 4 -5 87 -156 184 -338z m-1086 -671 l31 -26 0 -618 c0 -433 -3 -626 -11
-643 -19 -42 -47 -47 -255 -47 l-196 0 -29 29 -29 29 0 622 0 622 29 29 29 29
200 0 200 0 31 -26z m-796 -335 c14 -6 30 -22 36 -36 7 -16 11 -163 11 -464
l0 -441 -29 -29 -29 -29 -197 0 c-198 0 -225 4 -252 39 -9 12 -12 129 -13 469
l0 453 26 24 c27 25 29 25 225 25 124 0 207 -4 222 -11z m-758 -364 l25 -24 0
-270 c0 -177 -4 -278 -11 -294 -19 -42 -47 -47 -255 -47 l-196 0 -29 29 -29
29 0 277 0 276 25 24 c24 25 24 25 235 25 211 0 211 0 235 -25z m3656 -144
l29 -29 0 -202 0 -202 -29 -29 -29 -29 -701 0 c-419 0 -710 4 -725 10 -14 5
-29 18 -35 28 -6 12 -11 106 -11 228 l-1 209 26 22 26 23 710 0 711 0 29 -29z"/>
<path d="M3255 8590 l-580 -580 583 0 582 0 0 580 c0 319 -1 580 -3 580 -1 0
-263 -261 -582 -580z"/>
<path d="M7948 5578 c-3 -3417 7 -3048 -91 -3248 -45 -92 -62 -117 -146 -201
-100 -100 -169 -147 -285 -193 -146 -59 -43 -56 -2191 -56 -1133 0 -1976 -4
-1979 -9 -11 -17 16 -126 42 -175 34 -63 101 -120 169 -146 54 -20 61 -20
2286 -18 l2232 3 45 22 c63 31 128 98 159 163 l26 55 0 3290 0 3290 -29 58
c-17 32 -47 74 -69 94 -38 34 -129 83 -154 83 -10 0 -13 -625 -15 -3012z"/>
</g>
</svg>
