<?xml version="1.0" standalone="no"?>
<!DOCTYPE svg PUBLIC "-//W3C//DTD SVG 20010904//EN"
 "http://www.w3.org/TR/2001/REC-SVG-20010904/DTD/svg10.dtd">
<svg version="1.0" xmlns="http://www.w3.org/2000/svg"
 width="1080.000000pt" height="1080.000000pt" viewBox="0 0 1080.000000 1080.000000"
 preserveAspectRatio="xMidYMid meet">

<g transform="translate(0.000000,1080.000000) scale(0.100000,-0.100000)"
fill="#000000" stroke="none">
<path d="M2808 9081 c-450 -337 -834 -804 -1101 -1338 -135 -268 -248 -578
-322 -878 -83 -337 -114 -579 -122 -940 -6 -266 2 -422 34 -668 l17 -129 25 5
c14 3 142 24 285 48 l258 43 -5 45 c-4 25 -11 82 -17 125 -34 262 -32 636 5
924 87 667 369 1323 780 1815 127 152 315 335 463 451 l112 88 -34 47 c-18 25
-91 127 -161 226 -70 99 -130 183 -134 187 -3 4 -41 -19 -83 -51z"/>
<path d="M7787 8962 c-69 -97 -144 -202 -166 -234 l-41 -56 113 -88 c147 -116
335 -300 462 -451 554 -662 856 -1592 805 -2479 -5 -100 -15 -216 -20 -260 -6
-43 -13 -100 -17 -125 l-5 -45 258 -43 c143 -24 271 -45 285 -48 l25 -5 17
129 c32 246 40 402 34 668 -8 361 -39 603 -122 940 -226 921 -749 1725 -1461
2245 l-41 30 -126 -178z"/>
<path d="M3728 8379 c-436 -323 -815 -805 -1053 -1343 -285 -642 -383 -1347
-289 -2061 9 -66 19 -123 22 -126 7 -7 551 86 560 96 3 2 -3 60 -13 127 -23
161 -31 547 -16 716 57 622 289 1209 661 1671 139 172 342 367 502 480 l48 34
-53 76 c-29 42 -102 147 -162 234 -60 86 -112 157 -116 157 -4 0 -45 -28 -91
-61z"/>
<path d="M6865 8283 c-60 -87 -133 -192 -162 -234 l-53 -76 48 -34 c160 -113
363 -308 502 -480 372 -462 604 -1049 661 -1671 15 -169 7 -555 -16 -716 -10
-67 -16 -125 -13 -127 9 -10 553 -103 560 -96 3 3 13 60 22 126 67 503 39 992
-84 1470 -182 708 -564 1343 -1080 1789 -97 85 -256 206 -269 206 -4 0 -56
-71 -116 -157z"/>
<path d="M4880 7630 c-609 -111 -1104 -540 -1288 -1120 -78 -246 -82 -305 -82
-1296 l0 -844 1890 0 1890 0 0 844 c0 1009 -3 1056 -90 1317 -183 552 -641
958 -1231 1091 -87 20 -128 22 -539 24 -402 3 -455 1 -550 -16z m427 -537 c84
-39 120 -171 70 -256 -30 -51 -60 -66 -197 -101 -361 -93 -624 -328 -735 -660
-35 -103 -53 -198 -65 -331 -14 -160 -29 -191 -105 -226 -54 -25 -112 -24
-165 4 -83 42 -99 88 -89 246 10 143 35 272 79 402 160 482 497 786 1020 923
74 20 145 19 187 -1z"/>
<path d="M3145 4064 c-163 -35 -274 -76 -368 -135 -222 -141 -365 -328 -444
-584 l-28 -90 -3 -798 -3 -797 3101 0 3100 0 0 765 c0 657 -2 777 -16 842 -47
227 -173 440 -342 576 -123 98 -230 154 -387 201 l-70 21 -2260 1 c-1243 1
-2269 0 -2280 -2z"/>
</g>
</svg>
