<?xml version="1.0" standalone="no"?>
<!DOCTYPE svg PUBLIC "-//W3C//DTD SVG 20010904//EN"
 "http://www.w3.org/TR/2001/REC-SVG-20010904/DTD/svg10.dtd">
<svg version="1.0" xmlns="http://www.w3.org/2000/svg"
 width="1080.000000pt" height="1080.000000pt" viewBox="0 0 1080.000000 1080.000000"
 preserveAspectRatio="xMidYMid meet">

<g transform="translate(0.000000,1080.000000) scale(0.100000,-0.100000)"
fill="#000000" stroke="none">
<path d="M3950 8190 c-25 -5 -209 -9 -410 -9 -278 -1 -381 -5 -434 -16 -227
-48 -423 -244 -471 -471 -22 -104 -22 -3245 0 -3348 42 -200 186 -370 380
-449 l80 -32 843 -3 842 -3 0 -464 0 -465 -557 0 -558 0 -39 -23 c-104 -59
-101 -213 5 -267 38 -20 67 -20 1769 -20 1702 0 1731 0 1769 20 106 54 109
208 5 267 l-39 23 -557 0 -558 0 0 465 0 464 843 3 842 3 80 32 c194 79 338
249 380 449 22 103 22 3244 0 3348 -44 206 -205 385 -415 457 -58 20 -94 24
-345 32 -360 11 -3396 17 -3455 7z m1390 -1360 l0 -680 -1090 0 -1090 0 0 680
0 680 1090 0 1090 0 0 -680z m2300 0 l0 -680 -1090 0 -1090 0 0 680 0 680
1090 0 1090 0 0 -680z m-2300 -1475 l0 -685 -1087 3 -1088 2 -3 683 -2 682
1090 0 1090 0 0 -685z m2298 3 l-3 -683 -1087 -2 -1088 -3 0 685 0 685 1090 0
1090 0 -2 -682z"/>
<path d="M3642 7142 c-9 -6 -12 -27 -10 -63 l3 -54 43 -3 42 -3 0 -264 0 -263
53 -4 c28 -2 58 -2 65 0 10 3 12 75 10 331 l-3 326 -95 3 c-52 1 -101 -2 -108
-6z"/>
<path d="M4126 7128 c-8 -13 -42 -90 -75 -173 -33 -82 -72 -178 -86 -213 -14
-35 -25 -75 -23 -90 l3 -27 142 -3 142 -3 3 -62 3 -62 60 0 60 0 3 177 2 177
-44 6 c-65 10 -86 -5 -86 -60 l0 -45 -60 0 c-33 0 -60 2 -60 5 0 3 12 33 26
67 52 124 114 303 110 315 -4 8 -24 13 -55 13 -41 0 -53 -4 -65 -22z"/>
<path d="M4606 7128 c-8 -13 -42 -90 -75 -173 -33 -82 -72 -178 -86 -213 -14
-35 -25 -75 -23 -90 l3 -27 142 -3 142 -3 3 -62 3 -62 60 0 60 0 3 177 2 177
-44 6 c-65 10 -86 -5 -86 -60 l0 -45 -60 0 c-33 0 -60 2 -60 5 0 3 12 33 26
67 52 124 114 303 110 315 -4 8 -24 13 -55 13 -41 0 -53 -4 -65 -22z"/>
<path d="M6874 7151 c-58 -15 -102 -50 -128 -103 -14 -29 -26 -64 -26 -80 0
-23 6 -29 39 -38 50 -13 88 0 97 34 9 36 37 57 84 63 33 5 45 2 65 -17 52 -49
19 -110 -110 -208 -134 -101 -175 -161 -175 -257 0 -53 6 -55 226 -55 l203 0
7 47 c11 75 6 77 -145 83 -154 6 -153 5 -28 90 87 60 131 105 158 164 43 95 6
216 -81 261 -32 17 -145 26 -186 16z"/>
<path d="M5854 7137 c-3 -8 -4 -36 -2 -63 l3 -49 43 -3 42 -3 0 -264 0 -263
53 -4 c28 -2 58 -2 65 0 10 3 12 75 10 331 l-3 326 -103 3 c-81 2 -103 0 -108
-11z"/>
<path d="M6233 7144 c-10 -4 -13 -48 -13 -169 0 -194 -7 -185 129 -185 79 0
93 -3 116 -23 54 -46 28 -140 -42 -153 -56 -11 -89 12 -113 79 -9 24 -14 27
-57 27 -69 0 -77 -9 -70 -65 9 -63 39 -110 90 -139 56 -33 102 -40 172 -27
119 22 174 89 175 209 0 138 -65 202 -205 202 l-65 0 0 60 0 59 128 3 127 3 3
54 c2 32 -1 57 -8 61 -13 8 -349 11 -367 4z"/>
<path d="M4634 5740 c-59 -14 -100 -47 -125 -103 -22 -49 -24 -64 -24 -237 0
-165 2 -189 20 -224 33 -65 82 -97 158 -103 147 -12 236 69 237 215 0 96 -41
163 -122 197 -44 18 -120 20 -150 4 -20 -11 -21 -10 -14 37 12 92 80 124 137
63 30 -32 79 -46 123 -35 71 18 -13 158 -111 185 -43 12 -83 13 -129 1z m89
-379 c35 -13 53 -71 37 -112 -35 -83 -150 -56 -150 36 0 65 51 99 113 76z"/>
<path d="M3674 5727 c-3 -8 -4 -36 -2 -63 l3 -49 43 -3 42 -3 0 -263 0 -263
52 -5 c29 -3 59 -3 66 -1 10 4 12 75 10 332 l-3 326 -103 3 c-81 2 -103 0
-108 -11z"/>
<path d="M4166 5718 c-31 -50 -187 -453 -184 -477 l3 -26 142 -3 142 -3 3 -62
3 -62 60 0 60 0 3 177 2 177 -36 7 c-20 4 -49 3 -63 -2 -22 -8 -26 -16 -29
-57 l-3 -47 -61 0 c-53 0 -59 2 -53 18 51 122 135 358 131 369 -4 8 -23 13
-55 13 -41 0 -53 -4 -65 -22z"/>
<path d="M6822 5731 c-123 -21 -167 -123 -160 -366 4 -124 7 -146 30 -196 37
-81 78 -104 184 -104 71 0 85 3 122 28 23 15 52 46 64 70 21 38 23 58 26 213
2 106 -1 187 -8 213 -12 46 -59 105 -99 126 -35 18 -106 25 -159 16z m104
-142 c23 -19 34 -80 34 -189 0 -159 -20 -210 -84 -210 -69 0 -85 41 -86 210 0
121 11 173 43 195 23 17 69 14 93 -6z"/>
<path d="M5862 5722 c-9 -6 -12 -27 -10 -63 l3 -54 43 -3 42 -3 0 -263 0 -263
52 -5 c29 -3 59 -3 66 -1 10 4 12 75 10 332 l-3 326 -95 3 c-52 1 -101 -2
-108 -6z"/>
<path d="M6203 5722 l-43 -3 0 -60 0 -59 125 0 c69 0 125 -3 125 -7 0 -5 -20
-58 -44 -120 -100 -254 -147 -384 -141 -393 7 -11 84 -14 109 -4 8 3 32 49 52
102 20 54 72 183 115 289 44 106 79 205 79 222 0 26 -4 30 -37 35 -36 6 -250
4 -340 -2z"/>
</g>
</svg>
