<?xml version="1.0" standalone="no"?>
<!DOCTYPE svg PUBLIC "-//W3C//DTD SVG 20010904//EN"
 "http://www.w3.org/TR/2001/REC-SVG-20010904/DTD/svg10.dtd">
<svg version="1.0" xmlns="http://www.w3.org/2000/svg"
 width="1080.000000pt" height="1080.000000pt" viewBox="0 0 1080.000000 1080.000000"
 preserveAspectRatio="xMidYMid meet">

<g transform="translate(0.000000,1080.000000) scale(0.100000,-0.100000)"
fill="#000000" stroke="none">
<path d="M3807 9359 c-200 -26 -395 -167 -485 -352 -67 -137 -62 170 -62
-3607 0 -3087 2 -3428 16 -3484 57 -221 228 -394 459 -463 56 -17 159 -18
1600 -21 1052 -2 1570 0 1633 8 271 31 490 219 556 476 14 56 16 400 16 3484
0 3084 -2 3428 -16 3484 -65 252 -282 443 -545 475 -103 13 -3071 13 -3172 0z
m2384 -536 c14 -14 23 -38 26 -70 5 -43 2 -52 -25 -81 l-30 -32 -757 0 -757 0
-30 30 c-28 28 -30 35 -26 81 6 55 27 86 70 97 15 4 361 5 768 2 l739 -5 22
-22z m1049 -3353 l0 -2730 -1835 0 -1835 0 0 2730 0 2730 1835 0 1835 0 0
-2730z m-1709 -3030 c107 -40 192 -127 231 -237 28 -82 23 -196 -14 -275 -37
-80 -107 -151 -187 -191 -60 -29 -74 -32 -161 -32 -87 0 -101 3 -161 32 -80
39 -150 111 -187 191 -24 50 -27 69 -27 157 0 89 3 106 28 158 89 180 295 265
478 197z"/>
<path d="M4030 5475 l0 -2095 75 0 75 0 -2 2093 -3 2092 -72 3 -73 3 0 -2096z"/>
<path d="M4290 5475 l0 -2095 25 0 25 0 0 2095 0 2095 -25 0 -25 0 0 -2095z"/>
<path d="M4540 5475 l0 -2095 115 0 115 0 0 2095 0 2095 -115 0 -115 0 0
-2095z"/>
<path d="M4947 7563 c-4 -3 -7 -946 -7 -2095 l0 -2088 155 0 155 0 0 2095 0
2095 -148 0 c-82 0 -152 -3 -155 -7z"/>
<path d="M5360 5475 l0 -2095 30 0 30 0 0 2095 0 2095 -30 0 -30 0 0 -2095z"/>
<path d="M5500 5475 l0 -2095 120 0 120 0 0 2095 0 2095 -120 0 -120 0 0
-2095z"/>
<path d="M5850 5475 l0 -2095 25 0 25 0 0 2095 0 2095 -25 0 -25 0 0 -2095z"/>
<path d="M6020 5475 l0 -2095 70 0 70 0 0 2095 0 2095 -70 0 -70 0 0 -2095z"/>
<path d="M6360 5475 l0 -2095 100 0 100 0 0 2095 0 2095 -100 0 -100 0 0
-2095z"/>
<path d="M6760 5476 l0 -2096 25 0 c16 0 25 6 25 15 0 8 0 950 0 2093 l0 2077
-25 3 -25 3 0 -2095z"/>
</g>
</svg>
