<?xml version="1.0" standalone="no"?>
<!DOCTYPE svg PUBLIC "-//W3C//DTD SVG 20010904//EN"
 "http://www.w3.org/TR/2001/REC-SVG-20010904/DTD/svg10.dtd">
<svg version="1.0" xmlns="http://www.w3.org/2000/svg"
 width="800.000000pt" height="800.000000pt" viewBox="0 0 800.000000 800.000000"
 preserveAspectRatio="xMidYMid meet">

<g transform="translate(0.000000,800.000000) scale(0.100000,-0.100000)"
fill="#000000" stroke="none">
<path d="M2461 6945 c-246 -56 -450 -206 -564 -415 -228 -418 -82 -914 337
-1150 100 -55 275 -100 394 -100 263 0 521 130 678 341 174 233 215 519 113
799 -20 54 -86 173 -118 213 -55 68 -83 95 -155 151 -161 123 -280 165 -486
172 -95 3 -154 -1 -199 -11z"/>
<path d="M4735 6953 c-411 -64 -752 -355 -864 -739 -23 -79 -51 -247 -51 -309
0 -62 28 -230 51 -309 96 -325 357 -592 680 -694 139 -43 228 -55 375 -50 387
15 725 231 899 576 185 367 137 823 -120 1141 -136 167 -343 302 -552 358 -80
21 -124 26 -243 28 -80 2 -158 1 -175 -2z"/>
<path d="M2095 5159 c-452 -48 -863 -371 -1017 -799 -65 -182 -89 -398 -70
-624 13 -145 23 -193 69 -331 33 -100 78 -186 156 -295 57 -81 154 -190 168
-190 4 0 17 19 29 41 117 226 340 455 575 592 235 136 438 194 706 204 l157 6
12 41 c29 95 129 267 229 391 150 187 317 320 542 430 99 48 156 69 279 100
l85 21 -79 77 c-195 190 -451 308 -726 337 -120 12 -997 11 -1115 -1z"/>
<path d="M4275 4704 c-127 -10 -313 -52 -440 -101 -79 -31 -250 -114 -280
-137 -11 -9 -57 -43 -102 -76 -144 -106 -283 -259 -380 -415 -53 -85 -119
-213 -112 -218 2 -2 56 -13 119 -26 242 -49 446 -140 635 -287 401 -309 621
-770 602 -1262 -6 -176 -45 -386 -87 -477 -5 -11 -19 -45 -30 -75 -12 -30 -32
-75 -46 -99 -13 -24 -23 -45 -21 -47 23 -24 1235 -35 1461 -14 291 28 556 131
791 308 79 60 240 221 299 301 245 328 342 694 309 1163 -17 240 -53 377 -153
593 -36 79 -139 240 -196 306 -38 44 -170 176 -210 210 -177 150 -450 278
-707 331 -97 20 -133 22 -752 23 -357 1 -672 1 -700 -1z"/>
<path d="M2610 3644 c-54 -7 -179 -34 -235 -50 -148 -46 -389 -168 -467 -239
-13 -11 -47 -40 -77 -64 -45 -38 -104 -101 -190 -206 -112 -137 -213 -362
-262 -586 -32 -145 -32 -398 -1 -544 95 -453 357 -796 773 -1015 32 -17 166
-67 224 -84 33 -10 73 -22 89 -27 16 -5 95 -16 176 -25 137 -16 157 -16 286 0
222 27 414 91 590 197 49 29 94 57 99 61 6 5 21 17 35 28 14 11 54 46 90 78
57 50 90 84 174 185 16 19 64 90 104 152 6 11 27 52 46 90 206 430 193 907
-35 1321 -173 312 -458 550 -799 664 -141 47 -228 61 -410 65 -96 2 -191 1
-210 -1z m410 -219 c89 -20 204 -57 280 -92 56 -25 165 -88 187 -108 6 -5 26
-21 45 -35 18 -13 67 -58 109 -100 211 -209 324 -447 360 -757 14 -127 4 -255
-33 -403 -136 -544 -626 -930 -1183 -930 -337 0 -656 136 -892 380 -55 57
-163 210 -200 285 -92 184 -133 357 -133 562 0 623 461 1137 1090 1217 70 9
297 -3 370 -19z"/>
<path d="M2590 3305 c-317 -55 -619 -284 -768 -581 -71 -141 -122 -351 -122
-500 0 -90 27 -251 56 -342 107 -328 373 -597 694 -703 116 -38 194 -50 325
-50 293 -1 550 104 756 310 105 106 134 145 202 273 189 359 161 803 -72 1147
-88 130 -242 263 -402 349 -74 40 -227 89 -314 102 -94 13 -263 11 -355 -5z
m332 -603 c115 -56 189 -168 196 -293 6 -108 -39 -211 -122 -276 l-26 -21 31
-98 c68 -223 71 -236 57 -262 -7 -13 -23 -28 -36 -33 -35 -14 -456 -11 -486 2
-35 16 -47 56 -31 105 7 21 19 62 28 89 8 28 24 82 36 120 l21 71 -53 55 c-96
99 -121 239 -66 364 42 95 113 162 203 191 64 21 191 14 248 -14z"/>
</g>
</svg>
