<?xml version="1.0" standalone="no"?>
<!DOCTYPE svg PUBLIC "-//W3C//DTD SVG 20010904//EN"
 "http://www.w3.org/TR/2001/REC-SVG-20010904/DTD/svg10.dtd">
<svg version="1.0" xmlns="http://www.w3.org/2000/svg"
 width="1080.000000pt" height="1080.000000pt" viewBox="0 0 1080.000000 1080.000000"
 preserveAspectRatio="xMidYMid meet">

<g transform="translate(0.000000,1080.000000) scale(0.100000,-0.100000)"
fill="#000000" stroke="none">
<path d="M5240 10100 l0 -460 160 0 160 0 0 460 0 460 -160 0 -160 0 0 -460z"/>
<path d="M4544 9493 c4 -10 55 -127 113 -260 l107 -243 636 0 636 0 107 243
c58 133 109 250 113 260 6 16 -39 17 -856 17 -817 0 -862 -1 -856 -17z"/>
<path d="M2942 9179 c-106 -21 -210 -93 -271 -187 -64 -100 -61 -11 -61 -1707
0 -1360 2 -1548 16 -1600 19 -75 49 -128 105 -183 98 -97 179 -122 398 -122
l151 0 0 1905 0 1905 -147 -1 c-82 -1 -167 -5 -191 -10z"/>
<path d="M3410 7285 l0 -1905 341 0 340 0 13 33 c7 17 35 87 61 155 l47 122
1188 0 1188 0 47 -122 c26 -68 54 -138 61 -155 l13 -33 215 0 216 0 0 1905 0
1905 -438 0 -438 0 -70 -160 -69 -160 -725 0 -725 0 -69 160 -70 160 -563 0
-563 0 0 -1905z"/>
<path d="M7270 7285 l0 -1905 276 0 c298 0 358 8 439 55 51 30 121 99 150 150
57 97 55 24 55 1700 0 980 -4 1556 -10 1583 -36 156 -169 282 -329 312 -29 5
-172 10 -317 10 l-264 0 0 -1905z m520 0 l0 -415 -60 0 -60 0 0 415 0 415 60
0 60 0 0 -415z"/>
<path d="M4199 5304 c-56 -146 -108 -268 -114 -270 -5 -2 -189 -5 -407 -6
l-397 -3 -36 -35 c-20 -19 -46 -53 -57 -74 -20 -40 -778 -1804 -778 -1812 0
-2 1346 -4 2990 -4 1645 0 2990 2 2990 4 0 8 -758 1772 -778 1812 -11 21 -37
55 -57 74 l-36 35 -397 3 c-218 1 -402 4 -407 6 -6 2 -58 124 -114 270 l-104
266 -1097 0 -1097 0 -104 -266z"/>
<path d="M2312 2088 c3 -436 4 -455 24 -498 30 -64 95 -125 160 -150 55 -20
59 -20 2904 -20 2833 0 2850 0 2903 20 66 25 131 85 160 148 21 46 22 59 25
500 l3 452 -3091 0 -3091 0 3 -452z"/>
</g>
</svg>
