<?xml version="1.0" standalone="no"?>
<!DOCTYPE svg PUBLIC "-//W3C//DTD SVG 20010904//EN"
 "http://www.w3.org/TR/2001/REC-SVG-20010904/DTD/svg10.dtd">
<svg version="1.0" xmlns="http://www.w3.org/2000/svg"
 width="1080.000000pt" height="1080.000000pt" viewBox="0 0 1080.000000 1080.000000"
 preserveAspectRatio="xMidYMid meet">

<g transform="translate(0.000000,1080.000000) scale(0.100000,-0.100000)"
fill="#000000" stroke="none">
<path d="M6491 10452 c-19 -9 -44 -30 -55 -45 -23 -32 -23 -35 -7 -1877 4
-393 5 -721 3 -727 -2 -7 -9 -13 -16 -13 -6 0 -27 -13 -47 -29 l-36 -30 0 73
c0 60 -5 84 -30 137 -16 35 -39 75 -51 89 -21 25 -21 25 -36 5 -9 -11 -33 -53
-53 -93 -41 -83 -47 -154 -20 -229 9 -24 14 -43 11 -43 -2 0 -26 11 -52 24
-87 44 -159 60 -267 59 -55 0 -112 -5 -127 -11 -16 -6 -28 -8 -28 -4 -1 57
-53 442 -66 478 -87 260 -319 435 -579 436 -118 1 -192 -15 -294 -64 -151 -72
-276 -222 -327 -393 -14 -44 -18 -91 -18 -175 l1 -115 -111 3 c-160 5 -163 6
-211 86 -62 107 -64 107 -186 42 -288 -151 -404 -221 -407 -244 -2 -13 16 -56
44 -105 26 -45 47 -89 47 -97 -1 -8 -27 -103 -57 -210 -31 -107 -56 -205 -56
-217 0 -13 50 -101 111 -196 133 -205 138 -223 85 -293 -53 -69 -93 -157 -118
-256 l-21 -87 21 -2223 c20 -2177 21 -2225 41 -2301 57 -215 213 -395 414
-479 40 -17 73 -31 74 -32 1 -1 9 -55 18 -121 8 -66 18 -130 20 -143 l5 -22
188 2 187 3 7 75 c4 41 10 98 13 127 l6 52 537 5 c295 3 592 8 659 11 l123 6
-34 67 c-94 187 -107 394 -37 592 38 108 83 181 170 272 166 176 371 257 620
245 121 -5 208 -26 305 -73 27 -13 51 -22 53 -20 2 2 -1 473 -6 1047 -6 574
-13 1431 -17 1904 -3 473 -9 913 -14 977 -7 88 -16 139 -39 207 l-31 89 -10
908 c-5 500 -10 1060 -10 1245 l0 336 39 12 c22 6 53 27 71 47 l32 37 -4 591
c-3 657 -1 631 -71 675 -31 19 -50 21 -178 21 -117 0 -150 -3 -178 -18z
m-1289 -1931 c164 -63 288 -206 326 -376 7 -27 36 -282 67 -565 30 -283 57
-534 59 -557 3 -24 4 -43 1 -43 -3 0 -29 16 -60 35 l-54 35 -33 -35 -33 -35
-430 -3 -430 -2 -57 505 c-62 541 -65 609 -29 712 57 166 194 296 362 343 78
22 236 14 311 -14z m-1205 -596 c9 -19 15 -37 12 -39 -5 -5 -350 -206 -354
-206 -1 0 -14 18 -28 39 l-26 40 177 99 c97 55 183 100 190 101 7 0 20 -15 29
-34z m316 -121 c85 -5 107 -9 107 -21 0 -8 11 -118 25 -245 14 -127 24 -235
23 -240 -2 -6 -75 67 -162 160 l-157 170 -107 6 c-59 4 -133 10 -166 14 l-58
7 143 81 c133 75 146 80 193 77 28 -1 99 -5 159 -9z m1668 -170 c223 -66 379
-264 379 -483 0 -65 -1 -68 -46 -119 -26 -29 -52 -52 -58 -50 -6 2 -64 34
-127 72 -115 69 -116 70 -105 97 28 75 -75 123 -119 55 -24 -36 -10 -75 32
-92 l34 -15 -19 -24 c-70 -89 -79 -95 -135 -95 l-53 0 -33 314 c-19 173 -31
321 -28 329 7 20 32 24 138 26 53 0 106 -5 140 -15z m458 -186 c0 -123 0 -123
-16 -83 -9 22 -37 72 -63 111 l-47 72 51 10 c28 5 57 10 64 11 9 1 12 -29 11
-121z m-2436 85 l97 -6 190 -203 c105 -112 194 -214 199 -227 5 -13 11 -46 12
-73 l3 -49 -74 -2 -75 -1 -124 149 c-68 82 -127 149 -132 149 -5 0 -88 -52
-184 -116 l-174 -117 21 -31 c12 -17 40 -55 61 -85 l39 -53 -28 -24 c-16 -13
-32 -23 -35 -24 -11 0 -229 338 -229 355 0 9 23 97 52 197 l52 181 115 -7 c64
-3 160 -9 214 -13z"/>
<path d="M4818 7890 c-71 -12 -144 -39 -172 -61 -40 -32 -30 -89 16 -89 10 0
53 12 95 26 68 23 94 27 203 26 180 0 308 -37 394 -112 18 -17 42 -30 53 -30
23 0 53 30 53 53 0 47 -148 138 -280 172 -75 19 -292 28 -362 15z"/>
<path d="M4900 7463 c-82 -8 -177 -35 -205 -57 -26 -21 -29 -27 -19 -52 8 -25
15 -29 44 -28 19 0 64 9 100 19 52 14 88 16 180 12 177 -8 321 -56 400 -133
53 -50 100 -42 100 17 0 57 -137 149 -282 189 -63 17 -243 42 -273 38 -5 -1
-26 -3 -45 -5z"/>
<path d="M5890 7483 c-23 -29 -21 -66 5 -92 22 -23 75 -18 97 8 23 30 23 52
-3 85 -28 35 -70 35 -99 -1z"/>
<path d="M6130 7330 c-40 -40 -9 -110 49 -110 62 0 89 88 37 122 -21 14 -66 8
-86 -12z"/>
<path d="M6402 2340 c-188 -34 -376 -163 -470 -322 -114 -192 -121 -423 -21
-628 60 -122 179 -241 300 -299 197 -95 415 -95 604 -2 341 169 473 571 298
904 -57 108 -174 222 -283 275 -47 23 -112 49 -145 57 -77 20 -215 27 -283 15z"/>
</g>
</svg>
