<?xml version="1.0" standalone="no"?>
<!DOCTYPE svg PUBLIC "-//W3C//DTD SVG 20010904//EN"
 "http://www.w3.org/TR/2001/REC-SVG-20010904/DTD/svg10.dtd">
<svg version="1.0" xmlns="http://www.w3.org/2000/svg"
 width="1080.000000pt" height="1080.000000pt" viewBox="0 0 1080.000000 1080.000000"
 preserveAspectRatio="xMidYMid meet">

<g transform="translate(0.000000,1080.000000) scale(0.100000,-0.100000)"
fill="#000000" stroke="none">
<path d="M5510 8781 c-152 -49 -263 -180 -290 -343 -14 -87 -14 -5989 0 -6076
15 -89 51 -164 111 -227 60 -64 113 -97 190 -119 50 -15 205 -16 1604 -14
l1550 3 68 32 c119 56 210 172 237 300 7 32 9 1045 8 3093 l-3 3045 -37 77
c-47 98 -115 168 -206 211 l-67 32 -1555 2 c-1465 2 -1558 1 -1610 -16z m2111
-417 c37 -19 63 -74 54 -115 -4 -16 -20 -40 -37 -54 l-30 -25 -510 0 -510 0
-29 29 c-49 49 -36 135 25 165 47 24 992 24 1037 0z m478 -15 c42 -42 43 -95
2 -141 -25 -28 -36 -33 -76 -33 -40 0 -51 5 -76 33 -63 70 -17 171 78 172 33
0 48 -6 72 -31z m461 -2949 l0 -2340 -1460 0 -1460 0 0 2340 0 2340 1460 0
1460 0 0 -2340z m-1325 -2584 c66 -31 117 -81 152 -147 24 -47 28 -65 28 -139
0 -74 -4 -92 -29 -143 -34 -67 -89 -120 -155 -151 -35 -16 -65 -21 -131 -21
-73 0 -92 4 -137 27 -115 61 -177 162 -176 288 0 88 23 147 78 209 96 106 243
137 370 77z"/>
<path d="M4220 8013 c-41 -7 -81 -16 -89 -19 -8 -2 31 -36 95 -80 60 -42 110
-77 111 -78 2 -2 -46 -19 -105 -38 -184 -61 -384 -160 -537 -266 -242 -167
-467 -403 -617 -644 -115 -185 -248 -503 -248 -591 0 -40 36 -77 76 -77 44 0
70 39 115 175 164 489 540 916 1010 1147 125 62 324 135 313 115 -4 -6 -36
-54 -71 -104 -36 -51 -61 -93 -56 -93 20 1 215 38 219 43 12 12 213 303 214
309 0 3 -46 38 -102 76 -57 39 -125 86 -153 106 -55 39 -64 40 -175 19z"/>
<path d="M2137 5759 c-150 -35 -284 -176 -317 -333 -7 -35 -9 -540 -8 -1576
l3 -1525 37 -77 c47 -98 115 -168 206 -211 l67 -32 1528 -3 1529 -2 -34 40
c-65 75 -128 233 -128 320 0 19 -4 41 -8 47 -6 10 -236 13 -1073 15 l-1064 3
-3 1440 c-1 792 0 1450 3 1463 l5 22 1065 -2 1065 -3 0 213 0 212 -1417 -1
c-783 -1 -1435 -5 -1456 -10z m274 -878 c47 -48 37 -130 -21 -164 -35 -21 -62
-21 -100 -2 -72 37 -79 136 -12 178 44 27 99 22 133 -12z m-13 -441 c18 -11
37 -32 42 -46 6 -15 10 -223 10 -521 l0 -495 -34 -34 c-46 -46 -99 -47 -145
-5 l-31 29 0 512 0 512 34 34 c40 40 75 44 124 14z"/>
</g>
</svg>
