<?xml version="1.0" standalone="no"?>
<!DOCTYPE svg PUBLIC "-//W3C//DTD SVG 20010904//EN"
 "http://www.w3.org/TR/2001/REC-SVG-20010904/DTD/svg10.dtd">
<svg version="1.0" xmlns="http://www.w3.org/2000/svg"
 width="659.000000pt" height="650.000000pt" viewBox="0 0 659.000000 650.000000"
 preserveAspectRatio="xMidYMid meet">

<g transform="translate(0.000000,650.000000) scale(0.100000,-0.100000)"
fill="#000000" stroke="none">
<path d="M2240 6374 c-168 -20 -218 -28 -305 -46 -248 -50 -557 -181 -776
-327 -820 -548 -1188 -1576 -902 -2521 176 -584 599 -1084 1148 -1358 318
-158 640 -234 995 -234 330 -1 622 59 912 187 98 43 98 43 109 22 6 -12 412
-424 903 -915 901 -903 953 -951 1071 -1000 108 -45 166 -56 290 -56 141 0
212 16 330 75 231 113 383 343 402 606 11 152 -33 322 -116 448 -41 62 -1772
1800 -1843 1851 l-36 26 28 64 c78 172 135 355 171 544 26 143 37 472 20 630
-111 1020 -897 1836 -1912 1985 -102 15 -419 27 -489 19z m462 -713 c641 -130
1128 -626 1239 -1261 23 -133 27 -348 9 -479 -48 -352 -209 -664 -471 -916
-533 -513 -1362 -575 -1969 -147 -115 81 -294 258 -373 369 -121 170 -214 386
-259 601 -20 91 -23 137 -23 307 1 168 4 216 23 302 69 319 203 565 431 794
260 260 561 404 941 453 81 10 357 -4 452 -23z"/>
</g>
</svg>
