<?xml version="1.0" standalone="no"?>
<!DOCTYPE svg PUBLIC "-//W3C//DTD SVG 20010904//EN"
 "http://www.w3.org/TR/2001/REC-SVG-20010904/DTD/svg10.dtd">
<svg version="1.0" xmlns="http://www.w3.org/2000/svg"
 width="851.000000pt" height="638.000000pt" viewBox="0 0 851.000000 638.000000"
 preserveAspectRatio="xMidYMid meet">

<g transform="translate(0.000000,638.000000) scale(0.100000,-0.100000)"
fill="#000000" stroke="none">
<path d="M540 6329 c-170 -25 -328 -137 -410 -290 -66 -123 -63 -102 -67 -691
-3 -369 -1 -549 7 -578 12 -45 59 -104 101 -126 33 -17 116 -19 156 -3 40 15
82 57 104 104 17 37 19 75 19 553 0 547 -1 539 49 596 45 51 37 51 612 56
l535 5 36 24 c54 38 81 84 86 149 6 98 -50 175 -147 202 -43 12 -999 12 -1081
-1z"/>
<path d="M6873 6331 c-155 -39 -193 -256 -61 -347 l41 -29 536 -5 c575 -5 566
-4 613 -57 47 -52 48 -62 48 -600 0 -473 2 -511 19 -548 22 -47 64 -89 104
-104 40 -16 123 -14 156 3 42 22 89 81 101 126 8 29 10 209 7 578 -3 467 -5
543 -20 585 -64 185 -203 323 -387 383 -50 16 -106 18 -590 20 -294 2 -550 -1
-567 -5z"/>
<path d="M1232 5229 c-25 -12 -55 -39 -70 -62 l-27 -41 -5 -875 -5 -876 -465
-5 c-522 -6 -503 -3 -560 -81 -69 -95 -40 -221 63 -280 l42 -24 4045 0 4045 0
42 24 c135 78 132 270 -6 341 -39 19 -58 20 -496 20 l-455 0 0 848 c0 581 -4
860 -11 887 -30 110 -151 174 -256 134 -42 -15 -102 -79 -113 -119 -6 -22 -10
-362 -10 -892 l0 -858 -230 0 -230 0 0 853 c0 555 -4 865 -10 889 -39 140
-227 184 -327 76 -55 -58 -53 -27 -53 -958 l0 -860 -245 0 -245 0 0 853 c0
555 -4 865 -10 889 -39 140 -227 184 -327 76 -55 -58 -53 -27 -53 -958 l0
-860 -290 0 -290 0 0 853 c0 564 -4 865 -11 890 -34 122 -199 178 -297 100
-20 -16 -47 -49 -59 -73 l-23 -44 0 -863 0 -863 -225 2 -225 3 -2 865 -3 865
-23 42 c-12 24 -41 55 -64 70 -35 24 -52 28 -108 28 -57 0 -73 -4 -108 -29
-23 -16 -50 -46 -62 -70 -20 -42 -20 -58 -20 -909 l0 -867 -175 0 -175 0 0
278 0 278 -26 52 c-52 104 -171 138 -269 77 -87 -54 -90 -65 -93 -397 l-3
-288 -174 0 -175 0 0 865 c0 950 3 901 -61 962 -41 39 -77 53 -132 53 -88 -1
-162 -59 -186 -145 -7 -27 -11 -306 -11 -887 l0 -848 -230 0 -230 0 0 867 c0
863 0 867 -21 911 -44 90 -164 128 -257 81z"/>
<path d="M2825 5233 c-46 -24 -76 -54 -96 -98 -17 -36 -19 -69 -19 -315 0
-266 1 -277 23 -320 12 -24 39 -57 60 -74 99 -78 262 -23 297 102 13 49 13
535 0 584 -30 107 -171 171 -265 121z"/>
<path d="M1130 2060 c0 -764 0 -782 20 -820 68 -134 280 -131 341 4 18 39 19
83 19 819 l0 777 -190 0 -190 0 0 -780z"/>
<path d="M1970 2663 c0 -100 5 -196 11 -218 15 -54 82 -120 138 -135 86 -23
185 24 222 104 16 35 19 67 19 234 l0 192 -195 0 -195 0 0 -177z"/>
<path d="M2710 2067 l0 -773 23 -44 c58 -114 202 -147 294 -67 77 67 73 19 73
885 l0 772 -195 0 -195 0 0 -773z"/>
<path d="M3450 2645 c0 -224 7 -251 81 -304 73 -54 166 -49 235 11 65 57 68
71 72 291 l4 197 -196 0 -196 0 0 -195z"/>
<path d="M4290 2068 c0 -731 1 -775 19 -813 10 -22 31 -52 47 -67 101 -94 277
-43 314 90 6 24 10 306 10 800 l0 762 -195 0 -195 0 0 -772z"/>
<path d="M5260 2658 c0 -101 5 -200 11 -221 24 -88 137 -152 224 -128 62 17
111 58 134 111 19 44 21 68 21 234 l0 186 -195 0 -195 0 0 -182z"/>
<path d="M6140 2658 c0 -101 5 -200 11 -221 6 -21 27 -55 48 -76 90 -90 238
-69 303 44 22 37 23 53 26 238 l4 197 -196 0 -196 0 0 -182z"/>
<path d="M6990 2066 c0 -522 3 -784 11 -803 5 -15 25 -43 42 -62 105 -111 285
-64 326 84 7 27 11 281 11 798 l0 757 -195 0 -195 0 0 -774z"/>
<path d="M2084 1981 c-49 -22 -88 -70 -103 -126 -6 -24 -11 -139 -11 -285 0
-146 5 -261 11 -285 45 -163 254 -197 350 -57 l24 36 0 306 0 306 -24 36 c-56
81 -160 110 -247 69z"/>
<path d="M3565 1986 c-40 -17 -84 -63 -101 -103 -11 -25 -14 -99 -14 -315 0
-263 1 -284 20 -324 60 -122 242 -140 323 -32 41 55 47 98 47 358 0 254 -5
294 -43 351 -44 67 -157 98 -232 65z"/>
<path d="M5375 1983 c-46 -24 -76 -54 -96 -98 -17 -36 -19 -69 -19 -315 0
-266 1 -277 23 -320 12 -24 39 -57 60 -74 99 -78 262 -23 297 102 5 21 10 147
10 292 0 145 -5 271 -10 292 -30 107 -171 171 -265 121z"/>
<path d="M6255 1983 c-46 -24 -76 -54 -96 -98 -17 -36 -19 -69 -19 -315 0
-266 1 -277 23 -320 12 -24 39 -57 60 -74 99 -78 262 -23 297 102 5 21 10 147
10 292 0 145 -5 271 -10 292 -30 107 -171 171 -265 121z"/>
<path d="M175 1756 c-42 -18 -92 -78 -105 -126 -8 -29 -10 -209 -7 -578 3
-467 5 -543 20 -585 64 -185 203 -323 387 -383 49 -16 108 -18 582 -22 351 -2
539 0 566 7 99 27 156 104 150 203 -5 65 -31 111 -87 149 l-36 24 -535 5
c-574 5 -566 5 -611 56 -50 57 -49 49 -49 596 0 478 -2 516 -19 553 -22 47
-64 89 -104 104 -38 15 -115 13 -152 -3z"/>
<path d="M8165 1756 c-39 -18 -80 -62 -99 -108 -14 -32 -16 -109 -16 -548 0
-545 1 -537 -49 -594 -45 -51 -37 -51 -611 -56 l-535 -5 -36 -24 c-58 -39 -83
-84 -87 -155 -4 -75 22 -125 86 -171 l44 -30 551 0 c507 0 557 1 612 18 185
57 327 196 392 384 15 42 17 118 20 585 3 369 1 549 -7 578 -13 49 -63 108
-107 126 -41 18 -119 17 -158 0z"/>
</g>
</svg>
