<?xml version="1.0" standalone="no"?>
<!DOCTYPE svg PUBLIC "-//W3C//DTD SVG 20010904//EN"
 "http://www.w3.org/TR/2001/REC-SVG-20010904/DTD/svg10.dtd">
<svg version="1.0" xmlns="http://www.w3.org/2000/svg"
 width="572.000000pt" height="208.000000pt" viewBox="0 0 572.000000 208.000000"
 preserveAspectRatio="xMidYMid meet">

<g transform="translate(0.000000,208.000000) scale(0.100000,-0.100000)"
fill="#000000" stroke="none">
<path d="M539 1988 c-2 -22 1 -58 16 -223 9 -88 24 -261 35 -385 11 -124 24
-272 30 -330 5 -58 14 -154 20 -215 5 -60 16 -182 25 -270 8 -88 15 -163 15
-167 0 -5 974 -8 2165 -8 1724 0 2166 3 2170 12 4 13 33 323 61 653 8 94 30
340 50 548 19 207 32 382 29 387 -8 13 -78 10 -87 -4 -4 -6 -8 -33 -8 -61 0
-27 -4 -88 -9 -135 -6 -47 -15 -139 -20 -205 -6 -66 -18 -194 -27 -285 -20
-212 -28 -299 -54 -610 -12 -140 -25 -258 -29 -263 -7 -7 -4140 -11 -4147 -4
-4 4 -34 323 -104 1107 -11 118 -24 269 -30 334 -6 66 -13 123 -16 128 -8 13
-84 9 -85 -4z"/>
<path d="M90 405 c0 -11 7 -15 23 -13 12 2 22 8 22 13 0 6 -10 11 -22 13 -16
2 -23 -2 -23 -13z"/>
<path d="M5567 414 c-11 -11 3 -24 24 -24 12 0 19 5 17 13 -5 14 -31 21 -41
11z"/>
</g>
</svg>
