<?xml version="1.0" standalone="no"?>
<!DOCTYPE svg PUBLIC "-//W3C//DTD SVG 20010904//EN"
 "http://www.w3.org/TR/2001/REC-SVG-20010904/DTD/svg10.dtd">
<svg version="1.0" xmlns="http://www.w3.org/2000/svg"
 width="1080.000000pt" height="1080.000000pt" viewBox="0 0 1080.000000 1080.000000"
 preserveAspectRatio="xMidYMid meet">

<g transform="translate(0.000000,1080.000000) scale(0.100000,-0.100000)"
fill="#000000" stroke="none">
<path d="M1182 9235 c-13 -13 -44 -32 -68 -42 l-44 -18 0 -79 0 -78 27 7 c22
5 72 26 106 43 4 2 7 -35 7 -82 l0 -86 -65 0 -65 0 0 -75 0 -75 210 0 210 0 0
75 0 74 -57 3 -56 3 1 178 0 177 -91 -1 c-82 -1 -94 -4 -115 -24z"/>
<path d="M3821 9249 c-324 -64 -600 -341 -654 -656 -6 -35 -14 -63 -18 -63 -4
0 -245 86 -536 191 -834 301 -770 280 -787 263 -8 -8 -13 -21 -10 -28 6 -16
13 -18 419 -165 154 -55 422 -152 595 -214 l315 -114 3 -2109 2 -2110 -77 -26
c-43 -14 -301 -103 -573 -198 -272 -95 -524 -182 -560 -194 -56 -20 -65 -26
-65 -47 0 -14 7 -25 16 -27 9 -1 294 94 635 212 l619 214 5 -976 c5 -894 7
-982 23 -1036 89 -300 289 -507 577 -598 l75 -23 1575 0 1575 0 75 23 c288 91
487 296 577 598 17 55 18 181 23 2075 l5 2016 215 -77 c118 -42 417 -150 664
-239 247 -89 456 -160 465 -159 9 2 16 13 16 27 0 26 58 4 -1102 422 l-263 94
0 1092 c0 1193 1 1163 -59 1319 -90 232 -281 409 -536 495 l-70 24 -1560 1
c-861 1 -1580 -2 -1604 -7z m3264 -1138 c51 -23 101 -79 114 -128 15 -53 15
-5113 0 -5166 -13 -49 -63 -105 -114 -128 -38 -18 -115 -19 -1685 -19 -1570 0
-1647 1 -1685 19 -51 23 -101 79 -114 128 -15 53 -15 5113 0 5166 13 49 63
105 114 128 38 18 115 19 1685 19 1570 0 1647 -1 1685 -19z m-1294 -5801 c147
-28 220 -174 154 -307 -16 -32 -41 -61 -67 -79 l-41 -29 -471 -2 -471 -3 -39
23 c-86 49 -131 147 -108 235 22 82 90 147 171 163 58 11 812 10 872 -1z"/>
<path d="M4253 7850 c-128 -55 -237 -100 -242 -100 -6 0 -12 -4 -16 -9 -8 -14
51 -156 67 -159 7 -1 47 11 87 28 41 16 76 29 78 27 1 -2 -18 -19 -45 -38
-121 -87 -212 -224 -247 -374 -19 -76 -18 -223 0 -300 37 -155 157 -321 291
-401 126 -74 202 -95 347 -95 293 1 536 187 623 477 28 91 26 258 -4 354 -25
79 -93 198 -136 239 l-25 24 -59 -64 -59 -63 28 -36 c72 -90 110 -240 91 -358
-17 -99 -70 -199 -143 -266 -99 -92 -190 -128 -324 -128 -218 0 -405 151 -455
364 -58 251 111 509 368 561 35 7 63 16 62 20 0 4 0 44 0 88 l0 82 -47 -6
c-27 -4 -58 -9 -70 -13 -13 -3 -23 -2 -23 3 0 5 36 24 80 42 44 19 80 38 80
45 0 15 -62 156 -69 156 -3 0 -111 -45 -238 -100z"/>
<path d="M4869 7802 c-20 -37 -100 -182 -178 -322 -168 -300 -211 -383 -211
-409 0 -11 12 -33 26 -50 31 -37 87 -43 121 -12 19 18 68 160 173 501 23 74
57 184 76 244 19 60 34 110 32 111 -2 2 -19 -27 -39 -63z"/>
<path d="M6868 7080 c-24 -16 -62 -48 -84 -71 -21 -22 -48 -50 -60 -62 -45
-48 -123 -154 -117 -161 3 -3 2 -6 -4 -6 -17 0 -166 -227 -158 -241 5 -7 4
-10 -2 -6 -6 4 -23 -9 -37 -28 -15 -19 -24 -35 -20 -35 4 0 1 -6 -8 -12 -9 -7
-25 -27 -35 -45 -10 -18 -46 -73 -81 -123 -35 -50 -60 -95 -56 -102 4 -6 3 -9
-2 -5 -13 8 -147 -210 -138 -225 4 -6 3 -8 -3 -5 -12 8 -77 -99 -68 -113 3 -6
1 -9 -5 -8 -6 2 -23 -18 -38 -44 -15 -26 -44 -74 -65 -108 -20 -34 -34 -66
-31 -72 4 -6 2 -8 -3 -5 -7 4 -19 -12 -30 -38 -10 -25 -20 -45 -23 -45 -3 0
-20 45 -39 99 -19 55 -37 98 -40 96 -3 -2 -7 7 -7 18 -2 25 -64 161 -98 215
-13 20 -24 42 -25 47 -1 6 -13 24 -27 42 -13 17 -24 37 -24 43 0 6 -5 8 -12 4
-6 -4 -8 -3 -4 4 8 14 -88 164 -99 154 -5 -4 -5 -2 -2 4 8 15 -61 106 -74 98
-5 -3 -8 0 -7 6 2 6 -14 25 -34 42 -31 26 -40 29 -53 18 -8 -7 -15 -19 -15
-26 0 -24 39 -127 51 -134 6 -4 10 -10 10 -14 -3 -20 0 -26 11 -20 7 4 8 3 4
-4 -7 -12 37 -104 60 -123 7 -6 12 -15 9 -19 -5 -8 51 -129 64 -140 3 -3 7 -9
8 -15 1 -5 23 -63 48 -128 25 -65 57 -162 71 -215 14 -53 28 -104 31 -112 3
-8 7 -19 7 -25 6 -47 19 -95 26 -95 4 0 6 -8 3 -18 -7 -28 31 -54 87 -60 71
-7 117 15 111 51 -1 5 3 6 9 2 6 -3 7 -11 4 -17 -4 -6 3 -5 15 2 12 6 25 18
28 26 3 7 9 12 13 9 9 -6 106 102 103 114 -1 3 -5 15 -9 26 -7 20 -6 20 8 1
15 -19 16 -19 28 5 7 13 57 98 111 189 53 91 98 168 98 172 1 4 13 20 26 34
14 15 25 30 25 34 0 4 32 55 70 114 39 59 68 112 64 118 -4 6 -3 8 3 5 14 -9
66 70 57 85 -4 7 -3 8 4 4 14 -8 36 30 26 46 -4 6 -3 8 3 5 13 -8 56 50 47 65
-4 7 -3 8 4 4 6 -4 18 6 27 23 8 17 36 60 61 95 26 37 42 71 38 77 -4 7 -3 9
3 6 11 -7 80 93 171 248 37 64 75 155 64 155 -4 0 -1 4 6 8 18 12 28 108 12
127 -18 22 -41 19 -92 -15z m37 -166 c-9 -16 -13 -20 -9 -9 4 11 7 28 8 37 0
10 4 14 9 9 5 -5 2 -21 -8 -37z m-7 -59 c-3 -3 -9 2 -12 12 -6 14 -5 15 5 6 7
-7 10 -15 7 -18z m-85 -70 c-3 -9 -8 -14 -10 -11 -3 3 -2 9 2 15 9 16 15 13 8
-4z m-240 -400 c-3 -9 -8 -14 -10 -11 -3 3 -2 9 2 15 9 16 15 13 8 -4z m-75
-90 c-3 -3 -9 2 -12 12 -6 14 -5 15 5 6 7 -7 10 -15 7 -18z m-218 -15 c-6 -11
-13 -20 -16 -20 -2 0 0 9 6 20 6 11 13 20 16 20 2 0 0 -9 -6 -20z m24 -26 c3
-8 2 -12 -4 -9 -6 3 -10 10 -10 16 0 14 7 11 14 -7z m113 -96 c-3 -8 -6 -5 -6
6 -1 11 2 17 5 13 3 -3 4 -12 1 -19z"/>
<path d="M3790 3946 c0 -890 0 -896 20 -896 20 0 20 5 18 892 -3 841 -4 893
-20 896 -17 3 -18 -45 -18 -892z"/>
<path d="M3860 3945 c0 -888 0 -895 20 -895 20 0 20 7 20 895 0 888 0 895 -20
895 -20 0 -20 -7 -20 -895z"/>
<path d="M3935 4828 c-3 -7 -4 -366 -3 -798 3 -738 4 -785 21 -788 16 -3 17
40 17 797 0 713 -2 801 -15 801 -9 0 -18 -6 -20 -12z"/>
<path d="M4008 4040 l-3 -800 73 0 72 0 0 800 0 800 -70 0 -70 0 -2 -800z"/>
<path d="M4185 4828 c-3 -7 -4 -366 -3 -798 3 -738 4 -785 21 -788 16 -3 17
40 17 797 0 713 -2 801 -15 801 -9 0 -18 -6 -20 -12z"/>
<path d="M4290 4040 l0 -800 35 0 35 0 0 800 0 800 -35 0 -35 0 0 -800z"/>
<path d="M4470 4040 l0 -800 35 0 35 0 0 800 0 800 -35 0 -35 0 0 -800z"/>
<path d="M4580 4040 c0 -704 2 -800 15 -800 13 0 15 96 15 800 0 704 -2 800
-15 800 -13 0 -15 -96 -15 -800z"/>
<path d="M4650 4040 l0 -800 35 0 35 0 0 800 0 800 -35 0 -35 0 0 -800z"/>
<path d="M4790 4040 c0 -793 0 -800 20 -800 20 0 20 7 20 800 0 793 0 800 -20
800 -20 0 -20 -7 -20 -800z"/>
<path d="M4936 4825 c-9 -25 -7 -1558 3 -1573 5 -8 21 -12 37 -10 l29 3 0 795
0 795 -31 3 c-22 2 -33 -2 -38 -13z"/>
<path d="M5040 4040 c0 -793 0 -800 20 -800 20 0 20 7 20 800 0 793 0 800 -20
800 -20 0 -20 -7 -20 -800z"/>
<path d="M5190 4040 c0 -704 2 -800 15 -800 13 0 15 96 15 800 0 704 -2 800
-15 800 -13 0 -15 -96 -15 -800z"/>
<path d="M5260 4040 l0 -800 35 0 35 0 0 800 0 800 -35 0 -35 0 0 -800z"/>
<path d="M5367 4833 c-4 -3 -7 -406 -7 -895 0 -881 0 -888 20 -888 20 0 20 7
20 895 0 739 -2 895 -13 895 -8 0 -17 -3 -20 -7z"/>
<path d="M5440 3945 c0 -789 2 -895 15 -895 13 0 15 106 15 895 0 789 -2 895
-15 895 -13 0 -15 -106 -15 -895z"/>
<path d="M5510 4040 l0 -800 70 0 70 0 0 800 0 800 -70 0 -70 0 0 -800z"/>
<path d="M5690 4040 c0 -704 2 -800 15 -800 13 0 15 96 15 800 0 704 -2 800
-15 800 -13 0 -15 -96 -15 -800z"/>
<path d="M5830 4040 l0 -800 35 0 35 0 0 800 0 800 -35 0 -35 0 0 -800z"/>
<path d="M5940 4040 l0 -800 50 0 50 0 0 800 0 800 -50 0 -50 0 0 -800z"/>
<path d="M6120 4040 c0 -704 2 -800 15 -800 13 0 15 96 15 800 0 704 -2 800
-15 800 -13 0 -15 -96 -15 -800z"/>
<path d="M6220 4040 l0 -800 35 0 35 0 0 800 0 800 -35 0 -35 0 0 -800z"/>
<path d="M6330 4040 l0 -800 35 0 35 0 0 800 0 800 -35 0 -35 0 0 -800z"/>
<path d="M6440 4040 c0 -704 2 -800 15 -800 13 0 15 96 15 800 0 704 -2 800
-15 800 -13 0 -15 -96 -15 -800z"/>
<path d="M6510 4041 l0 -801 55 0 55 0 -2 798 -3 797 -52 3 -53 3 0 -800z"/>
<path d="M6650 4040 c0 -793 0 -800 20 -800 20 0 20 7 20 800 0 793 0 800 -20
800 -20 0 -20 -7 -20 -800z"/>
<path d="M6760 4040 c0 -704 2 -800 15 -800 13 0 15 96 15 800 0 704 -2 800
-15 800 -13 0 -15 -96 -15 -800z"/>
<path d="M6900 3945 c0 -888 0 -895 20 -895 20 0 20 7 20 895 0 888 0 895 -20
895 -20 0 -20 -7 -20 -895z"/>
<path d="M6977 4833 c-4 -3 -7 -406 -7 -895 0 -881 0 -888 20 -888 20 0 20 7
20 895 0 739 -2 895 -13 895 -8 0 -17 -3 -20 -7z"/>
<path d="M444 8036 c-36 -36 -42 -67 -23 -110 10 -22 41 -40 112 -66 15 -5 27
-14 27 -20 0 -15 -55 -12 -94 4 -33 14 -33 14 -50 -22 -9 -19 -13 -38 -9 -42
31 -28 151 -39 197 -19 14 7 32 27 41 46 15 31 15 40 3 72 -12 31 -23 40 -78
62 -75 30 -93 54 -34 46 22 -2 48 -8 59 -11 17 -6 24 0 37 28 l17 34 -40 16
c-22 9 -60 16 -85 16 -39 0 -51 -5 -80 -34z"/>
<path d="M700 8025 c0 -24 -5 -35 -15 -35 -10 0 -15 -11 -15 -35 0 -24 5 -35
15 -35 12 0 15 -14 15 -69 0 -90 13 -105 87 -99 29 3 55 7 58 9 9 10 -12 64
-26 64 -28 1 -39 17 -39 56 0 35 3 39 25 39 22 0 25 4 25 35 0 31 -3 35 -25
35 -22 0 -25 4 -25 35 0 34 -1 35 -40 35 -39 0 -40 -1 -40 -35z"/>
<path d="M1350 8025 c0 -24 -5 -35 -15 -35 -10 0 -15 -11 -15 -35 0 -24 5 -35
15 -35 12 0 15 -14 15 -68 0 -80 15 -102 71 -102 65 0 77 8 69 43 -5 24 -11
32 -26 30 -25 -2 -34 14 -34 60 0 33 3 37 25 37 22 0 25 4 25 35 0 31 -3 35
-25 35 -22 0 -25 4 -25 35 0 34 -1 35 -40 35 -39 0 -40 -1 -40 -35z"/>
<path d="M902 7976 c-30 -14 -31 -17 -20 -41 8 -18 16 -24 27 -19 27 13 94 10
98 -3 3 -9 -8 -13 -37 -13 -46 0 -94 -21 -104 -45 -29 -77 63 -138 133 -89 22
16 24 16 33 0 6 -10 22 -16 46 -16 l38 0 -4 40 c-2 22 -8 43 -13 46 -5 3 -9
27 -9 53 0 38 -5 52 -25 71 -31 29 -114 37 -163 16z m92 -122 c25 -9 19 -33
-10 -40 -36 -9 -56 12 -30 32 23 16 20 16 40 8z"/>
<path d="M1140 7870 l0 -120 45 0 45 0 0 74 c0 77 5 86 51 86 16 0 19 7 19 40
0 47 -20 53 -57 18 l-23 -21 0 21 c0 19 -6 22 -40 22 l-40 0 0 -120z"/>
<path d="M1672 7973 c-78 -38 -83 -157 -8 -207 36 -23 113 -21 154 4 19 11 32
26 30 32 -6 16 -60 30 -72 18 -15 -15 -63 -12 -70 5 -4 13 8 15 75 15 91 0
100 8 77 68 -27 72 -112 102 -186 65z m96 -65 c3 -15 -4 -18 -32 -18 -38 0
-44 8 -24 28 17 17 52 11 56 -10z"/>
<path d="M1900 7870 l0 -120 45 0 45 0 0 69 c0 73 16 106 45 95 12 -5 15 -25
15 -85 l0 -79 45 0 45 0 0 94 c0 79 -3 97 -21 120 -24 30 -67 35 -111 12 -24
-13 -28 -13 -28 0 0 10 -12 14 -40 14 l-40 0 0 -120z"/>
<path d="M540 7609 l0 -60 -22 15 c-85 60 -185 -63 -133 -164 8 -16 25 -36 37
-44 29 -20 87 -20 116 0 20 14 23 14 28 0 4 -11 19 -16 45 -16 38 0 39 1 39
34 0 19 -4 38 -10 41 -6 4 -10 58 -10 131 l0 124 -45 0 -45 0 0 -61z m-11
-113 c7 -8 11 -30 9 -48 -2 -26 -8 -34 -26 -36 -31 -5 -52 15 -52 47 0 46 43
69 69 37z"/>
<path d="M1410 7635 c0 -35 0 -35 45 -35 45 0 45 0 45 35 0 35 0 35 -45 35
-45 0 -45 0 -45 -35z"/>
<path d="M1807 7663 c-4 -3 -7 -31 -7 -61 0 -53 -1 -54 -18 -39 -39 36 -108
14 -137 -43 -29 -55 -12 -130 37 -164 29 -20 87 -20 116 0 20 14 23 14 28 0 4
-11 19 -16 45 -16 38 0 39 1 39 34 0 19 -4 38 -10 41 -6 4 -10 58 -10 131 l0
124 -38 0 c-21 0 -42 -3 -45 -7z m-11 -182 c16 -31 3 -65 -25 -69 -30 -5 -51
15 -51 47 0 53 53 68 76 22z"/>
<path d="M680 7460 l0 -120 45 0 45 0 0 74 c0 77 5 86 51 86 16 0 19 7 19 40
0 47 -20 53 -57 18 l-23 -21 0 21 c0 19 -6 22 -40 22 l-40 0 0 -120z"/>
<path d="M892 7565 c-30 -13 -31 -16 -20 -40 8 -18 16 -24 27 -19 27 13 94 10
98 -3 3 -9 -8 -13 -37 -13 -67 0 -109 -31 -110 -81 0 -56 85 -90 137 -54 18
13 22 13 33 0 7 -8 28 -15 46 -15 33 0 34 1 34 39 0 22 -4 43 -10 46 -5 3 -10
28 -10 55 0 42 -4 52 -31 74 -35 30 -102 35 -157 11z m97 -124 c21 -13 5 -41
-23 -41 -33 0 -44 20 -21 37 22 15 25 16 44 4z"/>
<path d="M1162 7565 c-30 -13 -31 -16 -20 -40 8 -18 16 -24 27 -19 27 13 94
10 98 -3 3 -9 -8 -13 -37 -13 -71 0 -110 -30 -110 -84 0 -54 87 -86 137 -51
18 13 22 13 33 0 7 -8 28 -15 46 -15 33 0 34 1 34 39 0 22 -4 43 -10 46 -5 3
-10 24 -10 46 0 22 -5 49 -10 60 -25 45 -113 62 -178 34z m106 -144 c-4 -19
-46 -27 -62 -11 -8 8 -6 15 7 25 23 17 59 8 55 -14z"/>
<path d="M1410 7460 l0 -120 45 0 45 0 0 120 0 120 -45 0 -45 0 0 -120z"/>
<path d="M1992 7563 c-78 -38 -83 -157 -8 -207 48 -31 163 -13 179 28 7 17 3
21 -35 30 -15 3 -30 2 -33 -4 -10 -15 -62 -12 -68 5 -5 12 9 15 76 17 l82 3
-2 39 c-6 85 -105 132 -191 89z m96 -65 c3 -15 -4 -18 -32 -18 -38 0 -44 8
-24 28 17 17 52 11 56 -10z"/>
<path d="M1070 7095 l0 -165 40 0 c22 0 39 3 39 8 -3 19 2 22 17 8 9 -9 32
-16 56 -16 32 0 47 7 75 35 34 34 35 38 31 92 -4 48 -10 61 -37 85 -35 32 -75
36 -109 12 l-22 -15 0 60 0 61 -45 0 -45 0 0 -165z m158 -7 c17 -17 15 -63 -2
-78 -25 -20 -61 -8 -64 22 -6 53 34 88 66 56z"/>
<path d="M1360 7112 c0 -132 2 -151 18 -165 20 -18 87 -23 111 -8 19 12 5 69
-17 67 -15 -1 -18 14 -22 124 l-5 125 -42 3 -43 3 0 -149z"/>
<path d="M630 7205 c0 -24 -5 -35 -15 -35 -10 0 -15 -11 -15 -35 0 -24 5 -35
15 -35 12 0 15 -14 15 -69 0 -82 13 -101 68 -101 68 0 80 8 72 43 -5 24 -11
32 -26 30 -25 -2 -34 14 -34 60 0 33 3 37 25 37 22 0 25 4 25 35 0 31 -3 35
-25 35 -22 0 -25 4 -25 35 0 34 -1 35 -40 35 -39 0 -40 -1 -40 -35z"/>
<path d="M1810 7205 c0 -24 -5 -35 -15 -35 -10 0 -15 -11 -15 -35 0 -24 5 -35
15 -35 12 0 15 -14 15 -68 0 -89 16 -107 90 -100 28 3 52 7 55 10 9 9 -12 63
-26 63 -28 1 -39 17 -39 56 0 35 3 39 25 39 22 0 25 4 25 35 0 31 -3 35 -25
35 -22 0 -25 4 -25 35 0 34 -1 35 -40 35 -39 0 -40 -1 -40 -35z"/>
<path d="M832 7155 c-30 -13 -31 -16 -20 -40 8 -18 16 -24 27 -19 36 16 88 16
94 0 5 -13 -1 -16 -34 -16 -66 0 -108 -32 -109 -81 0 -58 85 -90 139 -53 22
16 24 16 33 0 6 -10 22 -16 43 -16 34 0 35 1 35 38 0 21 -4 42 -9 48 -6 5 -11
31 -13 59 -3 43 -7 52 -37 72 -39 27 -99 30 -149 8z m97 -124 c21 -13 5 -41
-23 -41 -33 0 -44 20 -21 37 22 15 25 16 44 4z"/>
<path d="M1572 7153 c-58 -28 -79 -102 -47 -163 20 -38 63 -60 117 -60 46 0
112 33 106 52 -6 17 -59 29 -74 17 -17 -14 -66 -8 -72 9 -3 9 17 12 77 12 93
0 102 8 79 68 -27 72 -112 102 -186 65z m96 -65 c3 -15 -4 -18 -32 -18 -38 0
-44 8 -24 28 17 17 52 11 56 -10z"/>
<path d="M9355 5999 c-65 -11 -129 -35 -149 -58 -16 -17 -14 -22 36 -80 41
-49 54 -59 63 -49 34 46 109 63 139 32 36 -35 3 -78 -68 -88 l-46 -7 0 -53 0
-53 52 -7 c29 -4 61 -14 70 -23 22 -20 23 -66 3 -83 -22 -18 -116 -16 -155 4
-18 9 -34 16 -36 16 -2 0 -22 -28 -45 -61 -46 -68 -47 -64 31 -102 65 -32 236
-32 295 0 71 38 105 89 105 159 0 49 -35 112 -76 136 l-34 20 31 21 c40 28 69
81 69 128 0 104 -134 174 -285 148z"/>
<path d="M9150 4748 c0 -171 7 -188 73 -188 57 0 71 11 63 48 -5 19 -13 29
-24 28 -15 -1 -18 14 -22 124 l-5 125 -42 3 -43 3 0 -143z"/>
<path d="M8850 4720 l0 -160 45 0 44 0 3 57 c2 31 8 58 15 60 6 2 28 -23 50
-56 38 -60 38 -61 85 -61 l48 0 -60 84 c-33 46 -60 87 -60 92 0 5 25 38 55 74
l54 65 -42 3 c-45 4 -52 -2 -119 -88 l-28 -35 0 63 0 62 -45 0 -45 0 0 -160z"/>
<path d="M9342 4786 c-30 -14 -31 -17 -20 -41 8 -18 16 -24 27 -19 27 13 94
10 98 -3 3 -9 -8 -13 -37 -13 -67 0 -109 -31 -110 -81 0 -58 85 -90 139 -53
22 16 24 16 33 0 11 -19 74 -22 81 -3 6 17 -3 66 -14 73 -5 3 -9 25 -9 49 0
66 -31 97 -101 102 -33 2 -66 -2 -87 -11z m106 -145 c-4 -19 -46 -27 -62 -11
-8 8 -6 15 7 25 23 17 59 8 55 -14z"/>
<path d="M9622 4786 c-30 -14 -31 -17 -20 -41 8 -18 16 -24 27 -19 27 13 94
10 98 -3 3 -9 -8 -13 -37 -13 -67 0 -109 -31 -110 -81 0 -56 85 -90 137 -54
18 13 22 13 33 0 7 -8 27 -15 45 -15 29 0 33 4 37 30 3 17 -1 38 -8 48 -8 9
-14 38 -14 63 0 35 -6 51 -25 69 -31 29 -114 37 -163 16z m92 -122 c25 -9 19
-33 -10 -40 -36 -9 -56 12 -30 32 23 16 20 16 40 8z"/>
<path d="M9860 4680 l0 -120 45 0 45 0 0 74 c0 77 5 86 51 86 16 0 19 7 19 40
0 47 -20 53 -57 18 l-23 -21 0 21 c0 19 -6 22 -40 22 l-40 0 0 -120z"/>
<path d="M1180 4066 c-60 -17 -130 -54 -130 -67 0 -6 23 -38 51 -70 l51 -59
35 30 c29 26 42 31 76 28 39 -3 42 -5 42 -33 0 -27 -8 -34 -89 -81 -130 -74
-176 -134 -176 -226 l0 -28 235 0 235 0 0 75 0 74 -97 3 -96 3 68 45 c92 60
110 86 110 160 0 67 -20 102 -75 134 -42 25 -175 31 -240 12z"/>
<path d="M1707 3043 c-4 -3 -7 -31 -7 -60 0 -54 0 -54 -22 -39 -46 32 -104 13
-133 -44 -29 -55 -12 -130 37 -164 28 -20 87 -21 115 -1 18 13 22 13 33 0 7
-8 28 -15 46 -15 32 0 34 2 34 34 0 19 -4 38 -10 41 -6 4 -10 58 -10 131 l0
124 -38 0 c-21 0 -42 -3 -45 -7z m-20 -165 c30 -38 18 -88 -20 -88 -31 0 -47
18 -47 52 0 39 46 63 67 36z"/>
<path d="M250 2879 l0 -161 111 4 c107 3 112 4 135 31 32 38 31 72 -5 108 -16
16 -25 29 -20 29 15 0 36 59 31 86 -9 49 -45 64 -153 64 l-99 0 0 -161z m165
61 c0 -19 -65 -26 -76 -9 -4 8 -4 19 2 25 13 16 74 2 74 -16z m5 -100 c24 -15
-1 -44 -42 -48 -36 -3 -51 14 -41 46 5 14 61 16 83 2z"/>
<path d="M582 2946 c-30 -14 -31 -17 -20 -41 8 -18 16 -24 27 -19 27 13 94 10
98 -3 3 -9 -8 -13 -37 -13 -71 0 -110 -30 -110 -84 0 -54 87 -86 137 -51 18
13 22 13 33 0 7 -8 27 -15 45 -15 29 0 33 4 37 30 3 17 -1 38 -8 48 -8 9 -14
38 -14 63 0 35 -6 51 -25 69 -31 29 -114 37 -163 16z m92 -122 c25 -9 19 -33
-10 -40 -36 -9 -56 12 -30 32 23 16 20 16 40 8z"/>
<path d="M820 2840 l0 -120 45 0 45 0 0 74 c0 77 5 86 51 86 16 0 19 7 19 40
0 47 -20 53 -57 18 l-23 -21 0 21 c0 19 -6 22 -40 22 l-40 0 0 -120z"/>
<path d="M1054 2945 c-58 -30 -80 -104 -49 -165 20 -38 63 -60 116 -60 44 0
113 34 106 53 -5 16 -57 28 -90 21 -35 -7 -57 10 -57 46 0 37 23 56 52 43 23
-10 98 3 98 16 0 4 -11 18 -25 31 -31 30 -107 37 -151 15z"/>
<path d="M1306 2941 c-37 -25 -55 -57 -56 -99 0 -74 52 -122 132 -122 92 0
149 81 114 164 -29 69 -127 98 -190 57z m98 -67 c19 -18 20 -38 6 -65 -21 -38
-70 -17 -70 31 0 46 34 64 64 34z"/>
<path d="M1892 2943 c-78 -38 -83 -157 -8 -207 45 -29 176 -11 176 24 0 6 0
13 0 18 -1 13 -53 22 -66 11 -17 -14 -66 -8 -72 9 -3 9 17 12 77 12 93 0 102
8 79 68 -27 72 -112 102 -186 65z m96 -65 c3 -15 -4 -18 -32 -18 -38 0 -44 8
-24 28 17 17 52 11 56 -10z"/>
<path d="M2155 2948 c-56 -30 -62 -88 -13 -118 18 -11 45 -22 60 -25 15 -4 31
-11 34 -17 7 -11 -69 -7 -97 6 -21 9 -48 -39 -31 -56 6 -6 45 -13 86 -16 70
-4 76 -3 100 21 49 49 29 94 -57 123 -26 9 -47 20 -47 25 0 12 47 11 70 -1 15
-8 22 -5 34 12 22 31 21 34 -15 47 -40 14 -98 14 -124 -1z"/>
<path d="M1457 2493 c-4 -3 -7 -31 -7 -60 0 -54 0 -54 -22 -39 -46 32 -104 13
-133 -44 -29 -55 -12 -130 37 -164 28 -20 87 -21 115 -1 18 13 22 13 33 0 7
-8 28 -15 46 -15 32 0 34 2 34 34 0 19 -4 38 -10 41 -6 4 -10 58 -10 131 l0
124 -38 0 c-21 0 -42 -3 -45 -7z m-18 -167 c7 -8 11 -30 9 -48 -2 -26 -8 -34
-26 -36 -46 -7 -71 48 -36 82 19 20 38 20 53 2z"/>
<path d="M424 2393 c4 -10 25 -64 48 -120 l42 -103 36 0 c35 0 38 3 50 43 l13
42 19 -42 c17 -38 23 -43 52 -43 33 0 34 1 80 113 25 63 46 117 46 121 0 4
-17 6 -37 4 -34 -3 -38 -7 -59 -58 -12 -30 -25 -64 -29 -75 -6 -19 -6 -19 -15
2 -7 17 -4 36 10 69 26 60 25 64 -11 64 -25 0 -32 -5 -41 -32 l-12 -33 -13 33
c-11 26 -19 32 -43 32 -17 0 -30 -2 -30 -5 0 -2 9 -27 20 -56 12 -29 18 -60
14 -71 -8 -27 -17 -13 -45 70 l-21 62 -40 0 c-34 0 -39 -3 -34 -17z"/>
<path d="M882 2393 c-58 -28 -79 -102 -47 -163 43 -83 189 -79 230 6 19 40 19
56 1 99 -28 66 -113 93 -184 58z m93 -69 c34 -35 -3 -103 -42 -78 -34 21 -24
94 13 94 7 0 20 -7 29 -16z"/>
<path d="M1107 2403 c-4 -3 -7 -57 -7 -120 l0 -113 45 0 45 0 0 74 c0 77 5 86
51 86 16 0 19 7 19 40 0 47 -20 53 -57 18 l-23 -21 0 21 c0 18 -6 22 -33 22
-19 0 -37 -3 -40 -7z"/>
<path d="M1642 2393 c-58 -28 -79 -102 -47 -163 20 -38 63 -60 117 -60 46 0
112 33 106 52 -6 17 -59 29 -74 17 -17 -14 -66 -8 -72 9 -3 9 18 12 82 12 97
0 101 5 72 75 -28 66 -113 93 -184 58z m96 -65 c3 -15 -4 -18 -32 -18 -38 0
-44 8 -24 28 17 17 52 11 56 -10z"/>
<path d="M1877 2403 c-4 -3 -7 -57 -7 -120 l0 -113 45 0 45 0 0 69 c0 73 16
106 45 95 12 -5 15 -25 15 -85 l0 -79 45 0 45 0 0 94 c0 79 -3 97 -21 120 -23
30 -67 35 -111 12 -23 -12 -27 -12 -32 0 -5 14 -57 20 -69 7z"/>
<path d="M2117 1953 c-4 -3 -7 -31 -7 -60 0 -54 0 -54 -22 -39 -71 50 -158
-26 -145 -127 11 -79 102 -125 164 -82 18 13 22 13 33 0 7 -8 28 -15 46 -15
32 0 34 2 34 34 0 19 -4 38 -10 41 -6 4 -10 58 -10 131 l0 124 -38 0 c-21 0
-42 -3 -45 -7z m-11 -182 c16 -31 3 -65 -25 -69 -43 -7 -64 35 -40 79 14 27
50 21 65 -10z"/>
<path d="M372 1842 c-36 -34 -47 -68 -37 -119 14 -75 89 -115 144 -77 22 16
23 15 19 -7 -1 -13 -15 -30 -29 -38 -23 -13 -29 -12 -59 3 -33 16 -35 16 -58
-7 l-23 -24 28 -18 c40 -27 112 -31 158 -9 63 30 75 61 75 202 l0 122 -34 0
c-22 0 -36 -6 -40 -16 -6 -16 -8 -16 -24 0 -30 26 -85 20 -120 -12z m117 -56
c7 -8 11 -30 9 -48 -2 -26 -8 -34 -26 -36 -31 -5 -52 15 -52 47 0 46 43 69 69
37z"/>
<path d="M676 1851 c-37 -25 -55 -57 -56 -99 0 -74 52 -122 132 -122 46 0 112
33 106 52 -6 17 -59 29 -74 17 -17 -14 -66 -8 -72 9 -3 9 18 12 82 12 97 0
101 5 72 75 -29 68 -128 97 -190 56z m102 -63 c3 -15 -4 -18 -32 -18 -38 0
-44 8 -24 28 17 17 52 11 56 -10z"/>
<path d="M926 1845 c-31 -28 -35 -74 -8 -97 9 -9 35 -21 57 -28 60 -19 68 -33
15 -27 -25 2 -52 8 -61 11 -19 8 -46 -41 -30 -57 5 -5 44 -12 85 -15 70 -4 76
-3 100 21 49 49 29 94 -57 123 -26 9 -47 20 -47 25 0 12 47 11 70 -1 15 -8 22
-5 34 12 22 31 21 34 -15 47 -56 19 -113 14 -143 -14z"/>
<path d="M1194 1855 c-79 -41 -85 -159 -10 -209 48 -31 163 -13 179 28 9 22
-9 30 -67 30 -63 1 -76 9 -76 45 0 37 23 57 52 44 21 -9 98 4 98 17 0 4 -11
17 -25 30 -31 30 -107 37 -151 15z"/>
<path d="M1432 1856 c-30 -14 -31 -17 -20 -41 8 -18 16 -24 27 -19 27 13 94
10 98 -3 3 -9 -8 -13 -37 -13 -46 0 -94 -21 -104 -45 -29 -77 63 -138 133 -89
22 16 24 16 33 0 6 -10 22 -16 43 -16 34 0 35 1 35 39 0 22 -4 43 -10 46 -5 3
-10 26 -10 50 0 66 -31 97 -101 102 -33 2 -66 -2 -87 -11z m96 -124 c19 -13 3
-42 -23 -42 -32 0 -42 20 -20 37 22 15 25 16 43 5z"/>
<path d="M1670 1750 l0 -120 45 0 45 0 0 69 c0 73 16 106 45 95 12 -5 15 -25
15 -85 l0 -79 45 0 45 0 0 94 c0 79 -3 97 -21 120 -24 30 -67 35 -111 12 -24
-13 -28 -13 -28 0 0 10 -12 14 -40 14 l-40 0 0 -120z"/>
</g>
</svg>
