<?xml version="1.0" standalone="no"?>
<!DOCTYPE svg PUBLIC "-//W3C//DTD SVG 20010904//EN"
 "http://www.w3.org/TR/2001/REC-SVG-20010904/DTD/svg10.dtd">
<svg version="1.0" xmlns="http://www.w3.org/2000/svg"
 width="1080.000000pt" height="1080.000000pt" viewBox="0 0 1080.000000 1080.000000"
 preserveAspectRatio="xMidYMid meet">

<g transform="translate(0.000000,1080.000000) scale(0.100000,-0.100000)"
fill="#000000" stroke="none">
<path d="M1973 9685 c-139 -18 -331 -56 -488 -97 -140 -38 -144 -36 120 -63
889 -92 1438 -363 1811 -895 114 -162 433 -671 488 -777 21 -41 20 -69 -2 -91
-10 -10 -105 -46 -211 -81 l-193 -63 33 -22 c171 -116 1283 -826 1287 -821 7
7 126 1345 120 1351 -3 2 -65 -21 -137 -52 -111 -49 -136 -56 -159 -48 -22 8
-45 46 -137 229 -180 359 -305 548 -479 721 -380 378 -844 617 -1361 700 -141
22 -544 28 -692 9z"/>
<path d="M8285 9693 c-443 -52 -767 -165 -1094 -380 -418 -274 -637 -535 -903
-1071 -55 -111 -108 -207 -118 -212 -30 -16 -45 -13 -175 47 -69 31 -128 53
-131 50 -7 -7 110 -1344 118 -1352 4 -5 1115 704 1287 821 l33 22 -193 63
c-106 35 -201 71 -211 81 -10 10 -18 29 -18 42 0 37 332 582 504 826 234 334
541 565 951 715 215 79 537 147 860 180 264 27 260 25 120 63 -306 80 -543
113 -815 111 -102 -1 -198 -4 -215 -6z"/>
<path d="M3062 7218 c-65 -18 -90 -103 -53 -183 10 -23 179 -250 376 -505 269
-349 754 -980 791 -1029 2 -2 26 22 54 52 30 33 74 67 106 83 30 14 54 28 54
30 0 3 -35 48 -77 102 -43 53 -92 115 -109 137 -401 525 -944 1228 -968 1253
-52 56 -113 77 -174 60z"/>
<path d="M7920 7221 c-49 -15 -85 -39 -116 -77 -17 -22 -249 -322 -515 -669
-267 -346 -517 -672 -557 -722 l-72 -93 49 -24 c52 -27 103 -72 138 -121 12
-16 23 -28 26 -25 43 52 281 361 892 1160 312 408 288 373 293 442 5 69 -12
102 -63 124 -38 15 -39 16 -75 5z"/>
<path d="M2455 5790 c-163 -22 -265 -103 -280 -223 -3 -29 -5 -219 -3 -423 l3
-370 28 -42 c37 -56 97 -98 175 -122 63 -20 98 -20 3211 -20 3362 0 3189 -2
3287 48 53 27 110 91 124 139 8 26 10 165 8 439 l-3 400 -28 43 c-32 48 -99
94 -172 118 -45 15 -128 18 -775 20 -399 2 -730 0 -735 -4 -11 -9 -135 -165
-292 -368 -81 -106 -101 -138 -107 -175 -30 -197 -242 -336 -436 -286 -71 19
-157 72 -195 122 -85 111 -102 273 -41 392 45 88 142 166 231 187 28 6 96 80
112 120 5 13 -125 15 -1041 15 -575 0 -1046 -3 -1046 -6 0 -3 20 -31 45 -62
33 -43 56 -61 92 -74 112 -41 199 -139 229 -258 50 -195 -69 -387 -270 -437
-57 -14 -77 -14 -135 -4 -60 11 -134 45 -182 83 -58 47 -112 153 -122 239 -3
27 -46 89 -191 277 l-187 242 -627 -1 c-345 -1 -649 -5 -677 -9z"/>
<path d="M4420 5514 c-72 -31 -122 -100 -135 -186 -6 -38 -3 -57 18 -101 53
-117 180 -159 298 -99 76 38 114 101 114 187 0 51 -5 70 -30 110 -55 89 -174
129 -265 89z"/>
<path d="M6470 5517 c-19 -6 -53 -29 -75 -52 -81 -81 -86 -201 -12 -291 124
-150 378 -57 377 138 -1 154 -140 253 -290 205z"/>
<path d="M2855 4408 c3 -18 95 -645 205 -1393 122 -837 206 -1381 218 -1415
81 -234 253 -397 497 -472 61 -19 101 -22 323 -25 227 -4 252 -3 252 11 0 9
-54 578 -120 1264 -66 686 -136 1411 -155 1612 -19 201 -38 384 -41 408 l-5
42 -590 0 -590 0 6 -32z"/>
<path d="M4180 4426 c0 -16 35 -380 130 -1366 33 -338 86 -898 120 -1245 33
-346 62 -649 66 -672 l5 -43 510 0 509 0 0 1670 0 1670 -670 0 c-575 0 -670
-2 -670 -14z"/>
<path d="M5670 2770 l0 -1670 510 0 510 0 0 30 c0 16 27 310 60 652 33 343 76
785 95 983 19 198 62 641 95 985 33 344 62 640 64 658 l5 32 -670 0 -669 0 0
-1670z"/>
<path d="M7156 4408 c-3 -18 -30 -289 -61 -603 -114 -1177 -255 -2612 -261
-2657 l-6 -48 221 0 c293 0 394 20 549 111 75 45 198 169 244 247 72 125 79
162 234 1222 79 547 169 1163 199 1369 30 205 55 377 55 382 0 5 -247 9 -585
9 l-584 0 -5 -32z"/>
</g>
</svg>
