<?xml version="1.0" standalone="no"?>
<!DOCTYPE svg PUBLIC "-//W3C//DTD SVG 20010904//EN"
 "http://www.w3.org/TR/2001/REC-SVG-20010904/DTD/svg10.dtd">
<svg version="1.0" xmlns="http://www.w3.org/2000/svg"
 width="1080.000000pt" height="1080.000000pt" viewBox="0 0 1080.000000 1080.000000"
 preserveAspectRatio="xMidYMid meet">

<g transform="translate(0.000000,1080.000000) scale(0.100000,-0.100000)"
fill="#000000" stroke="none">
<path d="M3473 10145 c-239 -43 -465 -177 -616 -365 -81 -100 -166 -266 -199
-390 l-23 -85 0 -3905 0 -3905 23 -85 c13 -47 47 -134 77 -195 145 -298 418
-503 744 -560 126 -22 3716 -22 3842 0 326 57 599 262 744 560 30 61 64 148
77 195 l23 85 0 3905 0 3905 -23 85 c-90 332 -345 607 -665 716 -164 56 -84
54 -2086 53 -1468 -1 -1861 -3 -1918 -14z m4017 -1411 c60 -33 112 -99 130
-162 14 -51 14 -6293 0 -6344 -18 -63 -70 -129 -130 -162 l-55 -31 -2035 0
-2035 0 -55 31 c-60 33 -112 99 -130 162 -14 50 -14 6293 0 6342 25 90 106
169 193 190 18 5 939 7 2047 7 l2015 -2 55 -31z m-1556 -7155 c39 -14 68 -35
100 -70 52 -57 66 -98 66 -184 -1 -98 -50 -178 -141 -227 l-44 -23 -548 -3
c-363 -2 -561 1 -587 8 -21 6 -58 25 -82 43 -131 101 -144 282 -28 398 79 79
68 78 677 78 514 1 534 0 587 -20z"/>
<path d="M3684 7350 c-11 -4 -33 -22 -47 -40 l-27 -32 0 -406 c0 -391 1 -408
20 -440 36 -59 116 -75 177 -35 48 32 53 70 53 403 l0 310 313 0 c283 0 316 2
353 19 34 15 45 28 59 65 16 41 16 50 4 83 -9 21 -29 48 -48 60 -34 23 -34 23
-435 22 -221 0 -410 -4 -422 -9z"/>
<path d="M6386 7341 c-39 -26 -55 -57 -56 -108 0 -52 36 -98 88 -113 22 -6
166 -10 345 -10 l307 0 0 -322 c0 -237 4 -329 13 -347 19 -38 64 -66 106 -66
54 0 87 21 111 71 20 41 21 56 18 436 -3 367 -4 395 -22 421 -39 57 -39 57
-478 57 -382 0 -405 -1 -432 -19z"/>
<path d="M3970 6560 l0 -420 415 0 415 0 0 420 0 420 -415 0 -415 0 0 -420z
m710 0 l0 -300 -300 0 -300 0 1 300 0 300 300 0 299 0 0 -300z"/>
<path d="M4207 6733 c-4 -3 -7 -84 -7 -180 l0 -173 180 0 180 0 0 180 0 180
-173 0 c-96 0 -177 -3 -180 -7z"/>
<path d="M5040 6920 l0 -60 -60 0 -60 0 0 -360 0 -360 60 0 60 0 0 -60 0 -60
-240 0 -240 0 0 -60 0 -60 180 0 180 0 0 -60 0 -60 -120 0 -120 0 0 -60 0 -60
-60 0 -60 0 0 60 0 60 -120 0 -120 0 0 120 0 120 -60 0 -60 0 0 -60 0 -60 -59
0 -60 0 0 -117 1 -118 -205 -5 c-180 -4 -207 -7 -225 -23 -29 -26 -35 -62 -17
-97 19 -37 30 -40 195 -43 147 -2 135 3 139 -59 1 -16 16 -18 176 -18 l175 0
0 -120 0 -120 60 0 59 0 3 -117 3 -118 237 -3 238 -2 2 -178 3 -177 238 -3
237 -2 0 -60 0 -60 -60 0 -60 0 0 -60 0 -61 -57 3 -58 3 -3 58 -3 57 -59 0
-60 0 0 -60 0 -60 -60 0 -61 0 3 -57 3 -58 118 -3 117 -3 0 -59 0 -60 -60 0
-61 0 3 -57 3 -58 238 -3 237 -2 0 120 0 120 60 0 59 0 3 -117 3 -118 58 -3
57 -3 0 121 0 120 120 0 120 0 0 -120 0 -120 60 0 60 0 0 60 0 60 120 0 120 0
0 -60 0 -60 120 0 120 0 0 60 0 60 60 0 60 0 0 60 0 60 120 0 120 0 0 60 0 60
-240 0 -240 0 0 60 0 60 60 0 60 0 0 60 0 60 60 0 60 0 0 -60 0 -60 60 0 60 0
0 120 0 120 60 0 60 0 0 180 0 180 -60 0 -60 0 0 -180 0 -180 -180 0 -180 0 0
60 0 60 60 0 60 0 0 60 0 60 -60 0 -60 0 0 120 0 120 120 0 120 0 0 120 0 120
-60 0 -60 0 0 40 0 40 120 0 120 0 0 -160 0 -160 60 0 60 0 0 160 0 160 104 0
c89 0 107 3 130 21 32 25 35 75 7 110 -18 22 -28 24 -130 27 l-111 4 0 119 0
119 -60 0 -60 0 0 60 0 60 -300 0 -300 0 0 -60 0 -60 120 0 120 0 0 -120 0
-120 -60 0 -60 0 0 60 0 60 -60 0 -60 0 0 -60 0 -60 -540 0 -540 0 0 60 0 60
180 0 180 0 0 60 0 60 60 0 60 0 0 -60 0 -60 60 0 60 0 0 60 0 60 60 0 60 0 0
120 0 120 60 0 60 0 0 180 0 180 -60 0 -60 0 0 60 0 60 60 0 60 0 0 180 0 180
-120 0 -120 0 0 -120 0 -120 60 0 60 0 0 -60 0 -60 -60 0 -60 0 0 -60 0 -60
-120 0 -120 0 0 -60 0 -60 -60 0 -60 0 0 60 0 60 -60 0 -60 0 0 -60 0 -60 -60
0 -60 0 0 120 0 120 -60 0 -60 0 0 60 0 60 60 0 60 0 0 120 0 120 -60 0 -60 0
0 -60z m840 -600 l0 -180 -60 0 -60 0 0 180 0 180 60 0 60 0 0 -180z m-720
-60 l0 -120 -60 0 -60 0 0 120 0 120 60 0 60 0 0 -120z m240 0 l0 -120 60 0
60 0 0 120 0 120 60 0 60 0 0 -180 0 -180 60 0 60 0 0 -60 0 -60 -60 0 -60 0
0 60 0 60 -120 0 -120 0 0 -60 0 -60 -120 0 -120 0 0 -60 0 -60 -60 0 -60 0 0
-60 0 -60 -60 0 -60 0 0 60 0 60 60 0 60 0 0 60 0 60 60 0 60 0 0 60 0 60 60
0 60 0 0 180 0 180 60 0 60 0 0 -120z m1320 -420 l0 -60 60 0 60 0 0 -60 0
-60 -120 0 -120 0 0 120 0 120 60 0 60 0 0 -60z m-2040 -380 l0 -40 120 0 120
0 0 40 0 40 60 0 60 0 0 -100 0 -100 60 0 60 0 0 -60 0 -60 60 0 60 0 0 -60 0
-60 60 0 60 0 0 60 0 60 60 0 60 0 0 60 0 60 60 0 60 0 0 100 0 100 60 0 60 0
0 -40 0 -40 60 0 60 0 0 -120 0 -120 -60 0 -60 0 0 -60 0 -60 60 0 60 0 0 -60
0 -60 -60 0 -60 0 0 -120 0 -120 60 0 60 0 0 -60 0 -60 -60 0 -60 0 0 60 0 60
-60 0 -60 0 0 120 0 120 -120 0 -120 0 0 -60 0 -60 -180 0 -180 0 0 60 0 60
60 0 60 0 0 120 0 120 -60 0 -60 0 0 -60 0 -60 -240 0 -240 0 0 60 0 60 180 0
180 0 0 60 0 60 -180 0 -180 0 0 60 0 60 -60 0 -60 0 0 33 c0 19 3 37 7 40 3
4 57 7 120 7 l113 0 0 -40z m600 0 l0 -40 60 0 60 0 0 40 0 40 60 0 60 0 0
-40 0 -40 -60 0 -60 0 0 -60 0 -60 -60 0 -60 0 0 60 0 60 -60 0 -60 0 0 40 0
40 60 0 60 0 0 -40z m1200 0 l0 -40 60 0 60 0 0 -60 0 -60 -60 0 -60 0 0 60 0
60 -60 0 -60 0 0 -180 0 -180 -120 0 -120 0 0 60 0 60 60 0 60 0 0 60 0 60
-120 0 -120 0 0 100 0 100 240 0 240 0 0 -40z m-120 -700 l0 -180 -180 0 -180
0 0 180 0 180 180 0 180 0 0 -180z m-840 -120 l0 -60 60 0 60 0 0 -60 0 -60
-60 0 -60 0 0 -60 0 -60 -60 0 -60 0 0 -60 0 -60 -60 0 -60 0 0 60 0 60 60 0
60 0 0 60 0 60 60 0 60 0 0 60 0 60 -60 0 -60 0 0 60 0 60 60 0 60 0 0 -60z
m840 -240 l0 -60 60 0 60 0 0 -60 0 -60 -120 0 -120 0 0 60 0 60 -60 0 -60 0
0 -60 0 -60 -60 0 -60 0 0 60 0 60 -60 0 -60 0 0 60 0 60 240 0 240 0 0 -60z"/>
<path d="M5640 5240 l0 -60 60 0 60 0 0 60 0 60 -60 0 -60 0 0 -60z"/>
<path d="M5640 5000 l0 -60 60 0 60 0 0 60 0 60 -60 0 -60 0 0 -60z"/>
<path d="M6120 4760 l0 -60 60 0 60 0 0 60 0 60 -60 0 -60 0 0 -60z"/>
<path d="M5520 6800 l0 -180 60 0 60 0 0 180 0 180 -60 0 -60 0 0 -180z"/>
<path d="M6120 6560 l0 -420 420 0 420 0 0 420 0 420 -420 0 -420 0 0 -420z
m720 0 l0 -300 -300 0 -300 0 0 300 0 300 300 0 300 0 0 -300z"/>
<path d="M6360 6560 l0 -180 180 0 180 0 0 180 0 180 -180 0 -180 0 0 -180z"/>
<path d="M5280 6800 l0 -60 60 0 60 0 0 60 0 60 -60 0 -60 0 0 -60z"/>
<path d="M6000 5960 l0 -60 60 0 60 0 0 60 0 60 -60 0 -60 0 0 -60z"/>
<path d="M3968 5240 l4 -60 114 0 114 0 0 60 0 60 -117 0 -118 0 3 -60z"/>
<path d="M3968 5000 l4 -60 174 0 174 0 0 60 0 60 -177 0 -178 0 3 -60z"/>
<path d="M3968 4400 l2 -420 415 0 415 0 0 420 0 420 -417 0 -418 0 3 -420z
m712 0 l0 -300 -297 2 -298 3 -2 298 -2 297 300 0 299 0 0 -300z"/>
<path d="M4202 4403 l3 -178 178 -3 177 -2 0 180 0 180 -180 0 -180 0 2 -177z"/>
<path d="M3672 4627 c-13 -7 -32 -27 -43 -43 -18 -27 -19 -50 -19 -432 0 -439
0 -439 57 -478 26 -18 52 -19 433 -19 463 0 454 -1 485 79 20 53 10 98 -31
137 l-26 24 -334 3 -334 3 0 307 c0 172 -4 323 -10 343 -15 53 -50 81 -107 86
-29 2 -57 -2 -71 -10z"/>
<path d="M7128 4625 c-56 -32 -58 -44 -58 -400 l0 -325 -326 0 c-361 0 -365
-1 -400 -65 -41 -76 9 -167 98 -180 24 -3 210 -5 415 -3 357 3 373 4 400 24
62 46 63 51 63 464 0 217 -4 390 -10 411 -6 19 -21 46 -35 59 -31 29 -108 37
-147 15z"/>
<path d="M6840 4040 l0 -60 60 0 60 0 0 60 0 60 -60 0 -60 0 0 -60z"/>
</g>
</svg>
