<svg width="1080" height="1080" xmlns="http://www.w3.org/2000/svg" stroke="null" style="vector-effect: non-scaling-stroke;" preserveAspectRatio="xMidYMid meet" version="1.0">

 <g stroke="null">
  <title stroke="null">Layer 1</title>
  <g stroke="null" id="svg_1" fill="#000000" transform="translate(0 1080) scale(0.1 -0.1)">
   <path stroke="null" id="svg_2" d="m2651.99276,10567.19361c-152.91805,-54.06194 -264.13117,-176.08745 -296.56833,-329.00549c-10.81239,-49.42806 -16.99089,-392.33519 -16.99089,-948.40081l0,-871.16947l-41.70492,-4.63388l-43.24955,-4.63388l-4.63388,-239.41714c-6.17851,-298.11296 0,-339.81788 50.97268,-339.81788l38.61567,0l3.08925,-3252.98389l4.63388,-3252.98389l37.07104,-29.34791c77.23134,-63.3297 180.72133,-21.62477 196.16759,80.32059l10.81239,60.24044l2744.80169,0l2744.80169,0l10.81239,-60.24044c15.44627,-101.94536 118.93626,-143.65029 196.16759,-80.32059l37.07104,29.34791l4.63388,3251.43926l3.08925,3252.98389l43.24955,4.63388l41.70492,4.63388l0,285.75594l0,285.75594l-41.70492,4.63388l-41.70492,4.63388l-4.63388,914.41902c-4.63388,892.79425 -6.17851,915.96365 -37.07104,985.47185c-47.88343,101.94536 -120.48088,176.08745 -219.337,225.5155l-88.04372,43.24955l-2625.86544,3.08925c-2489.93828,3.08925 -2630.49932,3.08925 -2706.18603,-23.1694zm5279.53415,-219.337c29.34791,-7.72313 74.14208,-37.07104 100.40074,-63.3297l44.79418,-46.3388l4.63388,-1807.21327l3.08925,-1805.66864l-162.18581,0l-162.18581,0l0,367.62116c0,282.66669 6.17851,383.06743 23.1694,443.30787c13.90164,43.24955 30.89253,103.48999 40.16029,134.38253c13.90164,52.51731 18.53552,57.15119 80.32059,61.78507l64.87432,4.63388l0,69.5082l0,69.5082l-103.48999,4.63388l-105.03462,4.63388l-3.08925,1207.8981c-4.63388,1061.15856 -7.72313,1207.8981 -27.80328,1207.8981c-20.08015,0 -23.1694,-146.73954 -27.80328,-1207.8981l-3.08925,-1209.44273l-139.01641,0l-137.47178,0l16.99089,-47.88343c23.1694,-66.41895 -21.62477,-128.20402 -100.40074,-134.38253c-41.70492,-3.08925 -57.15119,1.54463 -57.15119,16.99089c0,15.44627 12.35701,20.08015 38.61567,13.90164c47.88343,-7.72313 84.95447,20.08015 84.95447,66.41895c0,18.53552 -27.80328,72.59746 -61.78507,120.48088l-61.78507,84.95447l-3.08925,1149.20228c-4.63388,1008.64125 -7.72313,1147.65766 -27.80328,1147.65766c-20.08015,0 -24.71403,-135.92715 -30.89253,-1099.77423l-7.72313,-1098.2296l-162.18581,228.60476l-162.18581,230.14938l-41.70492,-49.42806c-32.43716,-38.61567 -43.24955,-43.24955 -43.24955,-21.62477c0,15.44627 10.81239,44.79418 24.71403,64.87432c23.1694,35.52641 23.1694,41.70492 0,77.23134c-21.62477,32.43716 -24.71403,134.38253 -27.80328,852.63395c-4.63388,713.61755 -7.72313,815.56291 -27.80328,815.56291c-20.08015,0 -24.71403,-103.48999 -30.89253,-810.92903l-7.72313,-810.92903l-200.80147,-281.12206l-200.80147,-281.12206l-7.72313,1092.0511c-6.17851,957.66857 -10.81239,1092.0511 -30.89253,1092.0511c-20.08015,0 -23.1694,-139.01641 -27.80328,-1141.47915l-3.08925,-1141.47915l-71.05283,-98.85611c-54.06194,-75.68671 -67.96358,-108.12387 -61.78507,-135.92715c12.35701,-46.3388 75.68671,-66.41895 111.21312,-37.07104c21.62477,18.53552 24.71403,16.99089 20.08015,-9.26776c-9.26776,-46.3388 -95.76686,-49.42806 -139.01641,-6.17851c-26.25865,26.25865 -30.89253,44.79418 -24.71403,92.6776l7.72313,60.24044l-129.74865,0l-129.74865,0l0,46.3388c0,35.52641 -6.17851,46.3388 -30.89253,46.3388c-23.1694,0 -30.89253,-10.81239 -30.89253,-46.3388c0,-44.79418 0,-44.79418 -103.48999,-49.42806c-103.48999,-4.63388 -105.03462,-6.17851 -112.75775,-50.97268c-15.44627,-78.77596 -3.08925,-98.85611 66.41895,-103.48999l64.87432,-4.63388l40.16029,-146.73954c40.16029,-139.01641 41.70492,-165.27506 43.24955,-497.36981l1.54463,-352.17489l-208.52461,0l-208.52461,0l0,625.57382c0,614.76144 0,625.57382 -30.89253,625.57382c-30.89253,0 -30.89253,-10.81239 -30.89253,-625.57382l0,-625.57382l-208.52461,0l-208.52461,0l0,305.83609c0,318.19311 4.63388,345.99639 101.94536,670.368c4.63388,18.53552 27.80328,27.80328 72.59746,30.89253l64.87432,4.63388l0,69.5082l0,69.5082l-118.93626,4.63388l-120.48088,4.63388l0,44.79418c0,35.52641 -7.72313,46.3388 -30.89253,46.3388c-24.71403,0 -30.89253,-10.81239 -30.89253,-46.3388l0,-46.3388l-122.02551,0l-123.57014,0l16.99089,-47.88343c13.90164,-40.16029 10.81239,-54.06194 -13.90164,-88.04372c-49.42806,-66.41895 -174.54282,-66.41895 -174.54282,0c0,30.89253 1.54463,30.89253 27.80328,7.72313c54.06194,-49.42806 126.65939,-23.1694 126.65939,43.24955c0,16.99089 -16.99089,57.15119 -38.61567,89.58835l-40.16029,57.15119l140.56103,0c81.86522,0 139.01641,6.17851 139.01641,15.44627c0,9.26776 -61.78507,15.44627 -152.91805,15.44627c-122.02551,0 -156.0073,4.63388 -172.99819,26.25865c-18.53552,20.08015 -23.1694,228.60476 -29.34791,1161.5593c-6.17851,996.28424 -10.81239,1136.84527 -30.89253,1136.84527c-20.08015,0 -24.71403,-132.8379 -30.89253,-1078.14946l-7.72313,-1078.14946l-148.28417,210.06923l-149.82879,210.06923l-47.88343,-64.87432l-46.3388,-64.87432l50.97268,-71.05283c27.80328,-38.61567 100.40074,-140.56103 162.18581,-225.5155l111.21312,-154.46267l-140.56103,-4.63388c-189.98909,-6.17851 -179.1767,-33.98179 13.90164,-33.98179c142.10566,0 156.0073,-3.08925 177.63207,-33.98179c13.90164,-18.53552 24.71403,-49.42806 23.1694,-66.41895c0,-29.34791 -1.54463,-29.34791 -24.71403,4.63388c-23.1694,32.43716 -33.98179,33.98179 -206.97998,33.98179l-183.81058,0l0,293.47908c0,291.93445 0,295.0237 40.16029,355.26415c38.61567,58.69582 40.16029,63.3297 15.44627,100.40074c-13.90164,21.62477 -32.43716,38.61567 -40.16029,38.61567c-9.26776,0 -16.99089,302.74684 -18.53552,815.56291c-4.63388,712.07292 -7.72313,814.01829 -27.80328,814.01829c-20.08015,0 -24.71403,-106.57924 -30.89253,-834.09843l-7.72313,-834.09843l-200.80147,-279.57744l-200.80147,-279.57744l-7.72313,1113.67587c-6.17851,976.20409 -10.81239,1113.67587 -30.89253,1113.67587c-20.08015,0 -24.71403,-143.65029 -30.89253,-1166.19318l-7.72313,-1166.19318l-50.97268,-74.14208c-63.3297,-91.13298 -58.69582,-145.19491 12.35701,-160.64118c60.24044,-10.81239 60.24044,-35.52641 0,-35.52641c-61.78507,0 -100.40074,57.15119 -88.04372,131.29327l9.26776,54.06194l-146.73954,0l-145.19491,0l-3.08925,1209.44273c-4.63388,1061.15856 -7.72313,1207.8981 -27.80328,1207.8981c-20.08015,0 -23.1694,-146.73954 -27.80328,-1207.8981l-3.08925,-1207.8981l-89.58835,-4.63388c-83.40984,-4.63388 -88.04372,-6.17851 -95.76686,-50.97268c-15.44627,-78.77596 -3.08925,-98.85611 66.41895,-103.48999l61.78507,-4.63388l29.34791,-100.40074c23.1694,-84.95447 27.80328,-159.09655 27.80328,-497.36981l0,-398.5137l-162.18581,0l-162.18581,0l3.08925,1805.66864l4.63388,1807.21327l46.3388,47.88343c24.71403,26.25865 66.41895,54.06194 92.6776,60.24044c66.41895,20.08015 5128.16073,21.62477 5199.21356,1.54463zm-1190.90721,-2293.77069l0,-270.30968l-174.54282,0l-174.54282,0l-29.34791,-49.42806c-23.1694,-40.16029 -30.89253,-44.79418 -35.52641,-23.1694c-3.08925,13.90164 9.26776,50.97268 27.80328,80.32059l33.98179,54.06194l145.19491,0c180.72133,0 194.62297,27.80328 16.99089,33.98179l-129.74865,4.63388l156.0073,219.337c86.4991,120.48088 157.55193,220.88162 160.64118,220.88162c1.54463,0 3.08925,-122.02551 3.08925,-270.30968zm222.42625,38.61567l149.82879,-208.52461l-123.57014,-4.63388c-171.45357,-6.17851 -159.09655,-33.98179 13.90164,-33.98179l137.47178,0l40.16029,-57.15119c21.62477,-32.43716 38.61567,-72.59746 38.61567,-89.58835c0,-23.1694 -9.26776,-18.53552 -41.70492,27.80328l-40.16029,57.15119l-168.36431,0l-166.81969,0l0,265.6758c0,145.19491 3.08925,261.04192 6.17851,257.95266c3.08925,-3.08925 72.59746,-100.40074 154.46267,-214.70312zm-3095.43196,-61.78507l0,-247.14028l-157.55193,0l-159.09655,0l-49.42806,-72.59746c-40.16029,-57.15119 -50.97268,-66.41895 -50.97268,-38.61567c0,18.53552 21.62477,64.87432 49.42806,103.48999l49.42806,69.5082l128.20402,0c159.09655,0 171.45357,27.80328 13.90164,33.98179l-112.75775,4.63388l140.56103,197.71222c77.23134,108.12387 142.10566,196.16759 143.65029,196.16759c3.08925,0 4.63388,-111.21312 4.63388,-247.14028zm-478.83429,-321.28236c0,-37.07104 -12.35701,-49.42806 -40.16029,-38.61567c-33.98179,12.35701 -26.25865,66.41895 9.26776,66.41895c20.08015,0 30.89253,-10.81239 30.89253,-27.80328zm1136.84527,10.81239c4.63388,-9.26776 0,-26.25865 -10.81239,-38.61567c-27.80328,-26.25865 -67.96358,-3.08925 -55.60656,30.89253c10.81239,27.80328 50.97268,32.43716 66.41895,7.72313zm1705.26791,-13.90164c0,-20.08015 -10.81239,-30.89253 -30.89253,-30.89253c-20.08015,0 -30.89253,10.81239 -30.89253,30.89253c0,20.08015 10.81239,30.89253 30.89253,30.89253c20.08015,0 30.89253,-10.81239 30.89253,-30.89253zm1136.84527,13.90164c4.63388,-9.26776 0,-26.25865 -10.81239,-38.61567c-27.80328,-26.25865 -67.96358,-3.08925 -55.60656,30.89253c10.81239,27.80328 50.97268,32.43716 66.41895,7.72313zm-4059.27904,-295.0237c37.07104,-47.88343 80.32059,-256.40804 78.77596,-392.33519l0,-137.47178l-71.05283,251.77416c-38.61567,137.47178 -66.41895,261.04192 -60.24044,273.39893c10.81239,27.80328 30.89253,29.34791 52.51731,4.63388zm420.13847,-15.44627c10.81239,-30.89253 77.23134,-593.13666 77.23134,-664.18949c0,-18.53552 -12.35701,-27.80328 -35.52641,-27.80328c-35.52641,0 -35.52641,6.17851 -71.05283,338.27325c-20.08015,186.89983 -32.43716,349.08564 -27.80328,362.98728c13.90164,35.52641 40.16029,30.89253 57.15119,-9.26776zm444.8525,15.44627c10.81239,-13.90164 4.63388,-122.02551 -21.62477,-344.45176c-20.08015,-177.63207 -35.52641,-333.63937 -37.07104,-342.90713c0,-18.53552 -77.23134,-30.89253 -77.23134,-12.35701c0,41.70492 80.32059,693.5374 86.4991,704.34979c10.81239,20.08015 30.89253,16.99089 49.42806,-4.63388zm417.04922,0c10.81239,-13.90164 -13.90164,-122.02551 -80.32059,-359.89803l-94.22223,-339.81788l-4.63388,125.11476c-3.08925,105.03462 4.63388,157.55193 50.97268,324.37161c75.68671,276.48818 88.04372,299.65759 128.20402,250.22953zm1560.07299,0c7.72313,-10.81239 37.07104,-98.85611 63.3297,-196.16759c40.16029,-145.19491 47.88343,-197.71222 44.79418,-305.83609l-4.63388,-129.74865l-83.40984,302.74684c-44.79418,165.27506 -77.23134,312.0146 -72.59746,324.37161c10.81239,27.80328 30.89253,29.34791 52.51731,4.63388zm415.50459,0c10.81239,-18.53552 78.77596,-569.96726 80.32059,-664.18949c1.54463,-35.52641 -4.63388,-43.24955 -33.98179,-43.24955c-35.52641,0 -35.52641,6.17851 -71.05283,338.27325c-20.08015,186.89983 -32.43716,349.08564 -27.80328,362.98728c12.35701,29.34791 35.52641,32.43716 52.51731,6.17851zm449.48638,0c10.81239,-13.90164 4.63388,-122.02551 -21.62477,-344.45176c-20.08015,-177.63207 -35.52641,-333.63937 -37.07104,-342.90713c0,-18.53552 -77.23134,-30.89253 -77.23134,-12.35701c0,41.70492 80.32059,693.5374 86.4991,704.34979c10.81239,20.08015 30.89253,16.99089 49.42806,-4.63388zm417.04922,0c9.26776,-13.90164 -10.81239,-109.6685 -67.96358,-313.55923l-81.86522,-293.47908l0,135.92715c-1.54463,100.40074 9.26776,172.99819 37.07104,278.03281c58.69582,213.15849 74.14208,239.41714 112.75775,193.07834zm-4385.19528,-492.73593l58.69582,-206.97998l-35.52641,-4.63388c-50.97268,-6.17851 -46.3388,-30.89253 4.63388,-37.07104c26.25865,-3.08925 44.79418,-15.44627 47.88343,-30.89253c4.63388,-23.1694 -6.17851,-27.80328 -72.59746,-27.80328l-78.77596,0l1.54463,274.94356c0,149.82879 4.63388,265.6758 7.72313,256.40804c4.63388,-9.26776 33.98179,-109.6685 66.41895,-223.97088zm4650.87107,-67.96358l0,-239.41714l-69.5082,0c-38.61567,0 -69.5082,3.08925 -69.5082,6.17851c0,27.80328 23.1694,55.60656 47.88343,55.60656c15.44627,0 29.34791,7.72313 29.34791,15.44627c0,9.26776 -10.81239,15.44627 -23.1694,15.44627c-12.35701,0 -23.1694,4.63388 -23.1694,10.81239c0,16.99089 98.85611,375.34429 103.48999,375.34429c3.08925,0 4.63388,-108.12387 4.63388,-239.41714zm-1771.68686,-143.65029c-30.89253,-7.72313 -24.71403,-29.34791 10.81239,-38.61567c16.99089,-4.63388 30.89253,-18.53552 30.89253,-32.43716c0,-18.53552 -15.44627,-24.71403 -61.78507,-24.71403l-61.78507,0l1.54463,228.60476l0,227.06013l50.97268,-177.63207c38.61567,-137.47178 46.3388,-179.1767 29.34791,-182.26595zm-1101.31886,89.58835l0,-185.35521l-54.06194,0c-58.69582,0 -67.96358,15.44627 -29.34791,52.51731c12.35701,13.90164 20.08015,30.89253 13.90164,40.16029c-7.72313,12.35701 54.06194,278.03281 64.87432,278.03281c3.08925,0 4.63388,-83.40984 4.63388,-185.35521zm-1323.7451,-101.94536c-4.63388,-12.35701 -16.99089,-21.62477 -29.34791,-21.62477c-16.99089,0 -21.62477,27.80328 -20.08015,120.48088l1.54463,118.93626l27.80328,-97.31148c15.44627,-54.06194 24.71403,-108.12387 20.08015,-120.48088zm3717.91653,52.51731c0,-58.69582 -4.63388,-75.68671 -16.99089,-63.3297c-15.44627,15.44627 -6.17851,143.65029 10.81239,143.65029c3.08925,0 6.17851,-35.52641 6.17851,-80.32059zm-878.89261,-63.3297c-12.35701,-12.35701 -16.99089,3.08925 -15.44627,52.51731l1.54463,67.96358l15.44627,-52.51731c9.26776,-35.52641 9.26776,-57.15119 -1.54463,-67.96358zm-2951.78167,-746.05471l0,-407.78146l-55.60656,-77.23134c-67.96358,-94.22223 -64.87432,-149.82879 9.26776,-165.27506c55.60656,-10.81239 61.78507,-35.52641 7.72313,-35.52641c-63.3297,0 -105.03462,54.06194 -95.76686,125.11476l7.72313,60.24044l-145.19491,0l-145.19491,0l0,455.66488l0,454.12026l166.81969,4.63388c91.13298,3.08925 183.81058,1.54463 208.52461,-1.54463l41.70492,-4.63388l0,-407.78146zm478.83429,336.72863c0,-67.96358 -12.35701,-89.58835 -208.52461,-364.53191l-208.52461,-291.93445l0,364.53191l0,364.53191l197.71222,4.63388c108.12387,3.08925 200.80147,3.08925 208.52461,0c6.17851,-3.08925 10.81239,-37.07104 10.81239,-77.23134zm475.74503,-251.77416c1.54463,-180.72133 0,-324.37161 -4.63388,-319.73773c-4.63388,3.08925 -72.59746,98.85611 -152.91805,211.61386l-145.19491,202.3461l-46.3388,-63.3297l-47.88343,-63.3297l132.8379,-186.89983c72.59746,-103.48999 142.10566,-199.25685 154.46267,-213.15849c41.70492,-49.42806 23.1694,-58.69582 -114.30238,-64.87432l-135.92715,-4.63388l149.82879,-3.08925c140.56103,-3.08925 151.37342,-4.63388 180.72133,-43.24955c18.53552,-23.1694 32.43716,-55.60656 30.89253,-74.14208c0,-32.43716 0,-32.43716 -24.71403,3.08925c-23.1694,32.43716 -33.98179,33.98179 -206.97998,33.98179l-183.81058,0l0,295.0237c0,261.04192 3.08925,299.65759 27.80328,335.184c50.97268,72.59746 52.51731,94.22223 10.81239,135.92715c-33.98179,33.98179 -54.06194,125.11476 -32.43716,146.73954c3.08925,3.08925 95.76686,4.63388 205.43535,3.08925l197.71222,-3.08925l4.63388,-327.46087zm481.92354,-122.02551l0,-463.38802l-123.57014,0l-123.57014,0l15.44627,-38.61567c26.25865,-67.96358 -23.1694,-146.73954 -94.22223,-146.73954c-63.3297,0 -91.13298,15.44627 -91.13298,50.97268c0,29.34791 1.54463,29.34791 27.80328,6.17851c33.98179,-30.89253 81.86522,-33.98179 108.12387,-7.72313c29.34791,29.34791 21.62477,88.04372 -20.08015,142.10566c-21.62477,27.80328 -38.61567,55.60656 -38.61567,60.24044c0,4.63388 64.87432,12.35701 143.65029,15.44627l142.10566,4.63388l-156.0073,3.08925c-217.79237,4.63388 -206.97998,-20.08015 -206.97998,458.75414l0,378.43355l208.52461,0l208.52461,0l0,-463.38802zm478.83429,-586.95816l0,-1050.34617l-208.52461,0l-208.52461,0l0,318.19311c0,341.36251 -6.17851,301.20221 101.94536,673.45725c4.63388,18.53552 27.80328,27.80328 72.59746,30.89253l64.87432,4.63388l0,69.5082l0,69.5082l-118.93626,4.63388l-120.48088,4.63388l0,461.84339l0,463.38802l208.52461,0l208.52461,0l0,-1050.34617zm478.83429,586.95816l0,-461.84339l-103.48999,-4.63388l-105.03462,-4.63388l-4.63388,-72.59746l-4.63388,-72.59746l64.87432,-4.63388l66.41895,-4.63388l41.70492,-146.73954c41.70492,-140.56103 43.24955,-160.64118 43.24955,-505.09294l1.54463,-359.89803l-208.52461,0l-208.52461,0l0,1050.34617l0,1050.34617l208.52461,0l208.52461,0l0,-463.38802zm478.83429,67.96358l0,-395.42444l-71.05283,-100.40074c-54.06194,-75.68671 -67.96358,-108.12387 -61.78507,-135.92715c12.35701,-46.3388 75.68671,-66.41895 111.21312,-37.07104c21.62477,18.53552 24.71403,16.99089 20.08015,-9.26776c-9.26776,-46.3388 -95.76686,-49.42806 -139.01641,-6.17851c-26.25865,26.25865 -30.89253,44.79418 -24.71403,92.6776l7.72313,60.24044l-129.74865,0l-129.74865,0l0,461.84339l0,461.84339l208.52461,1.54463l208.52461,3.08925l0,-396.96907zm478.83429,335.184c0,-52.51731 -26.25865,-95.76686 -202.3461,-342.90713c-111.21312,-156.0073 -205.43535,-287.30057 -208.52461,-290.38982c-3.08925,-3.08925 -6.17851,151.37342 -6.17851,342.90713l0,350.63027l208.52461,0l208.52461,0l0,-60.24044zm478.83429,-298.11296c0,-196.16759 -3.08925,-353.71952 -6.17851,-350.63027c-3.08925,3.08925 -78.77596,108.12387 -168.36431,233.23864l-162.18581,228.60476l-38.61567,-50.97268c-30.89253,-37.07104 -40.16029,-43.24955 -41.70492,-21.62477c0,15.44627 10.81239,44.79418 24.71403,64.87432c23.1694,35.52641 23.1694,41.70492 0,77.23134c-13.90164,20.08015 -24.71403,69.5082 -24.71403,108.12387l0,69.5082l208.52461,0l208.52461,0l0,-358.3534zm478.83429,-105.03462l0,-463.38802l-139.01641,0l-139.01641,0l15.44627,-38.61567c27.80328,-72.59746 -24.71403,-146.73954 -103.48999,-146.73954c-32.43716,0 -50.97268,7.72313 -50.97268,21.62477c0,13.90164 12.35701,18.53552 38.61567,12.35701c21.62477,-3.08925 49.42806,1.54463 61.78507,12.35701c38.61567,32.43716 26.25865,89.58835 -38.61567,176.08745l-61.78507,81.86522l0,403.14758l0,404.6922l208.52461,0l208.52461,0l0,-463.38802zm386.15668,-586.95816l0,-1050.34617l-162.18581,0l-162.18581,0l0,367.62116c0,372.25504 3.08925,395.42444 71.05283,624.0292c4.63388,18.53552 27.80328,27.80328 72.59746,30.89253l64.87432,4.63388l0,69.5082l0,69.5082l-103.48999,4.63388l-105.03462,4.63388l0,461.84339l0,463.38802l162.18581,0l162.18581,0l0,-1050.34617zm-5174.49953,579.23502l0,-454.12026l-88.04372,-4.63388l-89.58835,-4.63388l-4.63388,-72.59746l-4.63388,-72.59746l64.87432,-4.63388l64.87432,-4.63388l29.34791,-100.40074c23.1694,-84.95447 27.80328,-159.09655 27.80328,-505.09294l0,-406.23683l-162.18581,0l-162.18581,0l0,1042.62304l0,1042.62304l162.18581,0l162.18581,0l0,-455.66488zm3830.67428,-185.35521l0,-270.30968l-172.99819,0l-174.54282,0l-33.98179,-50.97268c-46.3388,-64.87432 -49.42806,-13.90164 -3.08925,60.24044c37.07104,60.24044 55.60656,66.41895 214.70312,72.59746l115.847,4.63388l-128.20402,3.08925c-88.04372,1.54463 -126.65939,9.26776 -123.57014,20.08015c6.17851,18.53552 295.0237,429.40623 302.74684,430.95086c1.54463,0 3.08925,-122.02551 3.08925,-270.30968zm236.32789,18.53552c66.41895,-91.13298 118.93626,-172.99819 118.93626,-180.72133c0,-7.72313 -54.06194,-16.99089 -118.93626,-20.08015l-120.48088,-4.63388l134.38253,-3.08925l135.92715,-3.08925l46.3388,-64.87432c24.71403,-33.98179 46.3388,-77.23134 46.3388,-95.76686c0,-26.25865 -7.72313,-21.62477 -41.70492,26.25865l-40.16029,57.15119l-168.36431,0l-166.81969,0l0,264.13117c0,305.83609 -21.62477,302.74684 174.54282,24.71403zm-3109.3336,-41.70492l0,-247.14028l-157.55193,0l-159.09655,0l-49.42806,-72.59746c-41.70492,-60.24044 -50.97268,-66.41895 -50.97268,-37.07104c0,29.34791 40.16029,98.85611 95.76686,163.73043c7.72313,9.26776 71.05283,20.08015 140.56103,24.71403l126.65939,9.26776l-114.30238,1.54463c-84.95447,3.08925 -111.21312,7.72313 -105.03462,23.1694c7.72313,20.08015 262.58654,381.5228 270.30968,381.5228c1.54463,0 3.08925,-111.21312 3.08925,-247.14028zm-478.83429,-324.37161c0,-20.08015 -10.81239,-30.89253 -30.89253,-30.89253c-20.08015,0 -30.89253,10.81239 -30.89253,30.89253c0,20.08015 10.81239,30.89253 30.89253,30.89253c20.08015,0 30.89253,-10.81239 30.89253,-30.89253zm1135.30064,0c0,-12.35701 -15.44627,-24.71403 -33.98179,-27.80328c-33.98179,-4.63388 -49.42806,24.71403 -24.71403,49.42806c18.53552,16.99089 58.69582,3.08925 58.69582,-21.62477zm1706.81253,0c0,-20.08015 -10.81239,-30.89253 -30.89253,-30.89253c-20.08015,0 -30.89253,10.81239 -30.89253,30.89253c0,20.08015 10.81239,30.89253 30.89253,30.89253c20.08015,0 30.89253,-10.81239 30.89253,-30.89253zm1135.30064,15.44627c13.90164,-23.1694 -21.62477,-61.78507 -47.88343,-50.97268c-33.98179,12.35701 -27.80328,66.41895 7.72313,66.41895c16.99089,0 35.52641,-7.72313 40.16029,-15.44627zm-4022.208,-381.5228c23.1694,-74.14208 33.98179,-156.0073 38.61567,-274.94356l6.17851,-169.90894l-71.05283,250.22953c-40.16029,137.47178 -67.96358,261.04192 -61.78507,274.94356c20.08015,52.51731 54.06194,21.62477 88.04372,-80.32059zm384.61205,69.5082c10.81239,-30.89253 77.23134,-593.13666 77.23134,-664.18949c0,-18.53552 -12.35701,-27.80328 -35.52641,-27.80328c-35.52641,0 -35.52641,6.17851 -71.05283,338.27325c-20.08015,186.89983 -32.43716,349.08564 -27.80328,362.98728c13.90164,35.52641 40.16029,30.89253 57.15119,-9.26776zm452.57563,12.35701c4.63388,-12.35701 -7.72313,-166.81969 -29.34791,-342.90713c-20.08015,-177.63207 -37.07104,-332.09475 -37.07104,-341.36251c0,-10.81239 -16.99089,-20.08015 -38.61567,-20.08015c-21.62477,0 -38.61567,3.08925 -38.61567,7.72313c0,41.70492 80.32059,693.5374 86.4991,704.34979c12.35701,21.62477 47.88343,16.99089 57.15119,-7.72313zm409.32608,3.08925c10.81239,-13.90164 -13.90164,-125.11476 -83.40984,-367.62116l-97.31148,-347.54101l0,135.92715c-1.54463,108.12387 9.26776,171.45357 52.51731,332.09475c75.68671,273.39893 88.04372,295.0237 128.20402,247.14028zm1592.51016,-84.95447c77.23134,-264.13117 80.32059,-279.57744 75.68671,-412.41534l-4.63388,-134.38253l-83.40984,302.74684c-44.79418,165.27506 -77.23134,312.0146 -72.59746,324.37161c20.08015,54.06194 55.60656,21.62477 84.95447,-80.32059zm387.70131,69.5082c12.35701,-30.89253 77.23134,-590.04741 77.23134,-665.73412c0,-16.99089 -12.35701,-26.25865 -35.52641,-26.25865c-35.52641,0 -35.52641,6.17851 -71.05283,338.27325c-20.08015,186.89983 -32.43716,349.08564 -27.80328,362.98728c13.90164,35.52641 40.16029,30.89253 57.15119,-9.26776zm452.57563,12.35701c4.63388,-12.35701 -7.72313,-166.81969 -29.34791,-342.90713c-20.08015,-177.63207 -37.07104,-332.09475 -37.07104,-341.36251c0,-10.81239 -16.99089,-20.08015 -38.61567,-20.08015c-21.62477,0 -38.61567,3.08925 -38.61567,7.72313c0,41.70492 80.32059,693.5374 86.4991,704.34979c12.35701,21.62477 47.88343,16.99089 57.15119,-7.72313zm409.32608,3.08925c10.81239,-13.90164 -9.26776,-108.12387 -64.87432,-305.83609l-78.77596,-285.75594l-4.63388,123.57014c-3.08925,95.76686 4.63388,157.55193 37.07104,278.03281c57.15119,210.06923 72.59746,236.32789 111.21312,189.98909zm-4363.5705,-704.34979c-49.42806,-7.72313 -44.79418,-30.89253 7.72313,-37.07104c29.34791,-3.08925 43.24955,-13.90164 46.3388,-38.61567c4.63388,-32.43716 0,-35.52641 -72.59746,-35.52641l-78.77596,0l1.54463,290.38982l0,288.8452l66.41895,-231.69401l66.41895,-231.69401l-37.07104,-4.63388zm4629.2463,135.92715l0,-247.14028l-69.5082,0c-38.61567,0 -69.5082,6.17851 -69.5082,13.90164c0,35.52641 21.62477,63.3297 47.88343,63.3297c15.44627,0 29.34791,7.72313 29.34791,15.44627c0,9.26776 -10.81239,15.44627 -23.1694,15.44627c-12.35701,0 -23.1694,4.63388 -23.1694,12.35701c0,15.44627 98.85611,373.79967 105.03462,373.79967c1.54463,0 3.08925,-111.21312 3.08925,-247.14028zm-1771.68686,-135.92715c-30.89253,-7.72313 -24.71403,-29.34791 10.81239,-38.61567c18.53552,-4.63388 30.89253,-21.62477 30.89253,-40.16029c0,-27.80328 -9.26776,-32.43716 -61.78507,-32.43716l-61.78507,0l1.54463,236.32789l0,234.78326l50.97268,-177.63207c38.61567,-137.47178 46.3388,-179.1767 29.34791,-182.26595zm-1101.31886,81.86522l0,-193.07834l-54.06194,0c-60.24044,0 -71.05283,26.25865 -29.34791,67.96358c12.35701,13.90164 20.08015,30.89253 13.90164,38.61567c-7.72313,13.90164 54.06194,279.57744 64.87432,279.57744c3.08925,0 4.63388,-86.4991 4.63388,-193.07834zm-1323.7451,-94.22223c-4.63388,-12.35701 -16.99089,-21.62477 -29.34791,-21.62477c-16.99089,0 -21.62477,27.80328 -20.08015,120.48088l1.54463,118.93626l27.80328,-97.31148c15.44627,-54.06194 24.71403,-108.12387 20.08015,-120.48088zm3717.91653,52.51731c0,-58.69582 -4.63388,-75.68671 -16.99089,-63.3297c-15.44627,15.44627 -6.17851,143.65029 10.81239,143.65029c3.08925,0 6.17851,-35.52641 6.17851,-80.32059zm-878.89261,-63.3297c-12.35701,-12.35701 -16.99089,3.08925 -15.44627,52.51731l1.54463,67.96358l15.44627,-52.51731c9.26776,-35.52641 9.26776,-57.15119 -1.54463,-67.96358zm-3430.61596,-798.57202l0,-461.84339l-88.04372,-4.63388l-89.58835,-4.63388l-4.63388,-72.59746l-4.63388,-72.59746l64.87432,-4.63388c61.78507,-4.63388 66.41895,-7.72313 88.04372,-74.14208c16.99089,-50.97268 26.25865,-169.90894 32.43716,-455.66488c7.72313,-329.00549 12.35701,-386.15668 32.43716,-386.15668c20.08015,0 24.71403,38.61567 27.80328,239.41714l4.63388,239.41714l91.13298,-316.64848l89.58835,-316.64848l-265.6758,-7.72313c-145.19491,-4.63388 -274.94356,-13.90164 -287.30057,-20.08015c-20.08015,-9.26776 -23.1694,114.30238 -18.53552,1085.87259l3.08925,1096.68498l162.18581,0l162.18581,0l0,-463.38802zm478.83429,44.79418l0,-418.59384l-57.15119,-77.23134c-47.88343,-66.41895 -54.06194,-83.40984 -41.70492,-117.39163c10.81239,-29.34791 27.80328,-43.24955 57.15119,-46.3388c24.71403,-3.08925 40.16029,-12.35701 37.07104,-23.1694c-9.26776,-26.25865 -72.59746,-15.44627 -108.12387,16.99089c-23.1694,20.08015 -27.80328,40.16029 -21.62477,91.13298l7.72313,66.41895l-145.19491,0l-145.19491,0l0,463.38802l0,463.38802l208.52461,0l208.52461,0l0,-418.59384zm478.83429,335.184c0,-80.32059 -3.08925,-86.4991 -202.3461,-366.07653c-111.21312,-156.0073 -205.43535,-287.30057 -208.52461,-290.38982c-3.08925,-3.08925 -6.17851,160.64118 -6.17851,366.07653l0,373.79967l208.52461,0l208.52461,0l0,-83.40984zm478.83429,-251.77416c-1.54463,-305.83609 -3.08925,-333.63937 -24.71403,-305.83609c-12.35701,16.99089 -78.77596,109.6685 -148.28417,205.43535c-67.96358,94.22223 -128.20402,172.99819 -134.38253,172.99819c-7.72313,0 -30.89253,-26.25865 -50.97268,-58.69582l-38.61567,-58.69582l143.65029,-199.25685c78.77596,-111.21312 143.65029,-205.43535 145.19491,-211.61386c0,-7.72313 -55.60656,-12.35701 -123.57014,-12.35701c-72.59746,0 -123.57014,-6.17851 -123.57014,-15.44627c0,-9.26776 58.69582,-15.44627 143.65029,-15.44627l142.10566,0l35.52641,-54.06194c40.16029,-63.3297 47.88343,-131.29327 7.72313,-72.59746c-23.1694,32.43716 -33.98179,33.98179 -206.97998,33.98179l-183.81058,0l0,293.47908c0,291.93445 0,295.0237 40.16029,355.26415c38.61567,58.69582 40.16029,63.3297 15.44627,100.40074c-13.90164,21.62477 -32.43716,38.61567 -40.16029,38.61567c-9.26776,0 -15.44627,30.89253 -15.44627,69.5082l0,69.5082l208.52461,0l208.52461,0l0,-335.184zm478.83429,-128.20402l0,-463.38802l-114.30238,0l-115.847,0l3.08925,-60.24044c3.08925,-95.76686 -63.3297,-151.37342 -146.73954,-122.02551c-27.80328,10.81239 -43.24955,26.25865 -43.24955,47.88343c0,29.34791 1.54463,29.34791 27.80328,6.17851c52.51731,-47.88343 126.65939,-23.1694 126.65939,41.70492c0,16.99089 -33.98179,80.32059 -77.23134,142.10566l-77.23134,111.21312l0,379.97817l0,379.97817l208.52461,0l208.52461,0l0,-463.38802zm481.92354,-535.98547c4.63388,-877.34798 7.72313,-1000.91812 27.80328,-1000.91812c20.08015,0 23.1694,123.57014 27.80328,1000.91812l3.08925,999.37349l208.52461,0l208.52461,0l0,-463.38802l0,-461.84339l-103.48999,-4.63388l-105.03462,-4.63388l-4.63388,-72.59746l-4.63388,-72.59746l64.87432,-4.63388l64.87432,-4.63388l38.61567,-123.57014c33.98179,-109.6685 40.16029,-160.64118 47.88343,-455.66488c7.72313,-281.12206 12.35701,-332.09475 32.43716,-332.09475c18.53552,0 24.71403,33.98179 30.89253,177.63207l7.72313,177.63207l67.96358,-237.87252c37.07104,-131.29327 69.5082,-248.6849 74.14208,-259.49729c6.17851,-16.99089 -114.30238,-20.08015 -642.56472,-20.08015c-509.72682,0 -650.28785,4.63388 -650.28785,20.08015c1.54463,9.26776 27.80328,112.75775 61.78507,227.06013l58.69582,208.52461l6.17851,-146.73954c3.08925,-117.39163 9.26776,-146.73954 27.80328,-146.73954c20.08015,0 24.71403,46.3388 32.43716,293.47908c9.26776,270.30968 12.35701,305.83609 57.15119,452.57563c27.80328,86.4991 49.42806,160.64118 49.42806,165.27506c0,3.08925 29.34791,7.72313 66.41895,10.81239c63.3297,4.63388 64.87432,6.17851 69.5082,64.87432c6.17851,75.68671 -9.26776,86.4991 -139.01641,86.4991l-105.03462,0l0,463.38802l0,463.38802l208.52461,0l208.52461,0l3.08925,-999.37349zm954.57932,603.94905l0,-395.42444l-69.5082,-98.85611c-38.61567,-52.51731 -69.5082,-106.57924 -69.5082,-120.48088c0,-41.70492 47.88343,-74.14208 95.76686,-64.87432c52.51731,10.81239 61.78507,-27.80328 10.81239,-41.70492c-81.86522,-21.62477 -145.19491,40.16029 -132.8379,128.20402l7.72313,61.78507l-129.74865,0l-129.74865,0l0,463.38802l0,463.38802l208.52461,0l208.52461,0l0,-395.42444zm478.83429,324.37161c0,-41.70492 -9.26776,-78.77596 -21.62477,-89.58835c-10.81239,-9.26776 -98.85611,-128.20402 -194.62297,-264.13117c-95.76686,-135.92715 -180.72133,-253.31878 -188.44446,-261.04192c-6.17851,-9.26776 -12.35701,142.10566 -12.35701,335.184l0,350.63027l208.52461,0l208.52461,0l0,-71.05283zm478.83429,-285.75594l0,-358.3534l-50.97268,67.96358c-27.80328,37.07104 -101.94536,139.01641 -163.73043,227.06013c-60.24044,86.4991 -117.39163,157.55193 -123.57014,157.55193c-7.72313,0 -27.80328,-23.1694 -46.3388,-49.42806c-29.34791,-46.3388 -32.43716,-47.88343 -32.43716,-15.44627c0,18.53552 10.81239,52.51731 24.71403,72.59746c23.1694,35.52641 23.1694,41.70492 0,77.23134c-13.90164,20.08015 -24.71403,69.5082 -24.71403,108.12387l0,69.5082l208.52461,0l208.52461,0l0,-356.80877zm478.83429,-106.57924l0,-463.38802l-129.74865,0l-131.29327,0l3.08925,-61.78507c3.08925,-86.4991 -44.79418,-131.29327 -131.29327,-125.11476c-15.44627,0 -27.80328,10.81239 -27.80328,23.1694c0,13.90164 12.35701,18.53552 38.61567,12.35701c47.88343,-7.72313 84.95447,20.08015 84.95447,66.41895c0,18.53552 -27.80328,72.59746 -61.78507,120.48088l-61.78507,84.95447l0,403.14758l0,403.14758l208.52461,0l208.52461,0l0,-463.38802zm386.15668,-617.85069l0,-1081.23871l-270.30968,0c-206.97998,0 -270.30968,4.63388 -270.30968,20.08015c1.54463,9.26776 35.52641,137.47178 77.23134,281.12206l74.14208,262.58654l6.17851,-200.80147c3.08925,-165.27506 9.26776,-200.80147 27.80328,-200.80147c20.08015,0 24.71403,52.51731 32.43716,347.54101c7.72313,307.38072 12.35701,359.89803 44.79418,458.75414l35.52641,111.21312l63.3297,4.63388c61.78507,4.63388 63.3297,6.17851 67.96358,64.87432c6.17851,74.14208 -9.26776,86.4991 -123.57014,86.4991l-89.58835,0l0,463.38802l0,463.38802l162.18581,0l162.18581,0l0,-1081.23871zm-1343.82525,424.77235l0,-270.30968l-168.36431,0l-169.90894,0l-38.61567,-49.42806c-33.98179,-43.24955 -40.16029,-46.3388 -40.16029,-18.53552c0,16.99089 21.62477,60.24044 47.88343,95.76686l47.88343,64.87432l129.74865,0c162.18581,0 172.99819,27.80328 12.35701,33.98179l-115.847,4.63388l143.65029,203.89073c78.77596,112.75775 145.19491,203.89073 148.28417,205.43535c1.54463,0 3.08925,-122.02551 3.08925,-270.30968zm228.60476,29.34791c61.78507,-86.4991 111.21312,-160.64118 111.21312,-166.81969c0,-4.63388 -47.88343,-9.26776 -108.12387,-9.26776c-61.78507,0 -108.12387,-6.17851 -108.12387,-15.44627c0,-9.26776 52.51731,-15.44627 128.20402,-15.44627l126.65939,-1.54463l50.97268,-75.68671c29.34791,-41.70492 49.42806,-88.04372 46.3388,-103.48999c-3.08925,-21.62477 -13.90164,-15.44627 -40.16029,30.89253l-37.07104,57.15119l-168.36431,0l-168.36431,0l0,264.13117c0,257.95266 0,264.13117 27.80328,228.60476c15.44627,-20.08015 77.23134,-108.12387 139.01641,-193.07834zm-3101.61047,-52.51731l0,-247.14028l-154.46267,0l-152.91805,0l-55.60656,-71.05283c-44.79418,-58.69582 -54.06194,-66.41895 -54.06194,-38.61567c0,18.53552 27.80328,71.05283 61.78507,117.39163l63.3297,84.95447l114.30238,0c142.10566,0 154.46267,27.80328 13.90164,33.98179l-100.40074,4.63388l128.20402,180.72133c71.05283,100.40074 129.74865,182.26595 132.8379,182.26595c1.54463,0 3.08925,-111.21312 3.08925,-247.14028zm-481.92354,-327.46087c-3.08925,-20.08015 -15.44627,-35.52641 -27.80328,-35.52641c-12.35701,0 -24.71403,15.44627 -27.80328,35.52641c-4.63388,26.25865 3.08925,33.98179 27.80328,33.98179c24.71403,0 32.43716,-7.72313 27.80328,-33.98179zm1139.93452,16.99089c15.44627,-26.25865 -35.52641,-71.05283 -57.15119,-49.42806c-10.81239,10.81239 -13.90164,29.34791 -9.26776,41.70492c10.81239,27.80328 50.97268,32.43716 66.41895,7.72313zm1702.17865,-16.99089c-3.08925,-20.08015 -15.44627,-35.52641 -27.80328,-35.52641c-12.35701,0 -24.71403,15.44627 -27.80328,35.52641c-4.63388,26.25865 3.08925,33.98179 27.80328,33.98179c24.71403,0 32.43716,-7.72313 27.80328,-33.98179zm1139.93452,16.99089c4.63388,-9.26776 0,-26.25865 -10.81239,-38.61567c-27.80328,-26.25865 -67.96358,-3.08925 -55.60656,30.89253c10.81239,27.80328 50.97268,32.43716 66.41895,7.72313zm-4059.27904,-295.0237c37.07104,-46.3388 80.32059,-262.58654 78.77596,-395.42444l0,-134.38253l-71.05283,250.22953c-38.61567,137.47178 -66.41895,261.04192 -60.24044,274.94356c10.81239,27.80328 30.89253,29.34791 52.51731,4.63388zm460.29876,-316.64848c46.3388,-393.87982 46.3388,-421.6831 6.17851,-421.6831c-18.53552,0 -32.43716,12.35701 -37.07104,35.52641c-13.90164,58.69582 -71.05283,591.59204 -71.05283,648.74323c0,54.06194 26.25865,80.32059 52.51731,55.60656c9.26776,-7.72313 30.89253,-151.37342 49.42806,-318.19311zm404.6922,315.10385c12.35701,-13.90164 6.17851,-112.75775 -20.08015,-342.90713c-21.62477,-179.1767 -38.61567,-336.72863 -38.61567,-352.17489c0,-32.43716 -41.70492,-52.51731 -63.3297,-30.89253c-15.44627,15.44627 52.51731,701.26053 72.59746,732.15307c10.81239,20.08015 30.89253,16.99089 49.42806,-6.17851zm417.04922,-23.1694c4.63388,-24.71403 -78.77596,-344.45176 -176.08745,-685.81427c-7.72313,-27.80328 -67.96358,-40.16029 -67.96358,-13.90164c0,7.72313 12.35701,12.35701 27.80328,10.81239c23.1694,-1.54463 27.80328,18.53552 35.52641,160.64118c7.72313,115.847 26.25865,216.24774 64.87432,350.63027c29.34791,103.48999 58.69582,194.62297 64.87432,205.43535c15.44627,26.25865 46.3388,9.26776 50.97268,-27.80328zm1560.07299,24.71403c7.72313,-10.81239 37.07104,-100.40074 63.3297,-197.71222c40.16029,-146.73954 47.88343,-200.80147 44.79418,-305.83609l-4.63388,-128.20402l-83.40984,301.20221c-44.79418,166.81969 -78.77596,312.0146 -72.59746,325.91624c10.81239,27.80328 30.89253,29.34791 52.51731,4.63388zm460.29876,-316.64848c46.3388,-393.87982 46.3388,-421.6831 6.17851,-421.6831c-18.53552,0 -32.43716,12.35701 -37.07104,35.52641c-12.35701,57.15119 -71.05283,602.40442 -71.05283,654.92173c0,49.42806 26.25865,74.14208 52.51731,49.42806c9.26776,-7.72313 30.89253,-151.37342 49.42806,-318.19311zm404.6922,315.10385c12.35701,-13.90164 6.17851,-112.75775 -20.08015,-342.90713c-21.62477,-179.1767 -38.61567,-336.72863 -38.61567,-352.17489c0,-32.43716 -41.70492,-52.51731 -63.3297,-30.89253c-15.44627,15.44627 52.51731,701.26053 72.59746,732.15307c10.81239,20.08015 30.89253,16.99089 49.42806,-6.17851zm417.04922,1.54463c9.26776,-13.90164 -10.81239,-109.6685 -67.96358,-313.55923l-81.86522,-293.47908l0,134.38253c-1.54463,105.03462 9.26776,171.45357 44.79418,298.11296c57.15119,205.43535 66.41895,220.88162 105.03462,174.54282zm-3934.16427,-727.51919c-7.72313,-7.72313 -24.71403,-10.81239 -35.52641,-7.72313c-15.44627,6.17851 -18.53552,38.61567 -13.90164,122.02551l6.17851,114.30238l29.34791,-106.57924c20.08015,-71.05283 24.71403,-111.21312 13.90164,-122.02551zm3739.54131,9.26776c12.35701,-15.44627 7.72313,-20.08015 -16.99089,-20.08015c-35.52641,0 -40.16029,23.1694 -20.08015,109.6685l10.81239,52.51731l4.63388,-61.78507c3.08925,-33.98179 12.35701,-69.5082 21.62477,-80.32059zm-891.24962,0c-3.08925,-10.81239 -18.53552,-20.08015 -33.98179,-20.08015c-20.08015,0 -21.62477,4.63388 -7.72313,18.53552c10.81239,10.81239 18.53552,40.16029 20.08015,66.41895l1.54463,46.3388l13.90164,-46.3388c7.72313,-24.71403 10.81239,-55.60656 6.17851,-64.87432z"/>
   <path stroke="null" id="svg_3" d="m4836.09495,10201.9488c-15.44627,-15.44627 -13.90164,-1177.00557 1.54463,-1186.27333c46.3388,-27.80328 49.42806,20.08015 46.3388,600.8598c-4.63388,559.15488 -9.26776,622.48457 -47.88343,585.41353z"/>
   <path stroke="null" id="svg_4" d="m5314.92923,10201.9488c-6.17851,-6.17851 -10.81239,-274.94356 -10.81239,-596.22592c0,-574.60114 0,-583.8689 30.89253,-583.8689c30.89253,0 30.89253,7.72313 27.80328,590.04741c-4.63388,562.24413 -9.26776,627.11845 -47.88343,590.04741z"/>
   <path stroke="null" id="svg_5" d="m5793.76352,10201.9488c-6.17851,-6.17851 -10.81239,-273.39893 -10.81239,-594.68129c0,-509.72682 3.08925,-583.8689 23.1694,-591.59204c13.90164,-4.63388 27.80328,0 32.43716,10.81239c3.08925,10.81239 4.63388,278.03281 3.08925,596.22592c-4.63388,552.97637 -9.26776,616.30606 -47.88343,579.23502z"/>
   <path stroke="null" id="svg_6" d="m2755.48275,9031.12174c0,-12.35701 78.77596,-20.08015 86.4991,-7.72313c4.63388,7.72313 -13.90164,13.90164 -38.61567,13.90164c-26.25865,0 -47.88343,-3.08925 -47.88343,-6.17851z"/>
   <path stroke="null" id="svg_7" d="m3035.06019,9031.12174c10.81239,-10.81239 276.48818,-13.90164 287.30057,-3.08925c4.63388,4.63388 -58.69582,9.26776 -142.10566,9.26776c-83.40984,0 -148.28417,-3.08925 -145.19491,-6.17851z"/>
   <path stroke="null" id="svg_8" d="m3516.98372,9028.03249c10.81239,-10.81239 276.48818,-7.72313 287.30057,3.08925c3.08925,3.08925 -61.78507,6.17851 -145.19491,6.17851c-83.40984,0 -146.73954,-4.63388 -142.10566,-9.26776z"/>
   <path stroke="null" id="svg_9" d="m4065.32621,9026.48786c44.79418,-3.08925 114.30238,-3.08925 154.46267,0c40.16029,3.08925 3.08925,4.63388 -81.86522,4.63388c-84.95447,0 -117.39163,-1.54463 -72.59746,-4.63388z"/>
   <path stroke="null" id="svg_10" d="m4479.28618,9024.94324c7.72313,-6.17851 77.23134,-7.72313 152.91805,-3.08925l139.01641,10.81239l-152.91805,1.54463c-84.95447,1.54463 -148.28417,-3.08925 -139.01641,-9.26776z"/>
   <path stroke="null" id="svg_11" d="m4953.48658,9028.03249c13.90164,-13.90164 270.30968,-13.90164 284.21132,0c4.63388,4.63388 -58.69582,9.26776 -142.10566,9.26776c-83.40984,0 -146.73954,-4.63388 -142.10566,-9.26776z"/>
   <path stroke="null" id="svg_12" d="m5432.32087,9028.03249c13.90164,-13.90164 270.30968,-13.90164 284.21132,0c4.63388,4.63388 -58.69582,9.26776 -142.10566,9.26776c-83.40984,0 -146.73954,-4.63388 -142.10566,-9.26776z"/>
   <path stroke="null" id="svg_13" d="m6037.81454,9021.85398c77.23134,-4.63388 145.19491,-3.08925 154.46267,3.08925c7.72313,6.17851 -55.60656,10.81239 -139.01641,9.26776l-154.46267,-1.54463l139.01641,-10.81239z"/>
   <path stroke="null" id="svg_14" d="m6459.49764,9026.48786c44.79418,-3.08925 114.30238,-3.08925 154.46267,0c40.16029,3.08925 3.08925,4.63388 -81.86522,4.63388c-84.95447,0 -117.39163,-1.54463 -72.59746,-4.63388z"/>
   <path stroke="null" id="svg_15" d="m6865.73447,9031.12174c10.81239,-10.81239 276.48818,-13.90164 287.30057,-3.08925c4.63388,4.63388 -58.69582,9.26776 -142.10566,9.26776c-83.40984,0 -148.28417,-3.08925 -145.19491,-6.17851z"/>
   <path stroke="null" id="svg_16" d="m7347.65801,9028.03249c10.81239,-10.81239 276.48818,-7.72313 287.30057,3.08925c3.08925,3.08925 -61.78507,6.17851 -145.19491,6.17851c-83.40984,0 -146.73954,-4.63388 -142.10566,-9.26776z"/>
   <path stroke="null" id="svg_17" d="m7841.93856,9026.48786c13.90164,-3.08925 35.52641,-3.08925 46.3388,0c9.26776,4.63388 -1.54463,7.72313 -27.80328,7.72313c-24.71403,0 -33.98179,-3.08925 -18.53552,-7.72313z"/>
   <path stroke="null" id="svg_18" d="m4647.65049,8844.22191l-38.61567,-37.07104l0,-369.16579c0,-350.63027 1.54463,-372.25504 32.43716,-410.87071l30.89253,-40.16029l662.64487,0l662.64487,0l30.89253,40.16029c30.89253,38.61567 32.43716,60.24044 32.43716,410.87071l0,369.16579l-38.61567,37.07104l-37.07104,38.61567l-650.28785,0l-650.28785,0l-37.07104,-38.61567zm106.57924,-46.3388c4.63388,-13.90164 -1.54463,-27.80328 -15.44627,-33.98179c-29.34791,-10.81239 -60.24044,16.99089 -46.3388,40.16029c15.44627,24.71403 50.97268,20.08015 61.78507,-6.17851zm1223.34437,6.17851c13.90164,-23.1694 -16.99089,-50.97268 -46.3388,-40.16029c-13.90164,6.17851 -20.08015,20.08015 -15.44627,33.98179c10.81239,26.25865 46.3388,30.89253 61.78507,6.17851zm-1217.16586,-719.79605c7.72313,-26.25865 -40.16029,-44.79418 -61.78507,-23.1694c-9.26776,9.26776 -10.81239,23.1694 -4.63388,33.98179c13.90164,21.62477 57.15119,13.90164 66.41895,-10.81239zm1220.25511,0c7.72313,-26.25865 -40.16029,-44.79418 -61.78507,-23.1694c-9.26776,9.26776 -10.81239,23.1694 -4.63388,33.98179c13.90164,21.62477 57.15119,13.90164 66.41895,-10.81239z"/>
   <path stroke="null" id="svg_19" d="m2770.92902,7863.38394c0,-7.72313 16.99089,-15.44627 38.61567,-15.44627c21.62477,0 38.61567,7.72313 38.61567,15.44627c0,9.26776 -16.99089,15.44627 -38.61567,15.44627c-21.62477,0 -38.61567,-6.17851 -38.61567,-15.44627z"/>
   <path stroke="null" id="svg_20" d="m3033.51556,7863.38394c0,-9.26776 58.69582,-15.44627 146.73954,-15.44627c88.04372,0 146.73954,6.17851 146.73954,15.44627c0,9.26776 -58.69582,15.44627 -146.73954,15.44627c-88.04372,0 -146.73954,-6.17851 -146.73954,-15.44627z"/>
   <path stroke="null" id="svg_21" d="m4948.8527,7863.38394c0,-9.26776 58.69582,-15.44627 146.73954,-15.44627c88.04372,0 146.73954,6.17851 146.73954,15.44627c0,9.26776 -58.69582,15.44627 -146.73954,15.44627c-88.04372,0 -146.73954,-6.17851 -146.73954,-15.44627z"/>
   <path stroke="null" id="svg_22" d="m5427.68699,7863.38394c0,-9.26776 58.69582,-15.44627 146.73954,-15.44627c88.04372,0 146.73954,6.17851 146.73954,15.44627c0,9.26776 -58.69582,15.44627 -146.73954,15.44627c-88.04372,0 -146.73954,-6.17851 -146.73954,-15.44627z"/>
   <path stroke="null" id="svg_23" d="m5906.52127,7863.38394c0,-9.26776 58.69582,-15.44627 146.73954,-15.44627c88.04372,0 146.73954,6.17851 146.73954,15.44627c0,9.26776 -58.69582,15.44627 -146.73954,15.44627c-88.04372,0 -146.73954,-6.17851 -146.73954,-15.44627z"/>
   <path stroke="null" id="svg_24" d="m7343.02413,7863.38394c0,-9.26776 58.69582,-15.44627 146.73954,-15.44627c88.04372,0 146.73954,6.17851 146.73954,15.44627c0,9.26776 -58.69582,15.44627 -146.73954,15.44627c-88.04372,0 -146.73954,-6.17851 -146.73954,-15.44627z"/>
   <path stroke="null" id="svg_25" d="m7821.85841,7863.38394c0,-7.72313 16.99089,-15.44627 38.61567,-15.44627c21.62477,0 38.61567,7.72313 38.61567,15.44627c0,9.26776 -16.99089,15.44627 -38.61567,15.44627c-21.62477,0 -38.61567,-6.17851 -38.61567,-15.44627z"/>
   <path stroke="null" id="svg_26" d="m2763.20588,6704.91389c-6.17851,-9.26776 10.81239,-15.44627 37.07104,-15.44627c26.25865,0 47.88343,7.72313 47.88343,15.44627c0,9.26776 -16.99089,15.44627 -37.07104,15.44627c-21.62477,0 -43.24955,-6.17851 -47.88343,-15.44627z"/>
   <path stroke="null" id="svg_27" d="m4948.8527,6704.91389c0,-9.26776 58.69582,-15.44627 146.73954,-15.44627c88.04372,0 146.73954,6.17851 146.73954,15.44627c0,9.26776 -58.69582,15.44627 -146.73954,15.44627c-88.04372,0 -146.73954,-6.17851 -146.73954,-15.44627z"/>
   <path stroke="null" id="svg_28" d="m5427.68699,6704.91389c0,-9.26776 58.69582,-15.44627 146.73954,-15.44627c88.04372,0 146.73954,6.17851 146.73954,15.44627c0,9.26776 -58.69582,15.44627 -146.73954,15.44627c-88.04372,0 -146.73954,-6.17851 -146.73954,-15.44627z"/>
   <path stroke="null" id="svg_29" d="m7821.85841,6704.91389c0,-7.72313 21.62477,-15.44627 47.88343,-15.44627c26.25865,0 43.24955,6.17851 37.07104,15.44627c-4.63388,9.26776 -26.25865,15.44627 -47.88343,15.44627c-20.08015,0 -37.07104,-6.17851 -37.07104,-15.44627z"/>
   <path stroke="null" id="svg_30" d="m3035.06019,5540.26534c12.35701,-12.35701 274.94356,-15.44627 285.75594,-4.63388c6.17851,6.17851 -57.15119,10.81239 -140.56103,10.81239c-83.40984,0 -148.28417,-3.08925 -145.19491,-6.17851z"/>
   <path stroke="null" id="svg_31" d="m4948.8527,5535.63146c0,-12.35701 279.57744,-9.26776 291.93445,3.08925c3.08925,4.63388 -60.24044,7.72313 -142.10566,7.72313c-81.86522,0 -149.82879,-4.63388 -149.82879,-10.81239z"/>
   <path stroke="null" id="svg_32" d="m4948.8527,4372.52754c0,-9.26776 58.69582,-15.44627 146.73954,-15.44627c88.04372,0 146.73954,6.17851 146.73954,15.44627c0,9.26776 -58.69582,15.44627 -146.73954,15.44627c-88.04372,0 -146.73954,-6.17851 -146.73954,-15.44627z"/>
   <path stroke="null" id="svg_33" d="m5435.41012,5538.72071c30.89253,-12.35701 285.75594,-15.44627 285.75594,-3.08925c0,6.17851 -67.96358,10.81239 -149.82879,9.26776c-83.40984,0 -143.65029,-3.08925 -135.92715,-6.17851z"/>
   <path stroke="null" id="svg_34" d="m5427.68699,4372.52754c0,-9.26776 58.69582,-15.44627 146.73954,-15.44627c88.04372,0 146.73954,6.17851 146.73954,15.44627c0,9.26776 -58.69582,15.44627 -146.73954,15.44627c-88.04372,0 -146.73954,-6.17851 -146.73954,-15.44627z"/>
   <path stroke="null" id="svg_35" d="m5908.0659,5540.26534c12.35701,-12.35701 273.39893,-16.99089 285.75594,-4.63388c6.17851,6.17851 -57.15119,10.81239 -140.56103,10.81239c-83.40984,0 -148.28417,-3.08925 -145.19491,-6.17851z"/>
   <path stroke="null" id="svg_36" d="m7343.02413,5535.63146c0,-7.72313 46.3388,-10.81239 103.48999,-7.72313c183.81058,7.72313 202.3461,13.90164 47.88343,15.44627c-83.40984,1.54463 -151.37342,-1.54463 -151.37342,-7.72313z"/>
   <path stroke="null" id="svg_37" d="m7852.75095,5546.44385l-38.61567,-12.35701l43.24955,-1.54463c23.1694,-1.54463 41.70492,6.17851 41.70492,13.90164c0,9.26776 -1.54463,15.44627 -3.08925,13.90164c-3.08925,-1.54463 -21.62477,-7.72313 -43.24955,-13.90164z"/>
   <path stroke="null" id="svg_38" d="m7821.85841,4372.52754c0,-7.72313 16.99089,-15.44627 38.61567,-15.44627c21.62477,0 38.61567,7.72313 38.61567,15.44627c0,9.26776 -16.99089,15.44627 -38.61567,15.44627c-21.62477,0 -38.61567,-6.17851 -38.61567,-15.44627z"/>
   <path stroke="null" id="svg_39" d="m2791.00916,5535.63146c13.90164,-3.08925 35.52641,-3.08925 46.3388,0c9.26776,4.63388 -1.54463,7.72313 -27.80328,7.72313c-24.71403,0 -33.98179,-3.08925 -18.53552,-7.72313z"/>
   <path stroke="null" id="svg_40" d="m2770.92902,4372.52754c0,-7.72313 16.99089,-15.44627 38.61567,-15.44627c21.62477,0 38.61567,7.72313 38.61567,15.44627c0,9.26776 -16.99089,15.44627 -38.61567,15.44627c-21.62477,0 -38.61567,-6.17851 -38.61567,-15.44627z"/>
   <path stroke="null" id="svg_41" d="m2770.92902,3214.05749c0,-7.72313 16.99089,-15.44627 38.61567,-15.44627c21.62477,0 38.61567,7.72313 38.61567,15.44627c0,9.26776 -16.99089,15.44627 -38.61567,15.44627c-21.62477,0 -38.61567,-6.17851 -38.61567,-15.44627z"/>
   <path stroke="null" id="svg_42" d="m3033.51556,3214.05749c0,-9.26776 58.69582,-15.44627 146.73954,-15.44627c88.04372,0 146.73954,6.17851 146.73954,15.44627c0,9.26776 -58.69582,15.44627 -146.73954,15.44627c-88.04372,0 -146.73954,-6.17851 -146.73954,-15.44627z"/>
   <path stroke="null" id="svg_43" d="m4470.01842,3214.05749c0,-9.26776 58.69582,-15.44627 146.73954,-15.44627c88.04372,0 146.73954,6.17851 146.73954,15.44627c0,9.26776 -58.69582,15.44627 -146.73954,15.44627c-88.04372,0 -146.73954,-6.17851 -146.73954,-15.44627z"/>
   <path stroke="null" id="svg_44" d="m4948.8527,3214.05749c0,-9.26776 58.69582,-15.44627 146.73954,-15.44627c88.04372,0 146.73954,6.17851 146.73954,15.44627c0,9.26776 -58.69582,15.44627 -146.73954,15.44627c-88.04372,0 -146.73954,-6.17851 -146.73954,-15.44627z"/>
   <path stroke="null" id="svg_45" d="m5427.68699,3214.05749c0,-9.26776 58.69582,-15.44627 146.73954,-15.44627c88.04372,0 146.73954,6.17851 146.73954,15.44627c0,9.26776 -58.69582,15.44627 -146.73954,15.44627c-88.04372,0 -146.73954,-6.17851 -146.73954,-15.44627z"/>
   <path stroke="null" id="svg_46" d="m5906.52127,3214.05749c0,-9.26776 58.69582,-15.44627 146.73954,-15.44627c88.04372,0 146.73954,6.17851 146.73954,15.44627c0,9.26776 -58.69582,15.44627 -146.73954,15.44627c-88.04372,0 -146.73954,-6.17851 -146.73954,-15.44627z"/>
   <path stroke="null" id="svg_47" d="m7343.02413,3214.05749c0,-9.26776 58.69582,-15.44627 146.73954,-15.44627c88.04372,0 146.73954,6.17851 146.73954,15.44627c0,9.26776 -58.69582,15.44627 -146.73954,15.44627c-88.04372,0 -146.73954,-6.17851 -146.73954,-15.44627z"/>
   <path stroke="null" id="svg_48" d="m7821.85841,3214.05749c0,-7.72313 16.99089,-15.44627 38.61567,-15.44627c21.62477,0 38.61567,7.72313 38.61567,15.44627c0,9.26776 -16.99089,15.44627 -38.61567,15.44627c-21.62477,0 -38.61567,-6.17851 -38.61567,-15.44627z"/>
   <path stroke="null" id="svg_49" d="m2971.73049,966.6256l0,-410.87071l37.07104,-37.07104c41.70492,-41.70492 109.6685,-58.69582 217.79237,-50.97268c74.14208,4.63388 78.77596,7.72313 182.26595,128.20402c200.80147,231.69401 636.38621,752.23322 641.02009,766.13486c3.08925,7.72313 -220.88162,13.90164 -535.98547,13.90164l-542.16398,0l0,-409.32608zm262.58654,-268.76505c24.71403,-49.42806 18.53552,-91.13298 -21.62477,-117.39163c-77.23134,-50.97268 -160.64118,30.89253 -111.21312,108.12387c32.43716,47.88343 108.12387,52.51731 132.8379,9.26776z"/>
   <path stroke="null" id="svg_50" d="m6647.9421,1352.78229c0,-13.90164 24.71403,-159.09655 54.06194,-322.82699c29.34791,-165.27506 54.06194,-310.46997 54.06194,-322.82699c0,-12.35701 -13.90164,-26.25865 -30.89253,-30.89253c-44.79418,-10.81239 -40.16029,-57.15119 6.17851,-57.15119c38.61567,0 44.79418,-9.26776 63.3297,-103.48999c7.72313,-35.52641 18.53552,-50.97268 38.61567,-50.97268c23.1694,0 29.34791,13.90164 33.98179,72.59746c3.08925,55.60656 10.81239,75.68671 32.43716,78.77596c24.71403,4.63388 26.25865,-13.90164 26.25865,-227.06013l0,-233.23864l169.90894,0l169.90894,0l0,231.69401c0,220.88162 1.54463,231.69401 30.89253,231.69401c26.25865,0 30.89253,-10.81239 30.89253,-77.23134c0,-66.41895 4.63388,-77.23134 30.89253,-77.23134c20.08015,0 32.43716,12.35701 38.61567,38.61567c4.63388,21.62477 10.81239,55.60656 15.44627,75.68671c6.17851,27.80328 20.08015,40.16029 50.97268,43.24955c50.97268,6.17851 57.15119,49.42806 7.72313,55.60656c-20.08015,3.08925 -35.52641,12.35701 -35.52641,21.62477c0,7.72313 24.71403,149.82879 54.06194,315.10385c29.34791,163.73043 54.06194,312.0146 54.06194,330.55012c0,27.80328 -9.26776,30.89253 -108.12387,30.89253l-108.12387,0l0,-347.54101c0,-336.72863 -1.54463,-347.54101 -30.89253,-347.54101c-29.34791,0 -30.89253,10.81239 -30.89253,239.41714l0,239.41714l-169.90894,0l-169.90894,0l0,-239.41714c0,-228.60476 -1.54463,-239.41714 -30.89253,-239.41714c-29.34791,0 -30.89253,10.81239 -30.89253,347.54101l0,347.54101l-108.12387,0c-86.4991,0 -108.12387,-4.63388 -108.12387,-23.1694z"/>
   <path stroke="null" id="svg_51" d="m2817.26782,1026.86605c-33.98179,-30.89253 -83.40984,-101.94536 -111.21312,-157.55193c-91.13298,-185.35521 -61.78507,-406.23683 75.68671,-559.15488c38.61567,-43.24955 105.03462,-95.76686 145.19491,-117.39163c64.87432,-32.43716 95.76686,-37.07104 240.96177,-37.07104c132.8379,0 177.63207,6.17851 227.06013,30.89253c163.73043,78.77596 270.30968,236.32789 284.21132,418.59384c3.08925,57.15119 1.54463,123.57014 -4.63388,148.28417l-10.81239,43.24955l-50.97268,-58.69582c-32.43716,-37.07104 -55.60656,-83.40984 -61.78507,-123.57014c-32.43716,-191.53371 -163.73043,-324.37161 -344.45176,-345.99639c-333.63937,-38.61567 -542.16398,350.63027 -335.184,622.48457c27.80328,37.07104 38.61567,69.5082 38.61567,120.48088c0,38.61567 -6.17851,71.05283 -15.44627,71.05283c-7.72313,0 -43.24955,-24.71403 -77.23134,-55.60656z"/>
  </g>
  <path stroke="null" fill="none" d="m183.07787,280.00107c30.76927,-6.15384 45.98103,-12.69998 63.07701,-20.00003c30.47726,-13.01393 60.08545,-27.55339 87.69241,-44.61543c24.69241,-15.26076 46.51907,-28.82721 58.46161,-40.00006c7.94403,-7.43207 10.76926,-13.84616 12.30771,-18.46156l1.53848,-1.53845l0,-1.53847" id="svg_52"/>
 </g>
</svg>