<svg width="1080" height="1080" xmlns="http://www.w3.org/2000/svg" stroke="null" style="vector-effect: non-scaling-stroke;" preserveAspectRatio="xMidYMid meet" version="1.0">

 <g stroke="null">
  <title stroke="null">Layer 1</title>
  <g id="svg_1" fill="#000000" transform="translate(0 1080) scale(0.1 -0.1)">
   <path id="svg_2" d="m1693.3519,9894.119c-94.95664,-26.29569 -131.47843,-150.46976 -77.42619,-267.33947c14.60871,-33.60004 261.49599,-365.21786 549.28766,-737.74008c392.97442,-509.84414 1101.49707,-1431.65402 1155.54931,-1503.23672c2.92174,-2.92174 37.98266,32.13917 78.88706,75.96532c43.82614,48.20876 108.10449,97.87839 154.85237,121.25233c43.82614,20.4522 78.88706,40.9044 78.88706,43.82614c0,4.38261 -49.66963,68.66096 -111.02623,146.08714c-61.3566,75.96532 -144.62627,182.60893 -185.53067,236.66117c-550.74854,720.20962 -821.00975,1067.89703 -848.76631,1091.27097c-17.53046,17.53046 -36.52179,40.9044 -42.36527,54.05224c-10.2261,30.6783 -433.87882,582.88771 -498.15716,651.54867c-75.96532,81.8088 -165.07847,112.4871 -254.19163,87.65229z"/>
   <path id="svg_3" d="m8790.26539,9898.50161c-71.5827,-21.91307 -124.17407,-56.97399 -169.46109,-112.4871c-24.83481,-32.13917 -363.75699,-470.40061 -752.3488,-977.323c-390.05268,-505.46152 -755.27054,-981.70561 -813.7054,-1054.74918l-105.18274,-135.86104l71.5827,-35.06091c75.96532,-39.44353 150.46976,-105.18274 201.60026,-176.76545c17.53046,-23.37394 33.60004,-40.9044 37.98266,-36.52179c62.81747,75.96532 410.50488,527.37459 1303.09733,1694.61088c455.79189,596.03555 420.73098,544.90505 428.03533,645.70518c7.30436,100.80013 -17.53046,149.00889 -92.0349,181.14806c-55.51311,21.91307 -56.97399,23.37394 -109.56536,7.30436z"/>
   <path id="svg_4" d="m806.60293,7807.99457c-238.12205,-32.13917 -387.13093,-150.46976 -409.04401,-325.77433c-4.38261,-42.36527 -7.30436,-319.93085 -4.38261,-617.94862l4.38261,-540.52244l40.9044,-61.3566c54.05224,-81.8088 141.70453,-143.1654 255.6525,-178.22632c92.0349,-29.21743 143.1654,-29.21743 4690.85822,-29.21743c4911.44981,0 4658.71905,-2.92174 4801.88445,70.12183c77.42619,39.44353 160.69586,132.9393 181.14806,203.06113c11.68697,37.98266 14.60871,241.04379 11.68697,641.32257l-4.38261,584.34858l-40.9044,62.81747c-46.74789,70.12183 -144.62627,137.32192 -251.26989,172.38283c-65.73922,21.91307 -186.99155,26.29569 -1132.17537,29.21743c-582.88771,2.92174 -1066.43616,0 -1073.74051,-5.84349c-16.06959,-13.14784 -197.21765,-241.04379 -426.57446,-537.60069c-118.33059,-154.85237 -147.54802,-201.60026 -156.31324,-255.6525c-43.82614,-287.79168 -353.53089,-490.85281 -636.93995,-417.80923c-103.72187,27.75656 -229.35682,105.18274 -284.86993,178.22632c-124.17407,162.15673 -149.00889,398.81791 -59.89573,572.66161c65.73922,128.55669 207.44375,242.50466 337.4613,273.18296c40.9044,8.76523 140.24366,116.86972 163.6176,175.30457c7.30436,18.99133 -182.60893,21.91307 -1520.76718,21.91307c-840.00108,0 -1528.07153,-4.38261 -1528.07153,-8.76523c0,-4.38261 29.21743,-45.28701 65.73922,-90.57403c48.20876,-62.81747 81.8088,-89.11316 134.40017,-108.10449c163.6176,-59.89573 290.71342,-203.06113 334.53956,-376.90483c73.04357,-284.86993 -100.80013,-565.35725 -394.43529,-638.40082c-83.26967,-20.4522 -112.4871,-20.4522 -197.21765,-5.84349c-87.65229,16.06959 -195.75677,65.73922 -265.8786,121.25233c-84.73054,68.66096 -163.6176,223.51333 -178.22632,349.14828c-4.38261,39.44353 -67.20009,130.01756 -279.02645,404.66139l-273.18296,353.53089l-915.9664,-1.46087c-504.00065,-1.46087 -948.10557,-7.30436 -989.00997,-13.14784z"/>
   <path id="svg_5" d="m3677.21532,7404.79405c-105.18274,-45.28701 -178.22632,-146.08714 -197.21765,-271.72209c-8.76523,-55.51311 -4.38261,-83.26967 26.29569,-147.54802c77.42619,-170.92196 262.95686,-232.27856 435.33969,-144.62627c111.02623,55.51311 166.53934,147.54802 166.53934,273.18296c0,74.50444 -7.30436,102.261 -43.82614,160.69586c-80.34793,130.01756 -254.19163,188.45242 -387.13093,130.01756z"/>
   <path id="svg_6" d="m6672.00179,7409.17666c-27.75656,-8.76523 -77.42619,-42.36527 -109.56536,-75.96532c-118.33059,-118.33059 -125.63494,-293.63516 -17.53046,-425.11359c181.14806,-219.13072 552.20941,-83.26967 550.74854,201.60026c-1.46087,224.9742 -204.522,369.60048 -423.65272,299.47865z"/>
   <path id="svg_7" d="m1390.95151,5789.07023c4.38261,-26.29569 138.78279,-942.26208 299.47865,-2034.99393c178.22632,-1222.7494 300.93952,-2017.46347 318.46998,-2067.1331c118.33059,-341.84392 369.60048,-579.96596 726.05311,-689.53132c89.11316,-27.75656 147.54802,-32.13917 471.86148,-36.52179c331.61782,-5.84349 368.1396,-4.38261 368.1396,16.06959c0,13.14784 -78.88706,844.3837 -175.30457,1846.54151c-96.41752,1002.15781 -198.67852,2061.28961 -226.43507,2354.92477c-27.75656,293.63516 -55.51311,560.97464 -59.89573,596.03555l-7.30436,61.3566l-861.91415,0l-861.91415,0l8.76523,-46.74789z"/>
   <path id="svg_8" d="m3326.60618,5815.36592c0,-23.37394 51.1305,-555.13115 189.91329,-1995.5504c48.20876,-493.77455 125.63494,-1311.86256 175.30457,-1818.78495c48.20876,-505.46152 90.57403,-948.10557 96.41752,-981.70561l7.30436,-62.81747l745.04444,0l743.58357,0l0,2439.65532l0,2439.65532l-978.78387,0c-840.00108,0 -978.78387,-2.92174 -978.78387,-20.4522z"/>
   <path id="svg_9" d="m5503.30463,3396.1628l0,-2439.65532l745.04444,0l745.04444,0l0,43.82614c0,23.37394 39.44353,452.87015 87.65229,952.48818c48.20876,501.07891 111.02623,1146.78409 138.78279,1436.03663c27.75656,289.25255 90.57403,936.4186 138.78279,1438.95838c48.20876,502.53978 90.57403,934.95773 93.49577,961.25341l7.30436,46.74789l-978.78387,0l-977.323,0l0,-2439.65532z"/>
   <path id="svg_10" d="m7674.1596,5789.07023c-4.38261,-26.29569 -43.82614,-422.19185 -89.11316,-880.90548c-166.53934,-1719.44569 -372.52222,-3815.79622 -381.28745,-3881.53544l-8.76523,-70.12183l322.85259,0c428.03533,0 575.58335,29.21743 802.01842,162.15673c109.56536,65.73922 289.25255,246.88727 356.45263,360.83525c105.18274,182.60893 115.40884,236.66117 341.84392,1785.18491c115.40884,799.09668 246.88727,1698.99349 290.71342,1999.93301c43.82614,299.47865 80.34793,550.74854 80.34793,558.05289c0,7.30436 -360.83525,13.14784 -854.6098,13.14784l-853.14893,0l-7.30436,-46.74789z"/>
  </g>
 </g>
</svg>