<svg width="1080" height="1080" xmlns="http://www.w3.org/2000/svg" preserveAspectRatio="xMidYMid meet" version="1.0">

 <g>
  <title>Layer 1</title>
  <g stroke="null" id="svg_1" fill="#000000" transform="translate(0 1080) scale(0.1 -0.1)">
   <path stroke="null" id="svg_2" d="m826.29781,9923.92612c-194.2144,-96.44661 -269.52203,-319.72711 -173.07542,-511.29915c22.46017,-44.92034 60.77458,-97.7678 84.55593,-117.58559c23.78136,-21.13898 265.55847,-170.43305 535.0805,-334.26017c457.1305,-277.44915 490.16016,-299.90932 503.37203,-343.50847c11.89068,-40.95678 535.0805,-2164.10336 698.90762,-2833.94488c35.67203,-145.33051 136.0822,-554.8983 224.60169,-911.61863c87.1983,-355.39915 207.42627,-842.91694 265.55847,-1083.37287c153.25763,-630.20592 162.50593,-655.30847 277.44915,-727.97372c120.22796,-75.30763 -38.31441,-71.34407 2959.45759,-68.70169l2753.35251,3.96356l75.30763,36.99322c225.92288,110.97966 290.66101,392.39237 134.76102,576.03728c-60.77458,70.02288 -125.51271,110.97966 -206.10508,130.79746c-46.24152,11.89068 -717.40423,15.85424 -2623.87624,15.85424l-2563.10166,0l-15.85424,67.38051c-9.2483,35.67203 -11.89068,70.02288 -7.92712,73.98644c3.96356,5.28475 387.10762,34.35085 850.84406,66.05932c4075.86012,274.80678 3912.033,262.9161 4025.65503,301.2305c200.82034,66.05932 364.64745,204.7839 459.77288,387.10762c54.16864,103.05254 56.81102,109.65847 293.30339,1152.07456c76.62881,338.22372 150.61525,664.55677 165.1483,726.65253c126.8339,541.68643 158.54237,702.87118 158.54237,801.96016c0,351.43559 -229.88644,652.66609 -562.82542,737.22202c-43.59915,10.56949 -1543.14574,155.9 -3334.67453,323.69067c-1790.2076,167.79068 -3258.04572,307.83644 -3260.68809,310.47881c-2.64237,2.64237 -25.10254,85.87712 -50.20508,184.9661c-56.81102,228.56525 -84.55593,270.84322 -240.45593,367.28983c-63.41695,39.63559 -322.36949,200.82034 -577.35847,359.36271c-253.66779,158.54237 -491.48135,301.2305 -528.47457,318.40593c-99.08898,47.56271 -215.35339,43.59915 -321.0483,-9.2483zm3107.43047,-1940.82286c227.24406,-17.17542 397.67711,-34.35085 422.77966,-44.92034c60.77458,-25.10254 137.40339,-121.54915 159.86356,-199.49915c23.78136,-87.1983 80.59237,-676.44745 68.70169,-722.68897c-14.53305,-54.16864 -84.55593,-126.8339 -138.72457,-144.00932c-70.02288,-19.8178 -856.1288,2.64237 -901.04914,26.42373c-46.24152,25.10254 -117.58559,93.80424 -140.04576,136.0822c-18.49661,35.67203 -150.61525,712.11948 -150.61525,771.57287c0,54.16864 40.95678,136.0822 81.91356,166.46949c47.56271,33.02966 105.69491,47.56271 169.11186,40.95678c25.10254,-2.64237 217.99576,-15.85424 428.0644,-30.38729zm1831.16438,-138.72457c363.32627,-22.46017 380.50169,-26.42373 446.56101,-107.0161c58.1322,-70.02288 68.70169,-134.76102 71.34407,-469.02118l3.96356,-297.26695l-36.99322,-55.48983c-19.8178,-31.70847 -59.45339,-67.38051 -91.16186,-83.23474c-55.48983,-27.74491 -64.73813,-29.0661 -406.92542,-19.8178c-387.10762,10.56949 -430.70677,19.8178 -487.51779,97.7678c-56.81102,80.59237 -66.05932,126.8339 -88.51949,443.91864c-21.13898,290.66101 -21.13898,315.76356 0,369.9322c23.78136,62.09576 46.24152,87.1983 107.0161,118.90678c48.8839,26.42373 71.34407,26.42373 482.23304,1.32119zm1638.27116,-132.11864c141.36695,-10.56949 272.1644,-23.78136 290.66101,-27.74491c54.16864,-11.89068 117.58559,-84.55593 138.72457,-157.22118c18.49661,-58.1322 18.49661,-92.48305 0,-310.47881c-11.89068,-134.76102 -30.38729,-269.52203 -40.95678,-299.90932c-25.10254,-67.38051 -105.69491,-141.36695 -174.39661,-158.54237c-29.0661,-7.92712 -161.18474,-7.92712 -332.93898,-1.32119c-309.15762,11.89068 -347.47203,21.13898 -401.64067,95.12542c-34.35085,44.92034 -40.95678,170.43305 -25.10254,478.26949c10.56949,204.7839 13.21186,216.67457 51.52627,277.44915c44.92034,73.98644 121.54915,124.19152 190.25084,124.19152c25.10254,0 162.50593,-9.2483 303.87288,-19.8178zm1473.12286,-93.80424c281.41271,-23.78136 315.76356,-36.99322 362.00508,-128.15508l30.38729,-63.41695l-48.8839,-260.27373c-52.84746,-281.41271 -66.05932,-321.0483 -128.15508,-384.46525c-88.51949,-89.84068 -133.43983,-99.08898 -430.70677,-81.91356c-254.98898,14.53305 -285.37627,25.10254 -331.61779,107.0161c-15.85424,27.74491 -27.74491,67.38051 -27.74491,89.84068c0,76.62881 66.05932,517.90508 83.23474,561.50423c27.74491,64.73813 88.51949,129.47627 147.97288,155.9c64.73813,30.38729 52.84746,30.38729 343.50847,3.96356zm-4526.38469,-1268.33897l202.14152,-7.92712l48.8839,-44.92034c27.74491,-23.78136 56.81102,-66.05932 66.05932,-93.80424c26.42373,-85.87712 79.27119,-569.43135 66.05932,-614.35169c-14.53305,-54.16864 -58.1322,-99.08898 -109.65847,-114.94322c-46.24152,-14.53305 -303.87288,-27.74491 -597.17626,-30.38729c-186.28729,-1.32119 -202.14152,0 -253.66779,29.0661c-97.7678,55.48983 -116.26441,96.44661 -175.71779,404.28305c-34.35085,175.71779 -51.52627,297.26695 -47.56271,332.93898c6.60593,67.38051 58.1322,129.47627 121.54915,146.65169c38.31441,10.56949 258.95254,9.2483 679.08982,-6.60593zm1808.70421,2.64237c62.09576,-22.46017 129.47627,-92.48305 144.00932,-150.61525c7.92712,-29.0661 7.92712,-147.97288 1.32119,-299.90932c-10.56949,-229.88644 -14.53305,-256.31017 -43.59915,-305.19406c-55.48983,-93.80424 -81.91356,-99.08898 -471.66355,-95.12542c-319.72711,3.96356 -340.8661,5.28475 -376.53813,31.70847c-95.12542,71.34407 -108.33729,124.19152 -113.62203,480.91186c-2.64237,192.89322 -1.32119,207.42627 27.74491,253.66779c17.17542,26.42373 54.16864,59.45339 85.87712,75.30763c51.52627,26.42373 76.62881,27.74491 379.1805,26.42373c215.35339,0 338.22372,-6.60593 367.28983,-17.17542zm1477.08642,-55.48983c19.8178,-14.53305 47.56271,-48.8839 62.09576,-76.62881c25.10254,-48.8839 25.10254,-54.16864 3.96356,-270.84322c-11.89068,-122.87034 -27.74491,-243.0983 -35.67203,-268.20084c-15.85424,-62.09576 -92.48305,-138.72457 -154.57881,-154.57881c-26.42373,-7.92712 -161.18474,-14.53305 -298.58813,-14.53305c-285.37627,0 -338.22372,13.21186 -392.39237,101.73135c-31.70847,50.20508 -35.67203,142.68813 -17.17542,406.92542c9.2483,147.97288 22.46017,190.25084 70.02288,236.49237c70.02288,67.38051 112.30085,73.98644 433.34915,70.02288c272.1644,-2.64237 295.94576,-3.96356 328.97542,-30.38729zm1318.54405,-31.70847c25.10254,-22.46017 48.8839,-58.1322 54.16864,-79.27119c3.96356,-21.13898 -7.92712,-134.76102 -27.74491,-253.66779c-40.95678,-248.38305 -66.05932,-307.83644 -155.9,-360.68389c-55.48983,-31.70847 -63.41695,-33.02966 -301.2305,-33.02966c-232.52881,0 -247.06186,1.32119 -289.33983,30.38729c-84.55593,56.81102 -91.16186,100.41017 -58.1322,383.14406c22.46017,186.28729 47.56271,253.66779 110.97966,298.58813c67.38051,48.8839 95.12542,52.84746 360.68389,52.84746l260.27373,1.32119l46.24152,-39.63559zm-228.56525,-1079.40931c21.13898,-11.89068 47.56271,-43.59915 59.45339,-67.38051c19.8178,-43.59915 19.8178,-55.48983 -14.53305,-229.88644c-58.1322,-289.33983 -81.91356,-310.47881 -385.78644,-328.97542c-318.40593,-21.13898 -302.55169,-22.46017 -339.54491,13.21186c-18.49661,17.17542 -36.99322,42.27797 -40.95678,55.48983c-14.53305,43.59915 34.35085,384.46525 60.77458,437.31271c14.53305,27.74491 50.20508,66.05932 79.27119,85.87712c44.92034,29.0661 73.98644,36.99322 181.00254,43.59915c251.02542,17.17542 359.36271,14.53305 400.31949,-9.2483zm-1232.66693,-56.81102c88.51949,-39.63559 97.7678,-77.95 83.23474,-310.47881c-14.53305,-215.35339 -29.0661,-260.27373 -101.73135,-310.47881c-46.24152,-30.38729 -63.41695,-33.02966 -315.76356,-44.92034c-249.70423,-11.89068 -269.52203,-10.56949 -318.40593,13.21186c-27.74491,13.21186 -64.73813,46.24152 -81.91356,71.34407c-29.0661,42.27797 -30.38729,55.48983 -22.46017,171.75424c15.85424,264.23728 19.8178,289.33983 55.48983,331.61779c59.45339,70.02288 99.08898,81.91356 301.2305,91.16186c322.36949,14.53305 339.54491,14.53305 400.31949,-13.21186zm-1321.18642,-39.63559c88.51949,-39.63559 108.33729,-96.44661 108.33729,-318.40593c0,-99.08898 -3.96356,-199.49915 -7.92712,-221.95932c-10.56949,-52.84746 -73.98644,-114.94322 -128.15508,-125.51271c-23.78136,-5.28475 -173.07542,-11.89068 -332.93898,-17.17542c-247.06186,-6.60593 -298.58813,-3.96356 -339.54491,13.21186c-75.30763,31.70847 -99.08898,83.23474 -109.65847,231.20762c-17.17542,248.38305 -14.53305,317.08474 14.53305,355.39915c62.09576,81.91356 83.23474,89.84068 299.90932,97.7678c395.03474,14.53305 434.67033,13.21186 495.44491,-14.53305zm-1446.69913,-59.45339c91.16186,-42.27797 103.05254,-75.30763 126.8339,-334.26017c25.10254,-269.52203 21.13898,-291.9822 -73.98644,-343.50847c-48.8839,-26.42373 -88.51949,-31.70847 -385.78644,-51.52627c-310.47881,-19.8178 -335.58135,-19.8178 -391.07118,1.32119c-100.41017,38.31441 -116.26441,70.02288 -163.82712,315.76356c-46.24152,247.06186 -50.20508,301.2305 -19.8178,347.47203c43.59915,66.05932 80.59237,73.98644 393.71355,84.55593c367.28983,13.21186 451.84576,10.56949 513.94152,-19.8178z"/>
   <path stroke="null" id="svg_3" d="m3706.48421,2473.75588c-270.84322,-72.66525 -478.26949,-265.55847 -573.39491,-532.43813c-39.63559,-112.30085 -43.59915,-387.10762 -5.28475,-498.08728c60.77458,-179.68135 174.39661,-328.97542 331.61779,-433.34915c151.93644,-103.05254 243.0983,-128.15508 449.20338,-128.15508c142.68813,1.32119 186.28729,5.28475 253.66779,30.38729c499.40847,178.36017 709.47711,750.43389 438.63389,1199.63727c-93.80424,154.57881 -273.48559,295.94576 -447.8822,350.1144c-128.15508,40.95678 -323.69067,46.24152 -446.56101,11.89068z"/>
   <path stroke="null" id="svg_4" d="m8281.7528,2486.96775c-302.55169,-60.77458 -557.54067,-302.55169 -634.16948,-601.13982c-25.10254,-100.41017 -25.10254,-295.94576 0,-396.35593c73.98644,-289.33983 305.19406,-520.54745 594.53389,-594.53389c99.08898,-25.10254 278.77034,-25.10254 387.10762,0c450.52457,105.69491 726.65253,597.17626 583.9644,1037.13134c-88.51949,270.84322 -330.29661,491.48135 -601.13982,548.29237c-99.08898,21.13898 -244.41949,23.78136 -330.29661,6.60593z"/>
  </g>
 </g>
</svg>