<?xml version="1.0" standalone="no"?>
<!DOCTYPE svg PUBLIC "-//W3C//DTD SVG 20010904//EN"
 "http://www.w3.org/TR/2001/REC-SVG-20010904/DTD/svg10.dtd">
<svg version="1.0" xmlns="http://www.w3.org/2000/svg"
 width="1080.000000pt" height="1080.000000pt" viewBox="0 0 1080.000000 1080.000000"
 preserveAspectRatio="xMidYMid meet">

<g transform="translate(0.000000,1080.000000) scale(0.100000,-0.100000)"
fill="#000000" stroke="none">
<path d="M5025 8895 c-169 -26 -324 -101 -450 -218 -91 -84 -152 -167 -204
-279 -65 -139 -74 -186 -80 -438 l-6 -225 -490 -5 c-434 -4 -494 -7 -521 -22
-41 -23 -89 -73 -111 -117 -22 -45 -27 329 37 -3206 12 -632 23 -1156 25
-1162 3 -10 109 -13 477 -14 538 -2 1551 -14 1438 -17 -41 -2 -488 -13 -993
-26 -505 -13 -920 -26 -923 -29 -2 -2 -31 -234 -64 -515 -57 -492 -59 -512
-44 -562 21 -70 84 -133 153 -154 43 -13 107 -13 463 -6 1498 32 1743 33 2767
12 1115 -23 1051 -26 1128 54 27 28 47 61 57 95 15 48 13 69 -29 437 -60 514
-75 635 -80 640 -2 2 -417 15 -922 28 -505 13 -949 24 -988 26 -105 3 914 15
1446 17 l466 1 7 337 c15 741 64 3500 68 3813 3 216 -1 238 -66 302 -68 68
-61 68 -573 68 -364 0 -463 -3 -463 -12 0 -7 -7 -85 -15 -173 -8 -88 -15 -173
-17 -190 -1 -16 -5 166 -8 405 -7 484 -7 481 -81 638 -126 272 -369 454 -664
498 -117 18 -626 17 -740 -1z m789 -333 c176 -65 303 -199 358 -375 16 -51 19
-93 19 -257 l1 -195 -775 -3 -774 -2 -11 -138 c-7 -76 -12 -153 -12 -172 0
-18 -3 -31 -6 -28 -3 4 -5 170 -5 370 0 329 2 371 19 426 63 201 224 348 427
392 22 5 189 7 370 6 312 -2 333 -3 389 -24z m-1319 -1326 c61 -26 89 -98 61
-158 -58 -121 -241 -68 -223 64 6 45 29 75 72 94 39 17 49 17 90 0z m1878 0
c45 -19 68 -48 74 -94 14 -104 -106 -173 -186 -107 -75 64 -56 177 35 205 40
12 41 12 77 -4z"/>
</g>
</svg>
