<?xml version="1.0" standalone="no"?>
<!DOCTYPE svg PUBLIC "-//W3C//DTD SVG 20010904//EN"
 "http://www.w3.org/TR/2001/REC-SVG-20010904/DTD/svg10.dtd">
<svg version="1.0" xmlns="http://www.w3.org/2000/svg"
 width="626.000000pt" height="626.000000pt" viewBox="0 0 626.000000 626.000000"
 preserveAspectRatio="xMidYMid meet">

<g transform="translate(0.000000,626.000000) scale(0.100000,-0.100000)"
fill="#000000" stroke="none">
<path d="M10 5630 l0 -620 620 0 620 0 0 620 0 620 -620 0 -620 0 0 -620z
m735 508 c27 -12 55 -54 55 -83 0 -11 10 -15 38 -15 43 0 66 -19 77 -62 10
-40 -26 -108 -98 -184 l-60 -65 62 32 c58 30 62 31 86 15 33 -22 34 -68 3 -91
-15 -11 -19 -19 -11 -22 53 -20 74 -83 37 -110 -28 -21 -51 -16 -76 17 -67 88
-80 100 -110 100 -25 0 -29 -3 -23 -17 30 -71 37 -103 32 -156 -8 -93 -68
-174 -152 -207 -17 -7 -99 -14 -182 -16 l-153 -3 0 157 c0 176 9 210 70 269
50 49 96 67 170 68 52 0 76 -6 118 -27 l52 -27 6 25 c4 14 4 47 1 73 -5 44
-15 77 -63 202 -15 40 -16 50 -4 78 21 52 74 72 125 49z"/>
<path d="M448 5693 c-23 -6 -30 -29 -12 -44 11 -9 24 -9 59 1 27 8 67 10 98 7
l52 -6 -40 24 c-38 24 -106 32 -157 18z"/>
<path d="M1570 6100 l0 -150 1090 0 1090 0 0 150 0 150 -1090 0 -1090 0 0
-150z"/>
<path d="M1570 5635 l0 -155 1090 0 1090 0 0 155 0 155 -1090 0 -1090 0 0
-155z"/>
<path d="M4692 5057 c-193 -193 -352 -359 -352 -367 0 -20 691 -710 710 -710
19 0 200 180 200 200 0 7 -73 88 -162 179 l-163 166 55 3 c65 4 188 -19 290
-54 143 -48 251 -117 367 -236 100 -102 148 -179 221 -350 41 -96 92 -312 92
-390 l0 -48 150 0 150 0 0 78 c0 226 -118 571 -265 777 -61 86 -250 270 -332
322 -158 102 -357 175 -543 200 -63 8 -133 18 -154 21 l-39 7 172 172 c94 94
171 178 171 185 0 18 -182 198 -200 198 -8 0 -174 -159 -368 -353z"/>
<path d="M1570 5165 l0 -155 1090 0 1090 0 0 155 0 155 -1090 0 -1090 0 0
-155z"/>
<path d="M10 4070 l0 -620 620 0 620 0 0 620 0 620 -620 0 -620 0 0 -620z
m555 460 c20 -12 37 -15 50 -10 11 5 39 9 62 9 36 1 48 -5 78 -34 33 -34 37
-35 85 -29 95 13 186 -46 210 -137 24 -86 -34 -197 -116 -223 -40 -12 -113
-252 -130 -423 -3 -40 -12 -77 -18 -81 -6 -5 -49 -14 -96 -21 -67 -9 -87 -8
-96 1 -6 7 -24 51 -39 98 -34 107 -96 238 -127 267 -13 12 -40 37 -61 54 -26
22 -41 44 -48 76 -10 36 -18 47 -49 63 -51 26 -74 64 -73 122 1 65 32 111 93
140 36 17 53 33 65 60 43 91 126 118 210 68z"/>
<path d="M820 4074 c0 -5 -11 -22 -24 -37 -13 -15 -27 -47 -31 -72 -10 -71
-54 -81 -80 -19 -20 49 -35 42 -35 -15 0 -53 -19 -84 -45 -75 -8 4 -29 30 -46
60 -17 30 -35 54 -40 54 -15 0 -11 -14 17 -65 15 -26 44 -95 64 -154 l38 -106
43 4 c57 4 59 6 59 48 0 53 37 223 66 304 14 39 23 73 20 77 -3 3 -6 1 -6 -4z"/>
<path d="M1570 4540 l0 -150 1090 0 1090 0 0 150 0 150 -1090 0 -1090 0 0
-150z"/>
<path d="M1580 4200 c-6 -12 -9 -72 -8 -152 l3 -133 1085 0 1085 0 3 153 3
152 -1080 0 c-1068 0 -1080 0 -1091 -20z"/>
<path d="M1570 3600 l0 -150 1090 0 1090 0 0 150 0 150 -1090 0 -1090 0 0
-150z"/>
<path d="M969 2789 c-20 -20 -21 -29 -16 -118 13 -216 126 -526 262 -717 63
-88 239 -259 325 -316 88 -58 210 -118 300 -146 152 -48 164 -50 399 -78 l44
-6 -171 -171 c-95 -95 -172 -179 -172 -187 0 -24 184 -203 204 -198 24 4 716
698 716 717 0 21 -690 711 -710 711 -19 0 -200 -180 -200 -200 0 -7 73 -88
163 -179 l162 -166 -57 -3 c-132 -7 -364 67 -508 161 -63 42 -205 182 -249
247 -105 153 -211 465 -211 622 l0 48 -130 0 c-119 0 -132 -2 -151 -21z"/>
<path d="M3450 2190 l0 -620 620 0 620 0 0 620 0 620 -620 0 -620 0 0 -620z
m752 483 c10 -9 23 -33 29 -53 10 -33 13 -35 44 -32 45 5 75 -25 75 -76 0 -44
-33 -100 -103 -178 l-45 -50 54 28 c46 23 59 25 79 16 43 -19 45 -77 4 -99
-19 -10 -18 -11 13 -32 40 -27 48 -65 19 -91 -32 -29 -66 -14 -102 44 -34 55
-54 70 -93 70 l-25 0 21 -46 c54 -124 4 -263 -117 -327 -35 -18 -61 -22 -197
-25 l-158 -4 0 139 c0 177 14 231 76 290 80 77 197 92 292 37 37 -22 43 -23
48 -9 15 37 -4 151 -36 228 -37 89 -40 116 -16 152 31 47 97 55 138 18z"/>
<path d="M3882 2239 c-15 -5 -22 -15 -20 -26 4 -19 23 -21 110 -8 27 5 60 3
78 -3 42 -15 29 3 -20 28 -41 21 -109 25 -148 9z"/>
<path d="M5010 2190 l0 -620 620 0 620 0 0 620 0 620 -620 0 -620 0 0 -620z
m537 459 c38 -18 49 -20 88 -10 53 13 81 5 120 -37 26 -28 32 -30 80 -25 89 9
159 -26 195 -98 48 -94 5 -213 -94 -260 -23 -11 -36 -31 -62 -100 -37 -97 -74
-263 -74 -336 0 -26 -4 -54 -9 -61 -8 -14 -173 -44 -194 -36 -7 2 -26 44 -41
92 -15 48 -48 129 -72 180 -35 72 -54 99 -87 123 -47 34 -87 92 -87 126 0 16
-11 28 -40 43 -71 36 -97 109 -66 183 15 38 66 84 102 93 14 4 31 20 40 40 9
18 28 45 42 60 49 49 93 55 159 23z"/>
<path d="M5808 2172 c-10 -15 -22 -34 -27 -42 -5 -8 -16 -35 -23 -60 -18 -63
-49 -67 -78 -9 -26 50 -38 42 -42 -31 -3 -51 -5 -55 -28 -55 -19 0 -31 12 -55
52 -16 29 -36 53 -43 53 -8 0 -12 -3 -10 -7 2 -5 19 -39 39 -78 20 -38 46
-101 59 -140 34 -105 33 -104 81 -95 49 9 59 21 59 73 0 56 27 180 60 277 16
46 28 85 27 86 -1 2 -10 -9 -19 -24z"/>
<path d="M3450 630 l0 -620 620 0 620 0 0 620 0 620 -620 0 -620 0 0 -620z
m400 529 c6 -11 9 -25 7 -32 -2 -7 4 -29 15 -49 14 -29 24 -38 44 -38 36 0 97
-34 129 -72 34 -40 75 -125 75 -156 0 -41 67 -158 102 -180 60 -37 125 -150
135 -232 5 -42 3 -49 -17 -60 -12 -6 -31 -10 -41 -7 -15 4 -19 0 -19 -19 0
-31 -42 -74 -72 -74 -13 0 -34 7 -46 16 -20 13 -22 14 -22 0 0 -9 -12 -23 -26
-32 -24 -16 -27 -16 -52 3 -68 50 -132 174 -132 254 0 49 -39 129 -90 184 -80
88 -110 207 -75 292 14 33 14 38 -3 67 -10 17 -22 29 -26 26 -11 -7 -38 48
-31 60 6 10 113 69 127 70 4 0 12 -9 18 -21z"/>
<path d="M3920 992 c0 -6 11 -12 23 -16 57 -14 126 -109 128 -176 l0 -25 11
22 c16 32 -40 144 -85 171 -41 25 -77 36 -77 24z"/>
<path d="M5010 630 l0 -620 620 0 620 0 0 620 0 620 -620 0 -620 0 0 -620z
m739 411 c60 -67 71 -84 65 -105 -12 -51 18 -83 72 -77 15 1 42 -22 98 -85 43
-47 76 -88 73 -90 -2 -2 -99 15 -215 39 -203 40 -212 43 -212 65 0 66 -59 85
-102 33 l-25 -29 -151 31 c-110 21 -152 34 -152 44 0 48 99 162 175 201 68 35
136 50 226 51 l76 1 72 -79z m-404 -231 c81 -16 150 -30 152 -30 1 0 3 -10 3
-22 0 -28 28 -58 54 -58 11 0 32 12 47 26 l27 26 209 -42 c114 -23 216 -44
226 -46 14 -4 17 -17 17 -65 0 -45 -3 -59 -15 -59 -39 0 -46 -80 -10 -108 23
-18 25 -27 25 -96 0 -42 -4 -76 -10 -76 -5 0 -128 25 -272 55 -145 31 -341 72
-435 92 l-173 36 0 199 c0 109 2 198 3 198 2 0 71 -13 152 -30z"/>
<path d="M5586 1017 c-39 -28 6 -80 60 -69 13 2 29 13 35 24 23 42 -51 77 -95
45z"/>
<path d="M5353 953 c-21 -8 -15 -41 8 -48 32 -10 69 3 69 24 0 26 -41 39 -77
24z"/>
<path d="M5282 714 c-30 -20 -29 -59 3 -80 30 -20 63 -10 76 23 10 28 -1 57
-27 67 -22 9 -27 8 -52 -10z"/>
<path d="M5712 638 c-7 -7 -12 -25 -12 -40 0 -50 81 -51 88 -1 6 40 -48 69
-76 41z"/>
<path d="M5416 524 c-18 -17 -19 -24 -8 -40 22 -33 78 -13 65 24 -13 33 -34
39 -57 16z"/>
<path d="M5867 434 c-13 -14 -7 -43 12 -53 23 -13 45 8 39 36 -3 18 -38 30
-51 17z"/>
</g>
</svg>
